<?xml version="1.0" standalone="no"?>
<!DOCTYPE svg PUBLIC "-//W3C//DTD SVG 1.1//EN" "http://www.w3.org/Graphics/SVG/1.1/DTD/svg11.dtd" >
<svg xmlns="http://www.w3.org/2000/svg">
<metadata></metadata>
<defs>
<font id="gt_sectra_displayregular" horiz-adv-x="1269" >
<font-face units-per-em="2048" ascent="1536" descent="-512" />
<missing-glyph horiz-adv-x="489" />
<glyph unicode="&#xfb01;" horiz-adv-x="1150" d="M51 0v20l133 13v891h-133v20h133v23q0 100 19.5 161.5t72.5 114.5l209 211h512v-217h-20l-176 63h-398l-6 -26q-6 -20 -10 -41t-6 -47.5t-2 -64.5v-91v-86h409l175 31h20v-942l127 -13v-20h-451v20l129 13v891h-409v-891l209 -13v-20h-537z" />
<glyph unicode="&#xfb02;" horiz-adv-x="1140" d="M51 924v20h133v23q0 100 19.5 161.5t72.5 114.5l209 211h496v-1421l129 -13v-20h-451v20l127 13v891h-407v-891l209 -13v-20h-531v20l127 13v891h-133zM379 944h407v356h-383l-6 -26q-6 -20 -10 -41t-6 -47.5t-2 -64.5v-91v-86z" />
<glyph unicode="&#xfb03;" horiz-adv-x="1755" d="M51 0v20l133 13v891h-133v20h133v10q0 49 4.5 87t15.5 69t28.5 57.5t43.5 53.5l209 211h308l-164 -156h-226l-6 -25q-6 -20 -10 -40.5t-6 -47t-2 -64.5v-91v-64h409v23q0 100 19.5 161.5t73.5 114.5l209 211h512v-217h-21l-178 63h-395l-9 -26q-6 -20 -9 -41t-5 -47.5 t-2 -64.5v-91v-86h410l172 31h20v-942l129 -13v-20h-450v20l127 13v891h-408v-891l209 -13v-20h-537v20l133 13v891h-409v-891l209 -13v-20h-537z" />
<glyph unicode="&#xfb04;" horiz-adv-x="1742" d="M51 0v20l133 13v891h-133v20h133v10q0 49 4.5 87t15.5 69t28.5 57.5t43.5 53.5l209 211h312l-162 -156h-232l-6 -25q-6 -20 -10 -40.5t-6 -47t-2 -64.5v-91v-64h407v23q0 100 19.5 161.5t75.5 114.5l209 211h495v-1421l127 -13v-20h-450v20l129 13v891h-410v-891l209 -13 v-20h-531v20l127 13v891h-407v-891l209 -13v-20h-537zM981 944h410v356h-383l-9 -26q-6 -20 -10 -41t-5 -47.5t-2 -64.5t-1 -91v-86z" />
<glyph horiz-adv-x="0" />
<glyph horiz-adv-x="0" />
<glyph unicode="&#xd;" horiz-adv-x="655" />
<glyph unicode=" "  horiz-adv-x="489" />
<glyph unicode="&#x09;" horiz-adv-x="489" />
<glyph unicode="&#xa0;" horiz-adv-x="489" />
<glyph unicode="!" horiz-adv-x="557" d="M166 1454h225l-16 -643l-76 -399h-41l-78 397zM174 102l19 84l129 11l49 -11l10 -98l-19 -88l-129 -10l-49 10z" />
<glyph unicode="&#x22;" horiz-adv-x="759" d="M102 1358l19 90l145 10l60 -10l10 -107l-19 -100l-182 -323l-14 6l133 313l-86 -6l-55 10zM434 1358l19 90l145 10l59 -10l11 -107l-19 -100l-182 -323l-14 6l133 313l-86 -6l-56 10z" />
<glyph unicode="#" horiz-adv-x="1245" d="M82 424l6 47h285l49 397h-287l6 45h285l53 428h47l-53 -428h363l53 428h47l-53 -428h280l-4 -45h-280l-50 -397h283l-6 -47h-283l-51 -424h-47l51 424h-362l-52 -424h-47l52 424h-285zM420 471h362l49 397h-362z" />
<glyph unicode="$" horiz-adv-x="1091" d="M94 88v338h21l94 -231q61 -68 144 -118t190 -50h16v594l-215 129q-51 31 -94 61.5t-74 68.5t-49 85t-18 108q0 147 112.5 248.5t337.5 142.5v135h29v-133q102 -2 191 -22.5t175 -61.5v-331h-20l-107 262q-51 47 -110.5 76.5t-128.5 33.5v-559l157 -94q129 -76 191.5 -158 t62.5 -202q0 -61 -20.5 -122t-68.5 -115t-126.5 -100t-195.5 -83v-154h-29v146l-53 -15q-131 0 -226.5 32t-185.5 89zM289 1186q0 -92 56 -151.5t155 -116.5l59 -37v544h-2q-123 0 -195.5 -66.5t-72.5 -172.5zM588 29q109 12 173 80.5t64 177.5q0 96 -53 168.5t-178 144.5 l-6 4v-575z" />
<glyph unicode="%" horiz-adv-x="1671" d="M102 1073q0 162 93.5 249t277.5 122q70 0 128 -25.5t98 -70.5t62.5 -109.5t22.5 -140.5q0 -162 -93 -251t-279 -118q-72 0 -128.5 25.5t-97.5 70.5t-62.5 108.5t-21.5 139.5zM260 1116q0 -166 47 -261t150 -95q88 0 129 80t41 215q0 164 -48.5 260t-150.5 96 q-86 0 -127 -81t-41 -214zM317 -10l1012 1454h57l-1007 -1454h-62zM887 334q0 164 93 250t277 121q72 0 129.5 -26t98.5 -71t62.5 -108.5t21.5 -139.5q0 -162 -93.5 -250.5t-277.5 -119.5q-72 0 -129 25.5t-97 70.5t-62.5 108.5t-22.5 139.5zM1044 377q0 -164 47.5 -259 t149.5 -95q88 0 129 79.5t41 212.5q0 164 -47.5 260.5t-151.5 96.5q-86 0 -127 -81t-41 -214z" />
<glyph unicode="&#x26;" horiz-adv-x="1390" d="M94 303q0 76 26.5 138.5t72 114.5t106.5 95t131 82l-22 25q-51 61 -91.5 110.5t-67 92.5t-40.5 82.5t-14 82.5q0 129 103 209t308 135q94 0 166 -22.5t119 -59t71.5 -86t24.5 -104.5q0 -111 -89 -198t-263 -181l321 -387l244 287l-141 12v21h311v-21l-131 -12l-262 -309 l313 -377l111 -13v-20h-346l-217 254q-57 -63 -143.5 -142t-172.5 -143q-86 0 -164.5 23.5t-137 67.5t-92.5 105.5t-34 137.5zM281 428q0 -61 21.5 -114.5t59 -93.5t89 -63.5t110.5 -23.5q53 0 109.5 21.5t120.5 93.5l26 31l-371 436q-53 -33 -84.5 -70t-50 -73.5 t-24.5 -73.5t-6 -70zM391 1221q0 -84 65.5 -176.5t155.5 -200.5l4 -4q55 39 87 83t48.5 91t21.5 94t5 94q0 102 -55 165t-145 63q-88 0 -137.5 -55.5t-49.5 -153.5z" />
<glyph unicode="'" horiz-adv-x="417" d="M102 1354l19 92l145 8l60 -8l10 -109l-19 -98l-182 -326l-14 7l133 313l-86 -4l-55 10z" />
<glyph unicode="(" horiz-adv-x="589" d="M92 498q0 143 24.5 267t79 240.5t140.5 231.5t211 238l12 -11q-92 -98 -153.5 -208.5t-99.5 -233.5t-54 -255t-16 -269q0 -139 16 -270.5t54 -254.5t99.5 -233.5t153.5 -208.5l-12 -10q-125 123 -211 236.5t-140.5 230t-79 242t-24.5 268.5z" />
<glyph unicode=")" horiz-adv-x="589" d="M31 -469q92 98 153.5 208.5t99.5 233.5t54 254t16 271q0 137 -16 269t-54 255t-99.5 233.5t-153.5 208.5l12 11q125 -123 211 -238t140.5 -231.5t79 -240.5t24.5 -267t-24.5 -268.5t-79 -242t-140.5 -230t-211 -236.5z" />
<glyph unicode="*" horiz-adv-x="827" d="M92 1165l55 174l261 -176l-84 301h180l-86 -301l262 174l55 -172l-313 -12l248 -190l-148 -109l-108 293l-109 -293l-147 107l248 192z" />
<glyph unicode="+" d="M106 498v49h504v508h49v-508h504v-49h-504v-498h-49v498h-504z" />
<glyph unicode="," horiz-adv-x="481" d="M174 119l19 96l147 10l59 -10l11 -113l-19 -102l-180 -293l-18 8l122 279l-75 -4l-56 10z" />
<glyph unicode="-" horiz-adv-x="788" d="M82 537v63h625v-63h-625z" />
<glyph unicode="." horiz-adv-x="460" d="M143 119l19 96l149 10l58 -10l10 -113l-19 -102l-151 -10l-55 10z" />
<glyph unicode="/" horiz-adv-x="937" d="M-20 -471l927 1941h51l-923 -1941h-55z" />
<glyph unicode="0" horiz-adv-x="1150" d="M82 461q0 229 135 352t401 172q102 0 185.5 -36t143 -100.5t91 -154.5t31.5 -198q0 -231 -136.5 -357.5t-402.5 -169.5q-102 0 -184 36t-141.5 100.5t-91 155.5t-31.5 200zM295 506q0 -106 16.5 -196.5t51 -157t90 -103.5t135.5 -37q70 0 120 34t81.5 93.5t46 139.5 t14.5 170q0 104 -16.5 194t-51 155.5t-91 102.5t-136.5 37q-70 0 -119 -34t-80.5 -93t-46 -138t-14.5 -167z" />
<glyph unicode="1" horiz-adv-x="860" d="M59 0v20l289 13v835l-276 -100l-6 20l456 193h21v-948l276 -13v-20h-760z" />
<glyph unicode="2" horiz-adv-x="952" d="M41 18l221 175q111 84 178.5 156.5t106.5 137t52 120t13 106.5q0 63 -15 105t-40 68.5t-57.5 38t-67.5 11.5q-41 0 -72.5 -10.5t-52.5 -20.5l-57 -266h-176v188l407 174q96 0 163 -21.5t108 -57t59 -82.5t18 -99q-2 -139 -117.5 -265t-332.5 -247l-113 -55h625v-18 l-57 -156h-781z" />
<glyph unicode="3" horiz-adv-x="972" d="M53 631v205l479 165q82 0 138.5 -23.5t91.5 -60t51 -80.5t16 -85q0 -47 -17 -95.5t-60 -94.5t-115 -89t-178 -82q94 -4 172 -30.5t131 -69.5t82.5 -99.5t29.5 -117.5q0 -129 -87 -222.5t-255 -177.5l-294 -145h-181v182h473q63 59 98.5 118.5t35.5 147.5q0 59 -25 113.5 t-74 96.5t-122.5 67t-170.5 25l-4 24l107 59q82 39 130 80t73.5 82t32.5 84t7 90q0 102 -53 165t-137 63q-35 0 -73 -11.5t-60 -21.5l-74 -262h-168z" />
<glyph unicode="4" horiz-adv-x="1099" d="M23 23l616 942h250v-21l-830 -917h547v356l195 113v-469h278v-29h-278v-467h-195v467h-567z" />
<glyph unicode="5" horiz-adv-x="968" d="M84 -283h381q111 74 163 163t52 218q0 49 -11.5 93.5t-37 78t-66.5 53t-100 19.5q-31 0 -57.5 -3t-54 -11.5t-60.5 -22.5t-76 -39l-84 -45l-10 10l78 740h694l-25 -174h-659l-57 -543l411 221q86 0 147.5 -24.5t101.5 -65.5t59.5 -94t19.5 -113q0 -94 -32 -165.5 t-86 -129t-127 -103.5t-152 -89l-295 -156h-117v182z" />
<glyph unicode="6" horiz-adv-x="1120" d="M88 539q0 141 40 283.5t130 268.5t233.5 226t350.5 158l8 -19q-172 -61 -276.5 -145t-163 -185.5t-80 -218t-23.5 -245.5v-27l371 283q92 0 157.5 -36t107.5 -92.5t60.5 -127t18.5 -138.5q0 -94 -27.5 -181t-87 -158.5t-152.5 -127t-225 -88.5q-111 0 -193.5 47t-138 126 t-83 182.5t-27.5 214.5zM309 610q4 -129 22.5 -237.5t52.5 -186t83 -122t111 -44.5q115 0 173 98.5t58 315.5q0 174 -55.5 266.5t-141.5 92.5q-59 0 -115.5 -40t-131.5 -100z" />
<glyph unicode="7" horiz-adv-x="970" d="M41 788v183h872l17 -19l-588 -1415h-156v19l652 1232h-797z" />
<glyph unicode="8" horiz-adv-x="1087" d="M98 319q0 70 28 126.5t74 102.5t105.5 84t120.5 68l-109 93q-35 29 -68.5 63.5t-60 74.5t-42 83t-15.5 90q0 139 110.5 224t319.5 138q201 0 304.5 -76.5t103.5 -211.5q0 -117 -82 -206t-238 -167l160 -131q76 -61 129 -136t53 -171q0 -160 -115.5 -252.5t-357.5 -145.5 q-84 0 -159.5 21.5t-133 65.5t-92.5 109.5t-35 153.5zM297 358q0 -84 24.5 -148.5t62.5 -107.5t85 -65.5t94 -22.5q37 0 76 11.5t71.5 39t53 73.5t20.5 118q0 45 -12 84t-36.5 76t-62.5 73.5t-91 81.5l-123 103q-76 -63 -119 -140t-43 -176zM334 1231q0 -98 59.5 -181 t184.5 -186l43 -37q92 86 118.5 167t26.5 167q0 117 -63.5 188.5t-174.5 71.5q-84 0 -139 -47t-55 -143z" />
<glyph unicode="9" horiz-adv-x="1118" d="M61 453q0 94 29 178t89.5 154.5t152.5 126t221 89.5q111 0 193.5 -48t138 -128t83 -183t27.5 -214q0 -141 -43 -282.5t-134 -265.5t-233.5 -222t-340.5 -156l-8 19q152 57 254 140t165.5 184.5t91 218t29.5 245.5v21l-358 -279q-92 0 -160 37t-112 95.5t-64.5 129 t-20.5 140.5zM276 551q0 -186 59.5 -277.5t147.5 -91.5q29 0 49.5 4t43 17.5t52 37t77.5 60.5l71 55q-4 127 -22.5 235.5t-52 187.5t-83 124t-110.5 45q-111 0 -171.5 -97t-60.5 -300z" />
<glyph unicode=":" horiz-adv-x="491" d="M154 119l18 96l150 10l57 -10l10 -113l-18 -102l-152 -10l-55 10zM154 883l18 96l150 12l57 -12l10 -113l-18 -100l-152 -12l-55 12z" />
<glyph unicode=";" horiz-adv-x="532" d="M154 119l18 96l147 10l60 -10l10 -113l-18 -102l-181 -293l-18 8l129 279l-82 -4l-55 10zM154 883l18 96l150 12l57 -12l10 -113l-18 -100l-152 -12l-55 12z" />
<glyph unicode="&#x3c;" d="M102 571v31l1065 490v-54l-999 -452l999 -451v-53z" />
<glyph unicode="=" d="M104 283v47h1061v-47h-1061zM104 674v49h1061v-49h-1061z" />
<glyph unicode="&#x3e;" d="M102 82v53l1000 451l-1000 452v54l1065 -490v-31z" />
<glyph unicode="?" horiz-adv-x="847" d="M111 1174v251l204 29q113 -4 194 -32.5t133 -72.5t75.5 -99.5t23.5 -110.5q0 -129 -70.5 -213t-205.5 -150l-119 -57l-14 -301h-41l-37 268l80 62q53 43 93 83.5t65.5 89t38 103.5t12.5 127q0 55 -12.5 104.5t-41 87t-73.5 62.5t-113 29l-98 -260h-94zM209 102l18 84 l129 11l50 -11l10 -98l-19 -88l-129 -10l-49 10z" />
<glyph unicode="@" horiz-adv-x="1867" d="M102 520q0 147 51.5 280.5t142.5 243t218 193.5t279 135l196 62q193 0 339.5 -44t245.5 -122t150.5 -185.5t51.5 -234.5q0 -137 -51.5 -257t-139.5 -210t-202.5 -144.5t-239.5 -60.5l-117 135l45 211l-287 -350q-49 6 -94 30.5t-81 66.5t-57.5 100.5t-21.5 132.5 q0 82 27 157.5t74 139t111.5 115t142.5 87.5l219 101l221 -129l-158 -774q76 4 156 48t144.5 123t105.5 189.5t41 249.5q0 123 -43 227.5t-122 182t-190.5 121.5t-248.5 44q-141 0 -275.5 -56t-240 -161.5t-169 -254t-63.5 -332.5t62.5 -321.5t165 -228.5t235.5 -135.5 t272 -44.5q63 0 121 12.5t108 31t92 40t73 39.5l8 -14q-59 -35 -126 -66.5t-132.5 -56t-126 -43t-109.5 -26.5q-180 0 -328.5 56t-254 156.5t-163 238.5t-57.5 302zM692 575q0 -104 42 -172.5t128 -93.5l217 248l78 350l-182 115q-84 -45 -138.5 -101.5t-86 -116t-45 -119 t-13.5 -110.5z" />
<glyph unicode="A" horiz-adv-x="1427" d="M10 0v20l148 13l481 1353l154 74l481 -1427l143 -13v-20h-557v18l172 15l-160 485h-507l-170 -485l174 -15v-18h-359zM377 549h485l-233 719z" />
<glyph unicode="B" horiz-adv-x="1271" d="M57 0v20l162 13v1368l-162 12v21h668q98 0 172 -26t123 -70t74.5 -101t25.5 -119q0 -80 -35.5 -144.5t-96 -111.5t-139.5 -73.5t-167 -28.5q133 0 230.5 -27.5t160 -76t93 -112t30.5 -134.5q0 -98 -38 -173t-107.5 -127.5t-168 -80t-218.5 -29.5h-607zM438 33l180 -13 q96 0 163 30t109 81t60.5 119.5t18.5 146.5q0 86 -25.5 150.5t-69 108.5t-102.5 65.5t-127 21.5h-207v-710zM438 772h195q63 0 112.5 26.5t82 73t49 108.5t16.5 136q0 133 -65.5 215t-188.5 82l-201 -12v-629z" />
<glyph unicode="C" horiz-adv-x="1386" d="M78 690q0 172 53 309.5t149.5 235.5t233.5 156.5t303 74.5q150 0 263.5 -29.5t207.5 -76.5v-340h-20l-129 287q-53 55 -127 93t-193 38q-100 0 -189 -45t-156.5 -134.5t-106.5 -223.5t-39 -312q0 -143 29.5 -274.5t92 -230.5t160 -157.5t232.5 -58.5q92 0 170 37t129 90 l129 309h20v-342q-59 -25 -114.5 -45t-113.5 -36.5t-124 -28t-141 -19.5q-141 0 -271.5 47t-229.5 138.5t-158.5 226.5t-59.5 311z" />
<glyph unicode="D" horiz-adv-x="1478" d="M57 0v20l176 13v1368l-176 12v21h652q160 0 288.5 -46.5t219 -134.5t138.5 -217t48 -293q0 -158 -43 -292t-130 -232t-217 -155.5t-304 -63.5h-652zM455 33l237 -13q104 0 191.5 51.5t149 144.5t95 225t33.5 294q0 150 -27.5 274t-87 214t-152.5 140t-224 50l-215 -12 v-1368z" />
<glyph unicode="E" horiz-adv-x="1230" d="M57 0v20l162 13v1368l-162 12v21h1100v-373h-20l-138 344h-561v-641h324l90 244h20v-512h-20l-90 241h-324v-708h576l133 354h20v-383h-1110z" />
<glyph unicode="F" horiz-adv-x="1183" d="M57 0v20l162 13v1368l-162 12v21h1098v-385h-20l-144 356h-553v-668h324l90 267h20v-564h-20l-90 269h-324v-676l174 -13v-20h-555z" />
<glyph unicode="G" horiz-adv-x="1476" d="M78 692q0 168 52 305.5t149.5 236.5t236.5 158.5t313 73.5q154 0 271 -33.5t188 -74.5v-338h-20l-129 287q-51 53 -125 92t-187 39q-117 0 -209 -53.5t-156.5 -150.5t-99 -231.5t-34.5 -293.5q0 -141 29.5 -270.5t89 -227.5t149.5 -156.5t211 -58.5q98 0 171 38t112 85 v487l-162 17v22h502v-22l-121 -17v-512q-104 -47 -235.5 -85t-293.5 -42q-143 0 -271 47t-223.5 139.5t-151.5 227.5t-56 311z" />
<glyph unicode="H" horiz-adv-x="1515" d="M57 0v20l162 13v1368l-162 12v21h541v-21l-160 -12v-641h639v641l-159 12v21h540v-21l-162 -12v-1368l162 -13v-20h-540v20l159 13v696h-639v-696l160 -13v-20h-541z" />
<glyph unicode="I" horiz-adv-x="657" d="M57 0v20l162 13v1368l-162 12v21h543v-21l-162 -12v-1368l162 -13v-20h-543z" />
<glyph unicode="J" horiz-adv-x="681" d="M2 -172h234l6 45q2 18 5 41t4 57.5t2 86t1 126.5v1217l-203 12v21h584v-21l-162 -12v-1170q0 -135 -43 -222t-108 -159l-185 -208h-135v186z" />
<glyph unicode="K" horiz-adv-x="1423" d="M57 0v20l162 13v1368l-162 12v21h541v-21l-160 -12v-658l692 658l-184 12v21h397v-21l-172 -12l-686 -647l166 47l629 -768l123 -13v-20h-371l-594 723v-690l160 -13v-20h-541z" />
<glyph unicode="L" horiz-adv-x="1146" d="M57 0v20l162 13v1368l-162 12v21h543v-21l-162 -12v-1368h518l150 360h20v-393h-1069z" />
<glyph unicode="M" horiz-adv-x="1841" d="M57 0v20l162 13v1368l-162 12v21h402l485 -1215l451 1215h389v-21l-164 -12v-1368l164 -13v-20h-527v20l144 13v1325l-506 -1368h-109l-536 1386v-1343l153 -13v-20h-346z" />
<glyph unicode="N" horiz-adv-x="1409" d="M57 0v20l162 13v1368l-162 12v21h416l723 -1129v1096l-168 12v21h361v-21l-162 -12v-1411h-103l-874 1378v-1335l168 -13v-20h-361z" />
<glyph unicode="O" horiz-adv-x="1556" d="M78 688q0 328 177 524.5t544 253.5q152 0 276.5 -55t214.5 -151.5t140.5 -228.5t50.5 -286q0 -328 -177 -524.5t-546 -253.5q-152 0 -277 55.5t-215 151.5t-139 228.5t-49 285.5zM328 754q0 -160 36.5 -296t103.5 -235.5t157 -155t196 -55.5q98 0 174 51.5t128.5 142.5 t79 213t26.5 263q0 160 -37 295t-102.5 234.5t-155.5 154.5t-197 55q-98 0 -174 -51t-128 -141t-79.5 -212t-27.5 -263z" />
<glyph unicode="P" horiz-adv-x="1181" d="M57 0v20l162 13v1368l-162 12v21h662q90 0 169 -22.5t138 -69t93 -115t34 -160.5q0 -100 -41 -169t-110.5 -117t-159.5 -78.5t-189 -55.5h-215v-614l176 -13v-20h-557zM438 676h162q70 0 129 27.5t100 77.5t65 119t24 149q0 74 -16.5 140t-51.5 116.5t-89 79t-132 28.5 l-191 -12v-725z" />
<glyph unicode="Q" horiz-adv-x="1556" d="M78 688q0 328 177 524.5t544 253.5q152 0 276.5 -55t214.5 -151.5t140.5 -228.5t50.5 -286q0 -324 -175.5 -520t-533.5 -254l285 -49l272 -223l94 -16l-2 -23h-307l-356 307q-152 0 -277 55.5t-215 151.5t-139 228.5t-49 285.5zM328 754q0 -160 36.5 -296t103.5 -235.5 t157 -155t196 -55.5q98 0 174 51.5t128.5 142.5t79 213t26.5 263q0 160 -37 295t-102.5 234.5t-155.5 154.5t-197 55q-98 0 -174 -51t-128 -141t-79.5 -212t-27.5 -263z" />
<glyph unicode="R" horiz-adv-x="1335" d="M57 0v20l162 13v1368l-162 12v21h660q80 0 155.5 -18.5t135 -60.5t96.5 -108.5t37 -165.5q0 -94 -43 -162.5t-117 -116.5t-173 -77t-212 -43l264 -57l367 -592l98 -13v-20h-332l-407 680h-148v-647l152 -13v-20h-533zM438 709h113q174 0 263 98t89 258q0 84 -22.5 148.5 t-60.5 108.5t-90 67.5t-114 23.5l-178 -12v-692z" />
<glyph unicode="S" horiz-adv-x="1073" d="M86 88v338h20l95 -231q61 -68 144 -118t190 -50q127 0 204.5 70.5t77.5 189.5q0 96 -53 168.5t-178 144.5l-250 150q-51 31 -94 61.5t-74 68.5t-49.5 85t-18.5 108q0 150 115 251t344 142q213 0 387 -84v-331h-20l-107 262q-55 53 -122.5 82.5t-147.5 29.5 q-123 0 -195.5 -66.5t-72.5 -172.5q0 -92 56 -151.5t155 -116.5l245 -148q129 -76 191.5 -158t62.5 -202q0 -68 -24.5 -132.5t-81 -122t-151.5 -105.5t-236 -83q-131 0 -226.5 32t-185.5 89z" />
<glyph unicode="T" horiz-adv-x="1173" d="M20 1030v404h1133v-404h-20l-148 375h-289v-1372l183 -13v-20h-584v20l182 13v1372h-289l-147 -375h-21z" />
<glyph unicode="U" horiz-adv-x="1357" d="M20 1413v21h543v-21l-162 -12v-918q0 -92 25 -171t73 -138t118.5 -93t164.5 -34q80 0 143.5 34t109.5 93t70.5 138t24.5 171v918l-163 12v21h370v-21l-161 -12v-914q0 -94 -20.5 -178t-73 -152.5t-142.5 -116.5t-231 -73q-141 0 -241.5 39t-164 109.5t-93.5 169 t-30 217.5v899z" />
<glyph unicode="V" horiz-adv-x="1427" d="M10 1413v21h551v-19l-166 -14l420 -1223l412 1223l-174 14v19h364v-21l-153 -12l-463 -1374l-144 -54l-503 1428z" />
<glyph unicode="W" horiz-adv-x="2054" d="M20 1413v21h531v-21l-166 -12l365 -1151l249 827l-104 324l-125 12v21h530v-21l-165 -12l364 -1151l363 1151l-179 12v21h351v-21l-136 -12l-438 -1387l-102 -24l-340 1032l-305 -1008l-105 -24l-463 1411z" />
<glyph unicode="X" horiz-adv-x="1454" d="M20 0v20l209 13l412 608l-473 760l-133 14v19h543v-21l-152 -12l369 -590l387 590l-217 12v21h454v-21l-200 -12l-408 -619l471 -749l131 -13v-20h-549v20l158 13l-365 581l-391 -581l217 -13v-20h-463z" />
<glyph unicode="Y" horiz-adv-x="1409" d="M10 1413v21h578v-21l-178 -12l405 -770l406 770l-197 12v21h375v-21l-146 -12l-422 -811v-557l218 -13v-20h-658v20l219 13v526l-454 842z" />
<glyph unicode="Z" horiz-adv-x="1159" d="M37 0v16l811 1389h-567l-168 -369h-21v398h1016v-15l-811 -1390h582l180 379h16v-408h-1038z" />
<glyph unicode="[" horiz-adv-x="634" d="M174 -471v1935h389v-20l-258 -12v-1870l258 -13v-20h-389z" />
<glyph unicode="\" horiz-adv-x="876" d="M-51 1470h51l928 -1941h-56z" />
<glyph unicode="]" horiz-adv-x="624" d="M72 -451l258 13v1870l-258 12v20h379v-1935h-379v20z" />
<glyph unicode="^" horiz-adv-x="739" d="M102 942l258 502h21l256 -502h-41l-225 457l-228 -457h-41z" />
<glyph unicode="_" horiz-adv-x="1157" d="M10 -150h1137v-47h-1137v47z" />
<glyph unicode="`" horiz-adv-x="1024" d="M305 1481h189l118 -359h-24z" />
<glyph unicode="a" horiz-adv-x="966" d="M59 213q0 51 21.5 105.5t89.5 105.5l442 143v140q0 43 -4 81.5t-20.5 66.5t-51 44t-98.5 16q-31 0 -54.5 -5t-66.5 -17l-47 -234h-178v158l383 168q111 0 172.5 -15.5t102.5 -54.5q37 -37 49 -96t12 -141v-442q0 -49 9 -94.5t26 -92.5l108 14l2 -18l-297 -59l-43 176 l-284 -193q-121 0 -197 62.5t-76 181.5zM268 262q0 -78 39 -126t101 -48q43 0 83.5 19.5t67.5 39.5l53 37v363l-252 -96q-41 -35 -66.5 -80t-25.5 -109z" />
<glyph unicode="b" horiz-adv-x="1079" d="M20 1395l306 67h20v-676l309 199q72 0 135.5 -28.5t111.5 -84t76 -135.5t28 -184q0 -137 -37 -237.5t-102.5 -170t-158 -112.5t-204.5 -64q-117 0 -202 20.5t-150 55.5v1348l-127 -23zM346 94q31 -47 75 -68.5t109 -21.5q53 0 100.5 33t83.5 93t57.5 147t21.5 196 q0 180 -54.5 282.5t-171.5 102.5q-49 0 -86 -19.5t-88 -47.5l-47 -31v-666z" />
<glyph unicode="c" horiz-adv-x="899" d="M68 440q0 123 41 218.5t108.5 163t155.5 107.5t182 56q33 0 71 -9t74.5 -24.5t71.5 -34t59 -38.5v-187h-157l-80 238q-41 14 -76 14q-55 0 -104 -20.5t-86 -65.5t-59.5 -116.5t-22.5 -172.5q0 -96 24.5 -178t70.5 -141.5t110.5 -94t142.5 -34.5q72 0 129 22.5t117 69.5 l8 -14q-78 -76 -156 -129.5t-170 -100.5q-96 0 -179 32t-144.5 93.5t-96 148.5t-34.5 197z" />
<glyph unicode="d" horiz-adv-x="1128" d="M68 430q0 102 26.5 193.5t81.5 164t141 124t205 73.5q55 0 106.5 -12t98.5 -41v465l-127 -23l-4 21l305 67h21v-1222q0 -53 6 -92t26 -91l131 15l5 -19l-312 -67l-47 192l-285 -209q-84 0 -152.5 37t-119.5 99.5t-78.5 146.5t-27.5 178zM279 514q0 -86 16 -162t47 -131 t75 -88t99 -33q45 0 76 14.5t90 57.5l45 31v661q-25 31 -67 55.5t-101 24.5q-141 -2 -210.5 -117.5t-69.5 -312.5z" />
<glyph unicode="e" horiz-adv-x="952" d="M68 438q0 119 35.5 212t98 161t145.5 111t175 63q178 0 265 -99.5t87 -269.5v-57h-628v-2q0 -104 28.5 -185t78.5 -136.5t118 -83t145 -27.5q70 0 132.5 25.5t121.5 62.5l13 -14q-47 -41 -87 -73t-81 -58.5t-85.5 -50t-97.5 -48.5q-92 0 -176 31t-148.5 90.5t-102 146.5 t-37.5 201zM246 580h416v36q0 70 -8.5 128.5t-30 100.5t-58.5 65.5t-96 23.5q-115 0 -167 -97.5t-56 -256.5z" />
<glyph unicode="f" horiz-adv-x="653" d="M51 0v20l133 13v891h-133v20h133v23q0 100 19.5 161.5t72.5 114.5l209 211h220v-154h-302l-6 -26q-6 -20 -10 -41t-6 -47.5t-2 -64.5v-91v-86h254v-20h-254v-891l215 -13v-20h-543z" />
<glyph unicode="g" horiz-adv-x="1017" d="M39 -203l233 172q-104 25 -146 79t-42 124v31l203 153q-92 35 -147.5 105.5t-55.5 169.5q0 131 97.5 216t295.5 138q119 0 207 -50t127 -134l107 184h90v-194h-177l-14 -15q20 -39 21 -90q-2 -133 -96.5 -219t-297.5 -139q-35 0 -69.5 5t-65.5 15l-84 -82q0 -66 36 -94.5 t91 -28.5h381q55 0 96 -16t69 -43t41 -61.5t13 -73.5q0 -76 -37.5 -141.5t-105.5 -121t-161 -100.5t-202 -82q-203 0 -305 57.5t-102 198.5v37zM207 -213q0 -86 63 -139q61 -51 155 -51h11h84q63 0 120.5 20.5t100.5 54t68 76.5t25 90q0 59 -38 95t-124 36h-377 q-53 -45 -70.5 -93t-17.5 -89zM281 678q0 -57 9 -112.5t31.5 -99.5t60.5 -70.5t95 -26.5q80 0 121 68.5t41 197.5q0 57 -9 113.5t-32 100.5t-59.5 70.5t-94.5 26.5q-80 0 -121.5 -69.5t-41.5 -198.5z" />
<glyph unicode="h" horiz-adv-x="1169" d="M61 1395l306 67h20v-706l371 229q70 0 107.5 -15.5t60.5 -37.5q18 -16 29.5 -35.5t19.5 -47.5t11 -67t3 -96v-653l146 -13v-20h-441v20l94 13v663q0 94 -30.5 129t-91.5 35q-55 0 -99.5 -22.5t-103.5 -59.5l-76 -45v-700l96 -13v-20h-420v20l130 13v1364l-127 -23z" />
<glyph unicode="i" horiz-adv-x="561" d="M61 897l310 78h20v-942l129 -13v-20h-450v20l127 13v874l-131 -30zM188 1333l19 88l139 11l55 -11l11 -104l-19 -96l-143 -11l-51 11z" />
<glyph unicode="j" horiz-adv-x="530" d="M-41 -303h221l4 31q4 25 10.5 80t6.5 137v962l-133 -30l-2 20l307 78h22v-979q0 -43 -5 -76t-16.5 -60.5t-30.5 -54t-48 -57.5l-199 -233h-137v182zM190 1333l19 88l139 11l55 -11l11 -104l-19 -96l-143 -11l-51 11z" />
<glyph unicode="k" horiz-adv-x="1105" d="M61 1395l306 67h20v-925l471 385l-145 12v20h331v-20l-139 -12l-471 -379l152 28l422 -538l88 -13v-20h-316l-393 518v-485l127 -13v-20h-451v20l130 13v1364l-127 -23z" />
<glyph unicode="l" horiz-adv-x="544" d="M61 1395l306 67h20v-1429l127 -13v-20h-451v20l130 13v1364l-127 -23z" />
<glyph unicode="m" horiz-adv-x="1740" d="M61 897l310 78h20v-219l354 229q70 0 107 -15.5t59 -37.5q31 -29 47.5 -65t16.5 -111l356 229q68 0 106 -15.5t60 -37.5q18 -18 29.5 -36.5t19.5 -45.5t11.5 -66t3.5 -96v-655l145 -13v-20h-442v20l96 13v661q0 96 -31 131t-94 35q-49 0 -98.5 -26.5t-89.5 -53.5l-72 -47 v-700l98 -13v-20h-393v20l96 13v661q0 96 -30.5 131t-94.5 35q-51 0 -99 -26.5t-89 -53.5l-72 -47v-700l98 -13v-20h-419v20l127 13v874l-131 -28z" />
<glyph unicode="n" horiz-adv-x="1173" d="M61 897l310 78h20v-219l371 229q70 0 107.5 -15.5t60.5 -37.5q18 -18 30.5 -36.5t19.5 -46.5t10 -67t3 -96v-653l148 -13v-20h-443v20l97 13v663q0 94 -32 129t-91 35q-57 0 -100.5 -22.5t-104.5 -59.5l-76 -45v-700l98 -13v-20h-419v20l127 13v874l-131 -30z" />
<glyph unicode="o" horiz-adv-x="1071" d="M68 455q0 119 35.5 208t101 152.5t158 104.5t202.5 65q96 0 177 -36t139.5 -100.5t91.5 -153.5t33 -193q0 -119 -36 -208t-102.5 -153.5t-158.5 -105.5t-203 -66q-96 0 -176 36t-138.5 100.5t-91 153.5t-32.5 196zM276 516q0 -111 21.5 -204t58.5 -158.5t89.5 -102.5 t113.5 -37q117 0 176.5 114t59.5 308q0 121 -21.5 214t-60.5 157.5t-90.5 97.5t-112.5 33q-117 0 -175.5 -111.5t-58.5 -310.5z" />
<glyph unicode="p" horiz-adv-x="1087" d="M31 897l303 78h20l4 -193l295 203q80 0 147.5 -33.5t116 -94t76 -141.5t27.5 -175q0 -104 -25.5 -195.5t-81 -165.5t-141.5 -128t-207 -83q-55 0 -108.5 13.5t-96.5 48.5v-469l195 -13v-20h-520v20l131 13v1345l-131 -28zM360 102q25 -41 70 -66q42 -24 96 -24h9 q125 2 199.5 120t74.5 321q0 84 -15.5 156.5t-45 127t-73.5 86t-102 31.5q-53 0 -87.5 -19.5t-88.5 -54.5l-37 -22v-656z" />
<glyph unicode="q" horiz-adv-x="1067" d="M68 410q0 115 35.5 212t102 171.5t158 124t201.5 67.5q98 0 163 -16.5t124 -50.5l49 61h21v-1417l135 -13v-20h-525v20l195 13v608l-291 -201q-74 0 -141.5 30t-117.5 87t-79.5 139t-29.5 185zM279 504q0 -78 13 -150.5t40.5 -128t73 -88.5t106.5 -33q53 0 87 14.5 t81 45.5l47 31v653q-27 47 -66.5 74.5t-103.5 27.5q-55 0 -105.5 -26.5t-88 -82t-61 -139t-23.5 -198.5z" />
<glyph unicode="r" horiz-adv-x="757" d="M61 897l301 78h21l8 -320l201 320h135v-209h-235l-101 -139v-592l187 -15v-20h-508v20l127 13v874l-131 -28z" />
<glyph unicode="s" horiz-adv-x="778" d="M63 55v269h21l109 -218q43 -41 89 -67.5t109 -26.5q88 0 130 43t42 99q0 39 -10 66.5t-29.5 51t-51.5 45t-75 50.5l-168 106q-29 18 -58.5 40t-53 48.5t-37.5 62t-14 83.5q0 100 81.5 167.5t241.5 110.5q102 0 172 -20.5t127 -51.5v-262h-20l-109 221q-47 47 -90 61.5 t-96 14.5q-68 0 -109 -38t-41 -97q0 -66 43 -103.5t115 -82.5l174 -111q94 -56 131 -112q35 -53 35 -126v-8q-2 -104 -86 -183t-254 -120q-86 0 -172 26.5t-146 61.5z" />
<glyph unicode="t" horiz-adv-x="681" d="M10 924v20h152v156l194 112v-268h287v-20h-287v-695q0 -72 32 -104.5t89 -32.5q53 0 94 13.5t88 37.5l9 -18l-287 -156q-68 0 -110 19.5t-66.5 53.5t-33.5 81t-9 102v699h-152z" />
<glyph unicode="u" horiz-adv-x="1120" d="M23 913l313 56h20v-709q0 -92 32 -131t89 -39q47 0 84 17.5t90 50.5l90 53v698l-133 -16v20l307 56h21v-705q0 -63 7 -110.5t20 -98.5l106 11l4 -21l-295 -57l-35 198l-350 -217q-66 0 -107.5 15.5t-64.5 35.5q-18 18 -30.5 38t-20.5 47.5t-11 67.5t-3 97v639l-131 -16z " />
<glyph unicode="v" horiz-adv-x="1073" d="M10 934v20h445v-20l-115 -12l293 -816l278 816l-143 12v20h295v-20l-115 -12l-307 -883l-166 -76l-358 959z" />
<glyph unicode="w" horiz-adv-x="1685" d="M10 934v20h439v-20l-115 -12l278 -824l209 650l-59 174l-107 12v20h439v-20l-117 -12l280 -824l267 824l-142 12v20h293v-20l-112 -12l-289 -885l-176 -72l-256 727l-213 -655l-176 -72l-336 957z" />
<glyph unicode="x" horiz-adv-x="1093" d="M27 0v20l145 13l305 395l-319 494l-103 12v20h424v-20l-76 -12l226 -353l254 353l-168 12v20h352v-20l-147 -12l-271 -379l328 -510l104 -13v-20h-428v20l78 13l-235 368l-283 -368l170 -13v-20h-356z" />
<glyph unicode="y" horiz-adv-x="1085" d="M10 934v20h447v-20l-117 -12l293 -805l285 805l-140 12v20h297v-20l-119 -12l-299 -844l-254 -559h-223v192h228l215 379l-172 -78l-334 910z" />
<glyph unicode="z" horiz-adv-x="937" d="M68 0v16l589 918h-364l-150 -297h-20v317h764v-16l-580 -918h398l143 302h20v-322h-800z" />
<glyph unicode="{" horiz-adv-x="694" d="M102 506q49 20 77 50t41 66.5t15.5 78.5t2.5 85v392q0 66 20.5 119t56 89.5t83.5 57t104 20.5h98v-20h-94q-55 0 -96 -48t-41 -175v-424q0 -37 -6.5 -74t-23.5 -72t-47 -64.5t-77 -49.5l154 -103v-661q0 -127 45 -175.5t104 -48.5h94v-20h-104q-119 0 -194.5 78 t-75.5 209v587z" />
<glyph unicode="|" horiz-adv-x="499" d="M225 -502v1972h49v-1972h-49z" />
<glyph unicode="}" horiz-adv-x="684" d="M72 1444v20h104q117 0 193.5 -77.5t76.5 -208.5v-541l136 -102q-49 -20 -77 -50t-41 -67t-15.5 -79t-2.5 -85v-438q0 -66 -20 -119t-56 -90t-84 -57.5t-104 -20.5h-98v20h94q55 0 96 48.5t41 175.5v469q0 76 30 146.5t122 115.5l-152 102v615q0 127 -46 175t-103 48h-94z " />
<glyph unicode="~" horiz-adv-x="1368" d="M102 416l80 164l193 36l776 -122l94 151h21l-78 -156l-193 -45l-776 129l-96 -157h-21z" />
<glyph unicode="&#xa1;" horiz-adv-x="526" d="M150 -489l16 643l76 401h41l77 -399l15 -645h-225zM160 879l18 86l131 10l47 -10l11 -103l-17 -84l-131 -8l-49 8z" />
<glyph unicode="&#xa2;" horiz-adv-x="915" d="M82 440q0 115 36 205t96 156.5t138 109.5t164 64v137h29v-131q4 0 12 2t12 2q33 0 71 -9t76 -24.5t71.5 -34t58.5 -38.5v-187h-156l-82 238q-37 14 -76 14q-53 0 -102 -20.5t-87 -65.5t-60.5 -116.5t-22.5 -172.5q0 -96 25.5 -178t71.5 -141.5t109.5 -94t141.5 -34.5 q72 0 129.5 22.5t118.5 69.5l8 -14q-78 -74 -154.5 -127.5t-164.5 -98.5v-137h-29v133q-92 4 -172 38t-138.5 94.5t-91 145.5t-32.5 193z" />
<glyph unicode="&#xa3;" horiz-adv-x="1110" d="M82 0v20l162 21v698h-162v21h162v233q0 100 27.5 176t84 132.5t141.5 95.5t197 67q109 0 181.5 -23.5t115.5 -64.5v-313h-20l-97 258q-43 49 -84.5 73.5t-113.5 24.5q-117 0 -177.5 -74.5t-60.5 -216.5v-368h348v-21h-348v-428q0 -68 -3 -111.5t-11 -74.5t-23.5 -52.5 t-38.5 -41.5h515l131 307h20v-338h-946z" />
<glyph unicode="&#xa4;" d="M184 313l142 142q-45 53 -70 119.5t-25 142.5q0 78 28 147.5t77 122.5l-152 154l37 35l150 -152q53 47 121.5 73.5t146.5 26.5q76 0 142.5 -25.5t119.5 -72.5l150 150l34 -35l-149 -148q53 -53 82 -124.5t29 -151.5q0 -76 -27 -144.5t-74 -121.5l139 -138l-34 -34 l-138 137q-55 -51 -124.5 -79t-149.5 -28t-152.5 29t-126.5 82l-139 -141zM283 717q0 -74 27.5 -139.5t76.5 -115.5t113.5 -79t138.5 -29q78 0 146.5 34t117.5 87l4 6q41 47 64.5 107.5t23.5 128.5q0 74 -27.5 140.5t-76.5 115.5t-113.5 78.5t-138.5 29.5t-138.5 -29.5 t-113.5 -78.5t-76.5 -115.5t-27.5 -140.5z" />
<glyph unicode="&#xa5;" horiz-adv-x="1394" d="M41 1413v21h577v-21l-176 -12l367 -770l365 770l-195 12v21h375v-21l-146 -12l-389 -811v-35h228v-20h-228v-179h228v-20h-228v-303l219 -13v-20h-657v20l219 13v303h-213v20h213v179h-213v20h213v4l-414 842z" />
<glyph unicode="&#xa6;" horiz-adv-x="499" d="M225 379h49v-881h-49v881zM225 590v880h49v-880h-49z" />
<glyph unicode="&#xa7;" horiz-adv-x="1085" d="M82 504q0 106 61.5 187t186.5 128q-141 123 -142 281q0 141 102.5 233t293.5 133q111 0 190.5 -26.5t126.5 -71.5v-250h-20l-95 215q-35 43 -88 68.5t-129 25.5q-47 0 -88 -11t-71.5 -36.5t-48 -66.5t-17.5 -103q0 -47 16.5 -88t51 -84t90 -89t133.5 -101l369 -252v-86 q0 -80 -25 -140.5t-65 -106.5t-93 -78.5t-110 -57.5l166 -127v-90q0 -98 -35 -167t-90.5 -117t-127 -78t-145.5 -50q-88 0 -177 30t-146 66v279h20l86 -219q41 -41 97.5 -77t142.5 -36q45 0 85 16.5t70.5 50.5t49 83t18.5 116v35l-336 252q-145 111 -226 206t-81 204z M233 616q0 -55 28 -104t71 -92t94 -82t100 -76l168 -123q66 31 113 93.5t47 166.5v31l-289 207q-25 18 -56.5 40.5t-62 46.5t-57.5 44t-43 37q-49 -18 -81 -64.5t-32 -124.5z" />
<glyph unicode="&#xa8;" horiz-adv-x="1024" d="M238 1321l16 76l117 10l47 -10l10 -90l-18 -82l-117 -11l-45 11zM586 1321l16 76l117 10l47 -10l10 -90l-18 -82l-117 -11l-45 11z" />
<glyph unicode="&#xa9;" horiz-adv-x="1720" d="M102 729q0 162 54.5 288t154 217t238.5 148.5t309 81.5q152 -2 290 -53t242.5 -148.5t166 -237.5t61.5 -320q0 -162 -54.5 -288t-153.5 -217t-238.5 -148.5t-309.5 -82.5q-152 2 -290 53.5t-242.5 148.5t-166 237.5t-61.5 320.5zM217 729q0 -186 63.5 -322.5t160 -225.5 t208 -132t209.5 -43q127 0 244 47t206 137.5t142 219.5t53 295q0 186 -63.5 322t-159.5 225t-207.5 132t-210.5 43q-127 0 -243.5 -47t-205.5 -137t-142.5 -219t-53.5 -295zM430 698q0 203 127 314.5t348 132.5q98 0 167 -17.5t128 -48.5v-209h-16l-97 183q-33 33 -73.5 52 t-104.5 19q-59 0 -110 -24.5t-90 -75.5t-60.5 -127t-21.5 -176q0 -84 17.5 -159t53 -130t90 -88t130.5 -33q53 0 97 20.5t72 49.5l97 194h16v-213q-39 -14 -73.5 -26t-71.5 -21.5t-77 -15.5t-89 -10q-92 0 -175 25.5t-146.5 77.5t-100.5 128t-37 178z" />
<glyph unicode="&#xaa;" horiz-adv-x="886" d="M82 836q0 41 17.5 86t72.5 86l363 114v115q0 37 -3.5 67.5t-16.5 53t-43 36t-83 13.5q-25 0 -44 -3t-54 -13l-37 -191h-145v127l313 139q88 0 137 -13t84 -44q31 -31 41 -80t10 -115v-362q0 -41 8.5 -78t20.5 -74l88 13l4 -17l-244 -47l-32 146l-234 -160 q-98 0 -160.5 51t-62.5 150zM250 874q0 -66 31.5 -104.5t83.5 -38.5q35 0 68.5 16.5t55.5 32.5l46 31v297l-209 -80q-35 -29 -55.5 -64.5t-20.5 -89.5z" />
<glyph unicode="&#xab;" horiz-adv-x="847" d="M31 481l372 451h27l-268 -451l268 -450h-29zM389 481l373 451h24l-266 -451l266 -450h-26z" />
<glyph unicode="&#xac;" d="M109 676v49h1052v-358h-49v309h-1003z" />
<glyph unicode="&#xad;" horiz-adv-x="747" d="M61 537v63h625v-63h-625z" />
<glyph unicode="&#xae;" horiz-adv-x="1212" d="M92 899q0 111 37 197t104.5 148.5t161.5 102t209 56.5q104 0 197.5 -36t164 -101.5t112.5 -162.5t42 -220q0 -111 -36.5 -197t-104.5 -148.5t-162 -102.5t-209 -56q-104 0 -197.5 36t-164 102.5t-112.5 162.5t-42 219zM178 899q0 -129 42 -222t106.5 -153.5t138 -89 t139.5 -28.5q86 0 164 31.5t137.5 92t94 149.5t34.5 204q0 129 -42 222t-106.5 153.5t-139 89t-138.5 28.5q-86 0 -163.5 -31.5t-137 -92t-94.5 -149.5t-35 -204zM350 618v11l60 6v520l-60 4v12h291q70 0 125 -31.5t55 -103.5t-65.5 -108.5t-169.5 -44.5l131 -27l137 -221 l39 -6v-11h-160l-153 263h-56v-246l58 -6v-11h-232zM524 895h39q66 0 98.5 36t32.5 99q0 59 -30.5 94t-77.5 35l-62 -4v-260z" />
<glyph unicode="&#xaf;" horiz-adv-x="1024" d="M221 1276v72h584v-72h-584z" />
<glyph unicode="&#xb0;" horiz-adv-x="882" d="M123 1225q0 66 21.5 115t62.5 85.5t100.5 65.5t134.5 51q66 0 123.5 -25.5t100.5 -68.5t68.5 -100.5t25.5 -122.5q0 -129 -75 -205t-243 -113q-66 0 -124 25.5t-101 68.5t-68.5 100.5t-25.5 123.5zM197 1225q0 -49 19.5 -94.5t53 -79t78.5 -53t94 -19.5q55 0 100.5 19.5 t77 53t49 79t17.5 94.5t-19.5 94t-53 78t-77.5 52t-94 19q-55 0 -100 -19t-78 -52t-50 -78t-17 -94z" />
<glyph unicode="&#xb1;" d="M98 0v49h1076v-49h-1076zM98 778v47h504v512h49v-512h504v-47h-504v-495h-49v495h-504z" />
<glyph unicode="&#xb2;" horiz-adv-x="704" d="M20 834l144 143q147 141 211.5 246.5t64.5 201.5q0 74 -35.5 117t-87.5 43q-45 0 -84 -14l-47 -185h-139v134l301 106q72 0 122 -16.5t83 -43t47 -61.5t14 -71q0 -115 -86 -209.5t-254 -206.5l-127 -78h496v-16l-43 -105h-567z" />
<glyph unicode="&#xb3;" horiz-adv-x="643" d="M41 1413v117l309 96q55 0 93 -12t60.5 -31.5t33 -44.5t10.5 -47q0 -25 -10.5 -50.5t-37 -49t-71.5 -46t-115 -40.5q129 -4 193.5 -59.5t64.5 -119.5q0 -74 -54 -123t-163 -98l-211 -90h-98v119h299q33 31 50.5 61.5t17.5 75.5q0 63 -57.5 110.5t-168.5 45.5l-4 16l72 41 q43 20 69.5 41t40 42.5t18.5 44t5 48.5q0 55 -30.5 88t-75.5 33q-16 0 -35 -5t-29 -9l-47 -154h-129z" />
<glyph unicode="&#xb4;" horiz-adv-x="1024" d="M309 1122l119 359h188l-282 -359h-25z" />
<glyph unicode="&#xb5;" d="M178 -471v1425h201v-694q0 -92 31.5 -129t87.5 -37q47 0 82.5 16.5t87.5 47.5l92 53v743h194v-921l136 -13v-20h-240l-62 115l-26 73l-350 -219q-59 0 -102.5 14.5t-67.5 36.5q-10 10 -19.5 22.5t-15.5 29.5v-133l178 -410h-207z" />
<glyph unicode="&#xb6;" horiz-adv-x="983" d="M61 1102q0 55 26 103t70 89t101 75t121 65h522v-21l-102 -12v-1727h-47v1731h-301v-1731h-48v1141q-66 0 -128 18.5t-109 55.5t-76 90t-29 123z" />
<glyph unicode="&#xb7;" horiz-adv-x="448" d="M113 836l14 92l143 10l56 -10l10 -107l-17 -96l-143 -10l-53 10z" />
<glyph unicode="&#xb8;" horiz-adv-x="1024" d="M336 -498l53 80h162q29 23 44 57.5t15 71.5q0 61 -40 87t-91 30l113 176l20 -2l-63 -102q74 -6 123 -47t47 -107q0 -39 -17.5 -68.5t-44 -51t-58.5 -37t-62 -27.5l-148 -60h-53z" />
<glyph unicode="&#xb9;" horiz-adv-x="534" d="M41 1507l303 111h16v-774l164 -8v-17h-473v17l160 8v702l-164 -53z" />
<glyph unicode="&#xba;" horiz-adv-x="899" d="M72 1038q0 96 28.5 168t82 123t126 84t162.5 53q78 0 143.5 -28.5t112.5 -80.5t73.5 -124t26.5 -158q0 -96 -28.5 -166.5t-81.5 -122t-127 -85.5t-164 -54q-78 0 -142.5 29t-111.5 81t-73.5 123.5t-26.5 157.5zM240 1087q0 -90 16 -163.5t47 -127t73 -83t93 -29.5 q92 0 141 92t49 250q0 193 -66.5 297t-164.5 104q-92 0 -140 -90t-48 -250z" />
<glyph unicode="&#xbb;" horiz-adv-x="847" d="M61 31l269 450l-269 451h27l373 -451l-371 -450h-29zM420 31l266 450l-266 451h24l373 -451l-371 -450h-26z" />
<glyph unicode="&#xbc;" horiz-adv-x="1611" d="M61 1333l304 111h16v-774l164 -8v-17h-473v17l159 8v702l-163 -53zM348 -102l793 1556h55l-788 -1556h-60zM891 268l369 520h192v-14l-537 -504h322v176l149 80v-256h164v-18h-164v-252h-149v252h-334z" />
<glyph unicode="&#xbd;" horiz-adv-x="1648" d="M61 1333l304 111h16v-774l164 -8v-17h-473v17l159 8v702l-163 -53zM348 -102l793 1556h55l-788 -1556h-60zM965 14l143 144q147 141 211.5 246.5t64.5 201.5q0 76 -35.5 118t-86.5 42q-45 0 -84 -14l-48 -185h-139v133l303 107q70 0 120 -16.5t83 -43t47.5 -61.5 t14.5 -72q0 -115 -86.5 -209t-253.5 -206l-127 -78h495v-17l-43 -104h-565z" />
<glyph unicode="&#xbe;" horiz-adv-x="1632" d="M61 1239v117l310 96q55 0 93 -12.5t60.5 -31.5t32.5 -44t10 -47q0 -25 -10 -50.5t-36.5 -49t-72 -46t-114.5 -41.5q129 -4 193.5 -59t64.5 -119q0 -74 -54.5 -124t-162.5 -97l-211 -90h-98v119h299q33 31 50 61.5t17 75.5q0 63 -57.5 110.5t-167.5 45.5l-4 16l71 41 q43 20 70 40.5t40 42t18.5 44.5t5.5 49q0 55 -31 88t-76 33q-16 0 -34.5 -5t-28.5 -9l-50 -154h-127zM369 -102l792 1556h58l-789 -1556h-61zM911 268l371 520h191v-14l-535 -504h322v176l149 80v-256h162v-18h-162v-252h-149v252h-336z" />
<glyph unicode="&#xbf;" horiz-adv-x="794" d="M41 -182q0 129 70.5 214t205.5 150l111 58l14 278h56l22 -248l-80 -59q-53 -43 -91 -85t-62.5 -89t-36.5 -103.5t-12 -128.5q0 -55 12 -103t40.5 -87t75 -62.5t111.5 -29.5l101 262h94v-254l-205 -29q-115 2 -194.5 32t-132 75t-76 99.5t-23.5 109.5zM367 870l18 88 l129 11l47 -11l10 -104l-16 -82l-131 -10l-49 10z" />
<glyph unicode="&#xc0;" horiz-adv-x="1427" d="M10 0v20l148 13l481 1353l154 74l481 -1427l143 -13v-20h-557v18l172 15l-160 485h-507l-170 -485l174 -15v-18h-359zM377 549h485l-233 719zM449 1847h198l94 -274h-24z" />
<glyph unicode="&#xc1;" horiz-adv-x="1427" d="M10 0v20l148 13l481 1353l154 74l481 -1427l143 -13v-20h-557v18l172 15l-160 485h-507l-170 -485l174 -15v-18h-359zM377 549h485l-233 719zM707 1573l94 274h198l-268 -274h-24z" />
<glyph unicode="&#xc2;" horiz-adv-x="1427" d="M10 0v20l148 13l481 1353l154 74l481 -1427l143 -13v-20h-557v18l172 15l-160 485h-507l-170 -485l174 -15v-18h-359zM377 549h485l-233 719zM432 1573l262 287h47l263 -287h-27l-256 170h-8l-254 -170h-27z" />
<glyph unicode="&#xc3;" horiz-adv-x="1427" d="M10 0v20l148 13l481 1353l154 74l481 -1427l143 -13v-20h-557v18l172 15l-160 485h-507l-170 -485l174 -15v-18h-359zM377 549h485l-233 719zM408 1569l57 221l113 39l417 -164l66 170h18l-57 -225l-113 -37l-417 166l-66 -170h-18z" />
<glyph unicode="&#xc4;" horiz-adv-x="1427" d="M10 0v20l148 13l481 1353l154 74l481 -1427l143 -13v-20h-557v18l172 15l-160 485h-507l-170 -485l174 -15v-18h-359zM377 549h485l-233 719zM397 1718l17 76l116 10l48 -10l10 -90l-19 -80l-116 -10l-47 10zM846 1718l16 76l117 10l47 -10l10 -90l-18 -80l-117 -10 l-47 10z" />
<glyph unicode="&#xc5;" horiz-adv-x="1427" d="M10 0v20l148 13l481 1353l154 74l481 -1427l143 -13v-20h-557v18l172 15l-160 485h-507l-170 -485l174 -15v-18h-359zM377 549h485l-233 719zM494 1696q0 49 17 80.5t47 54t69 38t80 32.5q41 0 79.5 -10.5t68.5 -34t48.5 -61.5t18.5 -93q0 -49 -17.5 -81t-46.5 -54.5 t-67.5 -38t-81.5 -29.5q-41 0 -79 11.5t-69 35t-49 60t-18 90.5zM555 1700q0 -72 42 -115t110 -43t111.5 43t43.5 115t-44 115t-111 43q-68 0 -110 -43t-42 -115z" />
<glyph unicode="&#xc6;" horiz-adv-x="1964" d="M10 0v20l148 13l860 1401h883v-373h-21l-139 344h-506v-700h268l90 243h21v-512h-21l-90 240h-268v-647h520l135 354h21v-383h-1057v20l162 13v643h-424l-393 -643l174 -15v-18h-363zM610 705h406v673z" />
<glyph unicode="&#xc7;" horiz-adv-x="1386" d="M78 690q0 172 53 309.5t149.5 235.5t233.5 156.5t303 74.5q150 0 263.5 -29.5t207.5 -76.5v-340h-20l-129 287q-53 55 -127 93t-193 38q-100 0 -189 -45t-156.5 -134.5t-106.5 -223.5t-39 -312q0 -143 29.5 -274.5t92 -230.5t160 -157.5t232.5 -58.5q92 0 170 37t129 90 l129 309h20v-342q-59 -25 -114.5 -45t-113.5 -36.5t-124 -28t-141 -19.5l-43 -67q74 -6 123 -47t49 -107q0 -39 -18.5 -68.5t-45 -51t-58.5 -37t-63 -27.5l-147 -60h-51l53 80h160q29 23 44 57.5t15 71.5q0 61 -39 87t-92 30l90 139q-139 2 -265 51.5t-221 140.5t-152.5 224 t-57.5 307z" />
<glyph unicode="&#xc8;" horiz-adv-x="1230" d="M57 0v20l162 13v1368l-162 12v21h1100v-373h-20l-138 344h-561v-641h324l90 244h20v-512h-20l-90 241h-324v-708h576l133 354h20v-383h-1110zM428 1847h199l94 -274h-25z" />
<glyph unicode="&#xc9;" horiz-adv-x="1230" d="M57 0v20l162 13v1368l-162 12v21h1100v-373h-20l-138 344h-561v-641h324l90 244h20v-512h-20l-90 241h-324v-708h576l133 354h20v-383h-1110zM633 1573l94 274h199l-269 -274h-24z" />
<glyph unicode="&#xca;" horiz-adv-x="1230" d="M57 0v20l162 13v1368l-162 12v21h1100v-373h-20l-138 344h-561v-641h324l90 244h20v-512h-20l-90 241h-324v-708h576l133 354h20v-383h-1110zM408 1573l262 287h47l262 -287h-25l-258 170h-8l-254 -170h-26z" />
<glyph unicode="&#xcb;" horiz-adv-x="1230" d="M57 0v20l162 13v1368l-162 12v21h1100v-373h-20l-138 344h-561v-641h324l90 244h20v-512h-20l-90 241h-324v-708h576l133 354h20v-383h-1110zM377 1718l18 76l117 10l47 -10l10 -90l-18 -80l-117 -10l-47 10zM825 1718l19 76l117 10l47 -10l10 -90l-19 -80l-116 -10 l-47 10z" />
<glyph unicode="&#xcc;" horiz-adv-x="657" d="M57 0v20l162 13v1368l-162 12v21h543v-21l-162 -12v-1368l162 -13v-20h-543zM111 1847h196l96 -274h-26z" />
<glyph unicode="&#xcd;" horiz-adv-x="657" d="M57 0v20l162 13v1368l-162 12v21h543v-21l-162 -12v-1368l162 -13v-20h-543zM315 1573l97 274h196l-266 -274h-27z" />
<glyph unicode="&#xce;" horiz-adv-x="657" d="M43 1573l262 287h47l262 -287h-24l-258 170h-8l-254 -170h-27zM57 0v20l162 13v1368l-162 12v21h543v-21l-162 -12v-1368l162 -13v-20h-543z" />
<glyph unicode="&#xcf;" horiz-adv-x="657" d="M29 1718l16 76l117 10l47 -10l10 -90l-18 -80l-117 -10l-45 10zM57 0v20l162 13v1368l-162 12v21h543v-21l-162 -12v-1368l162 -13v-20h-543zM453 1718l18 76l117 10l47 -10l10 -90l-18 -80l-117 -10l-47 10z" />
<glyph unicode="&#xd0;" horiz-adv-x="1478" d="M57 0v20l176 13v706h-155v19h155v643l-176 12v21h652q160 0 288.5 -46.5t219 -134.5t138.5 -217t48 -293q0 -158 -43 -292t-130 -232t-217 -155.5t-304 -63.5h-652zM455 33l237 -13q104 0 191.5 51.5t149 144.5t95 225t33.5 294q0 150 -27.5 274t-87 214t-152.5 140 t-224 50l-215 -12v-643h278v-19h-278v-706z" />
<glyph unicode="&#xd1;" horiz-adv-x="1409" d="M57 0v20l162 13v1368l-162 12v21h416l723 -1129v1096l-168 12v21h361v-21l-162 -12v-1411h-103l-874 1378v-1335l168 -13v-20h-361zM461 1569l57 221l115 39l416 -164l67 170h19l-58 -225l-114 -37l-418 166l-66 -170h-18z" />
<glyph unicode="&#xd2;" horiz-adv-x="1556" d="M78 688q0 328 177 524.5t544 253.5q152 0 276.5 -55t214.5 -151.5t140.5 -228.5t50.5 -286q0 -328 -177 -524.5t-546 -253.5q-152 0 -277 55.5t-215 151.5t-139 228.5t-49 285.5zM328 754q0 -160 36.5 -296t103.5 -235.5t157 -155t196 -55.5q98 0 174 51.5t128.5 142.5 t79 213t26.5 263q0 160 -37 295t-102.5 234.5t-155.5 154.5t-197 55q-98 0 -174 -51t-128 -141t-79.5 -212t-27.5 -263zM543 1847h198l95 -274h-25z" />
<glyph unicode="&#xd3;" horiz-adv-x="1556" d="M78 688q0 328 177 524.5t544 253.5q152 0 276.5 -55t214.5 -151.5t140.5 -228.5t50.5 -286q0 -328 -177 -524.5t-546 -253.5q-152 0 -277 55.5t-215 151.5t-139 228.5t-49 285.5zM328 754q0 -160 36.5 -296t103.5 -235.5t157 -155t196 -55.5q98 0 174 51.5t128.5 142.5 t79 213t26.5 263q0 160 -37 295t-102.5 234.5t-155.5 154.5t-197 55q-98 0 -174 -51t-128 -141t-79.5 -212t-27.5 -263zM741 1573l95 274h198l-268 -274h-25z" />
<glyph unicode="&#xd4;" horiz-adv-x="1556" d="M78 688q0 328 177 524.5t544 253.5q152 0 276.5 -55t214.5 -151.5t140.5 -228.5t50.5 -286q0 -328 -177 -524.5t-546 -253.5q-152 0 -277 55.5t-215 151.5t-139 228.5t-49 285.5zM328 754q0 -160 36.5 -296t103.5 -235.5t157 -155t196 -55.5q98 0 174 51.5t128.5 142.5 t79 213t26.5 263q0 160 -37 295t-102.5 234.5t-155.5 154.5t-197 55q-98 0 -174 -51t-128 -141t-79.5 -212t-27.5 -263zM487 1573l263 287h47l262 -287h-25l-258 170h-8l-254 -170h-27z" />
<glyph unicode="&#xd5;" horiz-adv-x="1556" d="M78 688q0 328 177 524.5t544 253.5q152 0 276.5 -55t214.5 -151.5t140.5 -228.5t50.5 -286q0 -328 -177 -524.5t-546 -253.5q-152 0 -277 55.5t-215 151.5t-139 228.5t-49 285.5zM328 754q0 -160 36.5 -296t103.5 -235.5t157 -155t196 -55.5q98 0 174 51.5t128.5 142.5 t79 213t26.5 263q0 160 -37 295t-102.5 234.5t-155.5 154.5t-197 55q-98 0 -174 -51t-128 -141t-79.5 -212t-27.5 -263zM465 1569l57 221l113 39l418 -164l65 170h19l-58 -225l-114 -37l-418 166l-66 -170h-16z" />
<glyph unicode="&#xd6;" horiz-adv-x="1556" d="M78 688q0 328 177 524.5t544 253.5q152 0 276.5 -55t214.5 -151.5t140.5 -228.5t50.5 -286q0 -328 -177 -524.5t-546 -253.5q-152 0 -277 55.5t-215 151.5t-139 228.5t-49 285.5zM328 754q0 -160 36.5 -296t103.5 -235.5t157 -155t196 -55.5q98 0 174 51.5t128.5 142.5 t79 213t26.5 263q0 160 -37 295t-102.5 234.5t-155.5 154.5t-197 55q-98 0 -174 -51t-128 -141t-79.5 -212t-27.5 -263zM471 1718l16 76l117 10l47 -10l11 -90l-19 -80l-117 -10l-45 10zM920 1718l16 76l117 10l47 -10l10 -90l-18 -80l-117 -10l-45 10z" />
<glyph unicode="&#xd7;" d="M231 829l35 35l369 -370l364 366l35 -33l-364 -366l366 -367l-35 -33l-366 365l-367 -369l-35 35l367 369z" />
<glyph unicode="&#xd8;" horiz-adv-x="1556" d="M78 688q0 328 177 524.5t544 253.5q133 0 244.5 -42t199.5 -119l127 159h39l-143 -180q102 -98 158.5 -236.5t56.5 -302.5q0 -328 -177 -524.5t-546 -253.5q-127 0 -232.5 38t-191.5 106l-113 -142h-43l131 164q-111 98 -171 239.5t-60 315.5zM328 754q0 -137 26.5 -256 t75.5 -213l692 870q-66 123 -164 194.5t-221 71.5q-98 0 -174 -51t-128 -141t-79.5 -212t-27.5 -263zM446 254q66 -115 162 -178.5t213 -63.5q98 0 174 51.5t128.5 142.5t79 213t26.5 263q0 127 -23.5 238.5t-66.5 203.5z" />
<glyph unicode="&#xd9;" horiz-adv-x="1357" d="M20 1413v21h543v-21l-162 -12v-918q0 -92 25 -171t73 -138t118.5 -93t164.5 -34q80 0 143.5 34t109.5 93t70.5 138t24.5 171v918l-163 12v21h370v-21l-161 -12v-914q0 -94 -20.5 -178t-73 -152.5t-142.5 -116.5t-231 -73q-141 0 -241.5 39t-164 109.5t-93.5 169 t-30 217.5v899zM526 1847h197l96 -274h-26z" />
<glyph unicode="&#xda;" horiz-adv-x="1357" d="M20 1413v21h543v-21l-162 -12v-918q0 -92 25 -171t73 -138t118.5 -93t164.5 -34q80 0 143.5 34t109.5 93t70.5 138t24.5 171v918l-163 12v21h370v-21l-161 -12v-914q0 -94 -20.5 -178t-73 -152.5t-142.5 -116.5t-231 -73q-141 0 -241.5 39t-164 109.5t-93.5 169 t-30 217.5v899zM725 1573l96 274h197l-266 -274h-27z" />
<glyph unicode="&#xdb;" horiz-adv-x="1357" d="M20 1413v21h543v-21l-162 -12v-918q0 -92 25 -171t73 -138t118.5 -93t164.5 -34q80 0 143.5 34t109.5 93t70.5 138t24.5 171v918l-163 12v21h370v-21l-161 -12v-914q0 -94 -20.5 -178t-73 -152.5t-142.5 -116.5t-231 -73q-141 0 -241.5 39t-164 109.5t-93.5 169 t-30 217.5v899zM475 1573l262 287h47l263 -287h-25l-258 170h-8l-254 -170h-27z" />
<glyph unicode="&#xdc;" horiz-adv-x="1357" d="M20 1413v21h543v-21l-162 -12v-918q0 -92 25 -171t73 -138t118.5 -93t164.5 -34q80 0 143.5 34t109.5 93t70.5 138t24.5 171v918l-163 12v21h370v-21l-161 -12v-914q0 -94 -20.5 -178t-73 -152.5t-142.5 -116.5t-231 -73q-141 0 -241.5 39t-164 109.5t-93.5 169 t-30 217.5v899zM442 1718l17 76l116 10l48 -10l10 -90l-19 -80l-116 -10l-45 10zM891 1718l16 76l117 10l47 -10l10 -90l-18 -80l-117 -10l-45 10z" />
<glyph unicode="&#xdd;" horiz-adv-x="1409" d="M10 1413v21h578v-21l-178 -12l405 -770l406 770l-197 12v21h375v-21l-146 -12l-422 -811v-557l218 -13v-20h-658v20l219 13v526l-454 842zM788 1573l97 274h196l-266 -274h-27z" />
<glyph unicode="&#xde;" horiz-adv-x="1185" d="M57 0v20l162 13v1368l-162 12v21h559v-21l-178 -12v-271h281q90 0 170 -23.5t140.5 -69.5t95 -114.5t34.5 -160.5q0 -102 -42 -173t-112.5 -120t-161.5 -80t-190 -53h-215v-303l178 -13v-20h-559zM438 365h160q70 0 129 28.5t101 78.5t66 120t24 151q0 74 -16.5 139.5 t-51.5 115t-89 78t-132 28.5h-191v-739z" />
<glyph unicode="&#xdf;" horiz-adv-x="1169" d="M51 0v20l133 13v882h-133v21l133 8v49q0 49 12.5 105.5t40 111t73.5 99.5t114 73l197 88q88 0 161.5 -17t126 -51t81 -84t28.5 -118q0 -119 -94.5 -212t-251.5 -134q10 -55 50 -97t118 -102l141 -112q72 -57 109.5 -113.5t37.5 -134.5q0 -55 -25.5 -108.5t-71.5 -96.5 t-108.5 -76t-136.5 -47q-86 0 -165.5 23.5t-139.5 52.5v279h21l102 -218q41 -35 91 -63.5t116 -28.5q84 0 123 53.5t39 124.5q0 61 -35 111.5t-107 110.5l-133 112q-76 59 -121 115.5t-53 153.5l117 65q78 47 124 126t46 190q0 45 -11.5 90t-36 80.5t-62 58t-93.5 22.5 q-111 0 -170 -81.5t-59 -235.5v-1108h-328z" />
<glyph unicode="&#xe0;" horiz-adv-x="966" d="M59 213q0 51 21.5 105.5t89.5 105.5l442 143v140q0 43 -4 81.5t-20.5 66.5t-51 44t-98.5 16q-31 0 -54.5 -5t-66.5 -17l-47 -234h-178v158l383 168q111 0 172.5 -15.5t102.5 -54.5q37 -37 49 -96t12 -141v-442q0 -49 9 -94.5t26 -92.5l108 14l2 -18l-297 -59l-43 176 l-284 -193q-121 0 -197 62.5t-76 181.5zM268 262q0 -78 39 -126t101 -48q43 0 83.5 19.5t67.5 39.5l53 37v363l-252 -96q-41 -35 -66.5 -80t-25.5 -109zM281 1481h188l117 -359h-25z" />
<glyph unicode="&#xe1;" horiz-adv-x="966" d="M59 213q0 51 21.5 105.5t89.5 105.5l442 143v140q0 43 -4 81.5t-20.5 66.5t-51 44t-98.5 16q-31 0 -54.5 -5t-66.5 -17l-47 -234h-178v158l383 168q111 0 172.5 -15.5t102.5 -54.5q37 -37 49 -96t12 -141v-442q0 -49 9 -94.5t26 -92.5l108 14l2 -18l-297 -59l-43 176 l-284 -193q-121 0 -197 62.5t-76 181.5zM268 262q0 -78 39 -126t101 -48q43 0 83.5 19.5t67.5 39.5l53 37v363l-252 -96q-41 -35 -66.5 -80t-25.5 -109zM412 1122l116 359h189l-281 -359h-24z" />
<glyph unicode="&#xe2;" horiz-adv-x="966" d="M59 213q0 51 21.5 105.5t89.5 105.5l442 143v140q0 43 -4 81.5t-20.5 66.5t-51 44t-98.5 16q-31 0 -54.5 -5t-66.5 -17l-47 -234h-178v158l383 168q111 0 172.5 -15.5t102.5 -54.5q37 -37 49 -96t12 -141v-442q0 -49 9 -94.5t26 -92.5l108 14l2 -18l-297 -59l-43 176 l-284 -193q-121 0 -197 62.5t-76 181.5zM182 1122l252 377h43l254 -377h-22l-250 221h-6l-248 -221h-23zM268 262q0 -78 39 -126t101 -48q43 0 83.5 19.5t67.5 39.5l53 37v363l-252 -96q-41 -35 -66.5 -80t-25.5 -109z" />
<glyph unicode="&#xe3;" horiz-adv-x="966" d="M59 213q0 51 21.5 105.5t89.5 105.5l442 143v140q0 43 -4 81.5t-20.5 66.5t-51 44t-98.5 16q-31 0 -54.5 -5t-66.5 -17l-47 -234h-178v158l383 168q111 0 172.5 -15.5t102.5 -54.5q37 -37 49 -96t12 -141v-442q0 -49 9 -94.5t26 -92.5l108 14l2 -18l-297 -59l-43 176 l-284 -193q-121 0 -197 62.5t-76 181.5zM127 1182l57 223l113 39l418 -164l65 168h19l-58 -223l-114 -39l-418 168l-66 -172h-16zM268 262q0 -78 39 -126t101 -48q43 0 83.5 19.5t67.5 39.5l53 37v363l-252 -96q-41 -35 -66.5 -80t-25.5 -109z" />
<glyph unicode="&#xe4;" horiz-adv-x="966" d="M59 213q0 51 21.5 105.5t89.5 105.5l442 143v140q0 43 -4 81.5t-20.5 66.5t-51 44t-98.5 16q-31 0 -54.5 -5t-66.5 -17l-47 -234h-178v158l383 168q111 0 172.5 -15.5t102.5 -54.5q37 -37 49 -96t12 -141v-442q0 -49 9 -94.5t26 -92.5l108 14l2 -18l-297 -59l-43 176 l-284 -193q-121 0 -197 62.5t-76 181.5zM193 1321l16 76l117 10l47 -10l10 -90l-18 -82l-117 -11l-45 11zM268 262q0 -78 39 -126t101 -48q43 0 83.5 19.5t67.5 39.5l53 37v363l-252 -96q-41 -35 -66.5 -80t-25.5 -109zM541 1321l16 76l117 10l47 -10l10 -90l-18 -82 l-117 -11l-45 11z" />
<glyph unicode="&#xe5;" horiz-adv-x="966" d="M59 213q0 51 21.5 105.5t89.5 105.5l442 143v140q0 43 -4 81.5t-20.5 66.5t-51 44t-98.5 16q-31 0 -54.5 -5t-66.5 -17l-47 -234h-178v158l383 168q111 0 172.5 -15.5t102.5 -54.5q37 -37 49 -96t12 -141v-442q0 -49 9 -94.5t26 -92.5l108 14l2 -18l-297 -59l-43 176 l-284 -193q-121 0 -197 62.5t-76 181.5zM244 1307q0 49 17.5 80.5t47 54t68.5 38t82 29.5q41 0 80 -10t68.5 -33.5t48 -60.5t18.5 -92q0 -49 -17.5 -81t-47 -54.5t-68.5 -38t-82 -29.5q-41 0 -79 10t-68.5 34t-49 61.5t-18.5 91.5zM268 262q0 -78 39 -126t101 -48 q43 0 83.5 19.5t67.5 39.5l53 37v363l-252 -96q-41 -35 -66.5 -80t-25.5 -109zM305 1311q0 -72 43 -115t111 -43t110.5 43t42.5 115t-43 114.5t-110 42.5q-68 0 -111 -42.5t-43 -114.5z" />
<glyph unicode="&#xe6;" horiz-adv-x="1478" d="M59 213q0 51 21.5 105.5t89.5 105.5l430 143v140q0 41 -3 78.5t-18.5 66.5t-46 46t-88.5 17q-20 0 -33.5 -1t-26.5 -4t-28.5 -7t-36.5 -10l-45 -234h-180v158l377 168q72 0 123 -6t87 -22.5t57.5 -46t33.5 -79.5q59 63 136 98.5t163 55.5q164 0 247 -99.5t83 -269.5v-65 h-598q-2 -10 -2 -20.5v-20.5q4 -98 31.5 -171t71.5 -120t103.5 -70.5t127.5 -23.5q72 0 137 25.5t125 62.5l14 -18q-47 -41 -89 -73t-84 -57.5t-87 -48t-100 -47.5q-127 0 -238 57.5t-166 178.5l-315 -236q-121 0 -197 62.5t-76 181.5zM268 264q0 -80 39.5 -128t98.5 -48 q43 0 75.5 21.5t67.5 48.5l74 57q-6 14 -10.5 37.5t-7.5 49.5t-4 51.5t-1 43.5v150l-240 -96q-41 -35 -66.5 -80t-25.5 -107zM799 590q0 -12 2 -19h387q0 80 -7 146.5t-25.5 115t-53.5 75t-90 26.5q-109 0 -158 -94.5t-55 -249.5z" />
<glyph unicode="&#xe7;" horiz-adv-x="899" d="M68 440q0 123 41 218.5t108.5 163t155.5 107.5t182 56q33 0 71 -9t74.5 -24.5t71.5 -34t59 -38.5v-187h-157l-80 238q-41 14 -76 14q-55 0 -104 -20.5t-86 -65.5t-59.5 -116.5t-22.5 -172.5q0 -96 24.5 -178t70.5 -141.5t110.5 -94t142.5 -34.5q72 0 129 22.5t117 69.5 l8 -14q-78 -76 -156 -129.5t-170 -100.5l-43 -69q74 -6 123 -47t47 -107q0 -39 -17.5 -68.5t-44 -51t-58 -37t-62.5 -27.5l-148 -60h-53l53 80h162q29 23 44.5 57.5t15.5 71.5q0 61 -40 87t-91 30l90 141q-92 4 -171 38t-137.5 94.5t-91 145.5t-32.5 193z" />
<glyph unicode="&#xe8;" horiz-adv-x="952" d="M68 438q0 119 35.5 212t98 161t145.5 111t175 63q178 0 265 -99.5t87 -269.5v-57h-628v-2q0 -104 28.5 -185t78.5 -136.5t118 -83t145 -27.5q70 0 132.5 25.5t121.5 62.5l13 -14q-47 -41 -87 -73t-81 -58.5t-85.5 -50t-97.5 -48.5q-92 0 -176 31t-148.5 90.5t-102 146.5 t-37.5 201zM246 580h416v36q0 70 -8.5 128.5t-30 100.5t-58.5 65.5t-96 23.5q-115 0 -167 -97.5t-56 -256.5zM262 1481h189l116 -359h-24z" />
<glyph unicode="&#xe9;" horiz-adv-x="952" d="M68 438q0 119 35.5 212t98 161t145.5 111t175 63q178 0 265 -99.5t87 -269.5v-57h-628v-2q0 -104 28.5 -185t78.5 -136.5t118 -83t145 -27.5q70 0 132.5 25.5t121.5 62.5l13 -14q-47 -41 -87 -73t-81 -58.5t-85.5 -50t-97.5 -48.5q-92 0 -176 31t-148.5 90.5t-102 146.5 t-37.5 201zM246 580h416v36q0 70 -8.5 128.5t-30 100.5t-58.5 65.5t-96 23.5q-115 0 -167 -97.5t-56 -256.5zM459 1122l119 359h186l-279 -359h-26z" />
<glyph unicode="&#xea;" horiz-adv-x="952" d="M68 438q0 119 35.5 212t98 161t145.5 111t175 63q178 0 265 -99.5t87 -269.5v-57h-628v-2q0 -104 28.5 -185t78.5 -136.5t118 -83t145 -27.5q70 0 132.5 25.5t121.5 62.5l13 -14q-47 -41 -87 -73t-81 -58.5t-85.5 -50t-97.5 -48.5q-92 0 -176 31t-148.5 90.5t-102 146.5 t-37.5 201zM225 1122l254 377h41l256 -377h-22l-250 221h-8l-248 -221h-23zM246 580h416v36q0 70 -8.5 128.5t-30 100.5t-58.5 65.5t-96 23.5q-115 0 -167 -97.5t-56 -256.5z" />
<glyph unicode="&#xeb;" horiz-adv-x="952" d="M68 438q0 119 35.5 212t98 161t145.5 111t175 63q178 0 265 -99.5t87 -269.5v-57h-628v-2q0 -104 28.5 -185t78.5 -136.5t118 -83t145 -27.5q70 0 132.5 25.5t121.5 62.5l13 -14q-47 -41 -87 -73t-81 -58.5t-85.5 -50t-97.5 -48.5q-92 0 -176 31t-148.5 90.5t-102 146.5 t-37.5 201zM244 1321l18 76l115 10l47 -10l12 -90l-18 -82l-117 -11l-47 11zM246 580h416v36q0 70 -8.5 128.5t-30 100.5t-58.5 65.5t-96 23.5q-115 0 -167 -97.5t-56 -256.5zM592 1321l18 76l115 10l47 -10l12 -90l-18 -82l-117 -11l-47 11z" />
<glyph unicode="&#xec;" horiz-adv-x="561" d="M37 1481h188l117 -359h-25zM61 897l310 78h20v-942l129 -13v-20h-450v20l127 13v874l-131 -30z" />
<glyph unicode="&#xed;" horiz-adv-x="561" d="M61 897l310 78h20v-942l129 -13v-20h-450v20l127 13v874l-131 -30zM266 1122l119 359h186l-278 -359h-27z" />
<glyph unicode="&#xee;" horiz-adv-x="561" d="M12 1122l252 377h43l254 -377h-22l-250 221h-6l-248 -221h-23zM61 897l310 78h20v-942l129 -13v-20h-450v20l127 13v874l-131 -30z" />
<glyph unicode="&#xef;" horiz-adv-x="561" d="M12 1321l19 76l116 10l48 -10l10 -90l-19 -82l-116 -11l-47 11zM61 897l310 78h20v-942l129 -13v-20h-450v20l127 13v874l-131 -30zM360 1321l19 76l117 10l47 -10l10 -90l-18 -82l-117 -11l-47 11z" />
<glyph unicode="&#xf0;" horiz-adv-x="1069" d="M51 526q0 80 20.5 158t64.5 139.5t110.5 99.5t159.5 38l356 -209q-16 147 -67.5 277t-155.5 235l-254 -123v20l239 117q-59 53 -133 99t-172 81l8 17q106 -31 195.5 -73t163.5 -95l215 104v-18l-199 -97q100 -74 173 -163t120 -187t69.5 -201.5t22.5 -205.5 q0 -111 -29.5 -214.5t-87 -182.5t-141.5 -126t-192 -47q-129 33 -220.5 87.5t-151 126t-87 158.5t-27.5 185zM266 442q0 -221 54.5 -320t171.5 -99q66 0 116.5 46t85.5 124.5t53.5 184t18.5 224.5q0 29 -1 61.5t-3 65.5l-74 39q-66 37 -111 52.5t-98 15.5 q-104 0 -158.5 -100.5t-54.5 -293.5z" />
<glyph unicode="&#xf1;" horiz-adv-x="1173" d="M61 897l310 78h20v-219l371 229q70 0 107.5 -15.5t60.5 -37.5q18 -18 30.5 -36.5t19.5 -46.5t10 -67t3 -96v-653l148 -13v-20h-443v20l97 13v663q0 94 -32 129t-91 35q-57 0 -100.5 -22.5t-104.5 -59.5l-76 -45v-700l98 -13v-20h-419v20l127 13v874l-131 -30zM287 1180 l57 223l115 39l415 -164l68 168h19l-58 -223l-115 -39l-417 168l-66 -172h-18z" />
<glyph unicode="&#xf2;" horiz-adv-x="1071" d="M68 455q0 119 35.5 208t101 152.5t158 104.5t202.5 65q96 0 177 -36t139.5 -100.5t91.5 -153.5t33 -193q0 -119 -36 -208t-102.5 -153.5t-158.5 -105.5t-203 -66q-96 0 -176 36t-138.5 100.5t-91 153.5t-32.5 196zM276 516q0 -111 21.5 -204t58.5 -158.5t89.5 -102.5 t113.5 -37q117 0 176.5 114t59.5 308q0 121 -21.5 214t-60.5 157.5t-90.5 97.5t-112.5 33q-117 0 -175.5 -111.5t-58.5 -310.5zM307 1481h189l116 -359h-24z" />
<glyph unicode="&#xf3;" horiz-adv-x="1071" d="M68 455q0 119 35.5 208t101 152.5t158 104.5t202.5 65q96 0 177 -36t139.5 -100.5t91.5 -153.5t33 -193q0 -119 -36 -208t-102.5 -153.5t-158.5 -105.5t-203 -66q-96 0 -176 36t-138.5 100.5t-91 153.5t-32.5 196zM276 516q0 -111 21.5 -204t58.5 -158.5t89.5 -102.5 t113.5 -37q117 0 176.5 114t59.5 308q0 121 -21.5 214t-60.5 157.5t-90.5 97.5t-112.5 33q-117 0 -175.5 -111.5t-58.5 -310.5zM532 1122l119 359h187l-279 -359h-27z" />
<glyph unicode="&#xf4;" horiz-adv-x="1071" d="M68 455q0 119 35.5 208t101 152.5t158 104.5t202.5 65q96 0 177 -36t139.5 -100.5t91.5 -153.5t33 -193q0 -119 -36 -208t-102.5 -153.5t-158.5 -105.5t-203 -66q-96 0 -176 36t-138.5 100.5t-91 153.5t-32.5 196zM268 1122l252 377h43l254 -377h-22l-250 221h-6 l-248 -221h-23zM276 516q0 -111 21.5 -204t58.5 -158.5t89.5 -102.5t113.5 -37q117 0 176.5 114t59.5 308q0 121 -21.5 214t-60.5 157.5t-90.5 97.5t-112.5 33q-117 0 -175.5 -111.5t-58.5 -310.5z" />
<glyph unicode="&#xf5;" horiz-adv-x="1071" d="M68 455q0 119 35.5 208t101 152.5t158 104.5t202.5 65q96 0 177 -36t139.5 -100.5t91.5 -153.5t33 -193q0 -119 -36 -208t-102.5 -153.5t-158.5 -105.5t-203 -66q-96 0 -176 36t-138.5 100.5t-91 153.5t-32.5 196zM209 1180l57 223l115 39l416 -164l67 168h17l-56 -223 l-114 -39l-418 168l-66 -172h-18zM276 516q0 -111 21.5 -204t58.5 -158.5t89.5 -102.5t113.5 -37q117 0 176.5 114t59.5 308q0 121 -21.5 214t-60.5 157.5t-90.5 97.5t-112.5 33q-117 0 -175.5 -111.5t-58.5 -310.5z" />
<glyph unicode="&#xf6;" horiz-adv-x="1071" d="M68 455q0 119 35.5 208t101 152.5t158 104.5t202.5 65q96 0 177 -36t139.5 -100.5t91.5 -153.5t33 -193q0 -119 -36 -208t-102.5 -153.5t-158.5 -105.5t-203 -66q-96 0 -176 36t-138.5 100.5t-91 153.5t-32.5 196zM266 1321l19 76l114 10l47 -10l13 -90l-19 -82l-116 -11 l-48 11zM276 516q0 -111 21.5 -204t58.5 -158.5t89.5 -102.5t113.5 -37q117 0 176.5 114t59.5 308q0 121 -21.5 214t-60.5 157.5t-90.5 97.5t-112.5 33q-117 0 -175.5 -111.5t-58.5 -310.5zM614 1321l19 76l115 10l47 -10l12 -90l-19 -82l-116 -11l-47 11z" />
<glyph unicode="&#xf7;" d="M96 487v48h1078v-48h-1078zM539 145l12 80l127 11l49 -11l10 -94l-14 -84l-127 -10l-47 10zM539 887l12 80l127 10l49 -10l10 -95l-14 -84l-127 -10l-47 10z" />
<glyph unicode="&#xf8;" horiz-adv-x="1071" d="M68 455q0 119 35.5 208t101 152.5t158 104.5t202.5 65q86 0 160 -28.5t131 -82.5l100 115h31l-113 -133q61 -66 96.5 -155t35.5 -199q0 -119 -36 -208t-102.5 -153.5t-158.5 -105.5t-203 -66q-88 0 -162 30t-131 83l-88 -102h-35l105 120q-59 66 -93 156t-34 199z M276 516q0 -78 10.5 -146.5t28.5 -125.5l428 497q-37 96 -98 146.5t-135 50.5q-117 0 -175.5 -111.5t-58.5 -310.5zM326 215q39 -94 98 -147.5t135 -53.5q117 0 176.5 113.5t59.5 308.5q0 164 -41 281z" />
<glyph unicode="&#xf9;" horiz-adv-x="1120" d="M23 913l313 56h20v-709q0 -92 32 -131t89 -39q47 0 84 17.5t90 50.5l90 53v698l-133 -16v20l307 56h21v-705q0 -63 7 -110.5t20 -98.5l106 11l4 -21l-295 -57l-35 198l-350 -217q-66 0 -107.5 15.5t-64.5 35.5q-18 18 -30.5 38t-20.5 47.5t-11 67.5t-3 97v639l-131 -16z M319 1481h187l119 -359h-27z" />
<glyph unicode="&#xfa;" horiz-adv-x="1120" d="M23 913l313 56h20v-709q0 -92 32 -131t89 -39q47 0 84 17.5t90 50.5l90 53v698l-133 -16v20l307 56h21v-705q0 -63 7 -110.5t20 -98.5l106 11l4 -21l-295 -57l-35 198l-350 -217q-66 0 -107.5 15.5t-64.5 35.5q-18 18 -30.5 38t-20.5 47.5t-11 67.5t-3 97v639l-131 -16z M494 1122l116 359h189l-281 -359h-24z" />
<glyph unicode="&#xfb;" horiz-adv-x="1120" d="M23 913l313 56h20v-709q0 -92 32 -131t89 -39q47 0 84 17.5t90 50.5l90 53v698l-133 -16v20l307 56h21v-705q0 -63 7 -110.5t20 -98.5l106 11l4 -21l-295 -57l-35 198l-350 -217q-66 0 -107.5 15.5t-64.5 35.5q-18 18 -30.5 38t-20.5 47.5t-11 67.5t-3 97v639l-131 -16z M276 1122l252 377h43l254 -377h-22l-250 221h-6l-248 -221h-23z" />
<glyph unicode="&#xfc;" horiz-adv-x="1120" d="M23 913l313 56h20v-709q0 -92 32 -131t89 -39q47 0 84 17.5t90 50.5l90 53v698l-133 -16v20l307 56h21v-705q0 -63 7 -110.5t20 -98.5l106 11l4 -21l-295 -57l-35 198l-350 -217q-66 0 -107.5 15.5t-64.5 35.5q-18 18 -30.5 38t-20.5 47.5t-11 67.5t-3 97v639l-131 -16z M279 1321l16 76l117 10l47 -10l10 -90l-18 -82l-117 -11l-47 11zM627 1321l16 76l117 10l47 -10l10 -90l-18 -82l-117 -11l-47 11z" />
<glyph unicode="&#xfd;" horiz-adv-x="1085" d="M10 934v20h447v-20l-117 -12l293 -805l285 805l-140 12v20h297v-20l-119 -12l-299 -844l-254 -559h-223v192h228l215 379l-172 -78l-334 910zM549 1122l119 359h186l-279 -359h-26z" />
<glyph unicode="&#xfe;" horiz-adv-x="1079" d="M33 1389l309 71h20v-678l295 203q80 0 147.5 -33.5t116 -94t76 -141.5t27.5 -175q0 -104 -25.5 -195.5t-81 -165.5t-141.5 -128t-209 -83q-53 0 -107 13.5t-98 48.5v-469l197 -13v-20h-522v20l131 13v1835l-131 -29zM362 102q27 -41 71 -66.5t104 -23.5q125 2 199.5 120 t74.5 321q0 84 -15.5 156.5t-45 127t-73.5 86t-102 31.5q-53 0 -87.5 -19.5t-88.5 -54.5l-37 -22v-656z" />
<glyph unicode="&#xff;" horiz-adv-x="1085" d="M10 934v20h447v-20l-117 -12l293 -805l285 805l-140 12v20h297v-20l-119 -12l-299 -844l-254 -559h-223v192h228l215 379l-172 -78l-334 910zM340 1321l16 76l117 10l47 -10l10 -90l-18 -82l-117 -11l-47 11zM688 1321l17 76l116 10l47 -10l11 -90l-19 -82l-117 -11 l-47 11z" />
<glyph unicode="&#x152;" horiz-adv-x="1947" d="M78 688q0 330 180 521.5t557 248.5l279 -24h788v-373h-20l-140 344h-516v-641h281l88 244h20v-512h-20l-88 241h-281v-708h531l135 354h20v-383h-903l-215 -25q-154 0 -281.5 53.5t-220 148.5t-143.5 226.5t-51 284.5zM328 750q0 -160 37.5 -295.5t105.5 -232.5 t160 -151.5t200 -54.5l156 17v1368l-231 20q-102 0 -182 -51t-134.5 -141t-83 -213t-28.5 -266z" />
<glyph unicode="&#x153;" horiz-adv-x="1701" d="M68 455q0 119 35.5 208t101 152.5t158 104.5t202.5 65q123 0 217.5 -59.5t147.5 -163.5q59 92 148 146.5t194 76.5q178 0 265 -99.5t87 -269.5v-57h-625q-2 -14 -2 -22.5v-18.5q4 -94 35 -168t80 -124t114.5 -75.5t139.5 -25.5q70 0 133.5 25.5t122.5 62.5l10 -14 q-47 -41 -87 -73t-81 -58.5t-85 -50t-97 -48.5q-119 0 -225.5 55.5t-165.5 165.5q-59 -86 -157.5 -139t-227.5 -82q-96 0 -176 36t-138.5 100.5t-91 153.5t-32.5 196zM272 516q0 -111 21.5 -204t58.5 -158.5t89.5 -102.5t113.5 -37q117 0 178.5 114t61.5 308 q0 121 -21.5 214t-60.5 157.5t-90.5 97.5t-112.5 33q-117 0 -177.5 -111.5t-60.5 -310.5zM997 580h414q0 80 -7 144t-28.5 111.5t-58.5 73t-98 25.5q-106 0 -159.5 -92t-62.5 -246v-16z" />
<glyph unicode="&#x178;" horiz-adv-x="1409" d="M10 1413v21h578v-21l-178 -12l405 -770l406 770l-197 12v21h375v-21l-146 -12l-422 -811v-557l218 -13v-20h-658v20l219 13v526l-454 842zM465 1718l18 76l115 10l47 -10l12 -90l-18 -80l-117 -10l-47 10zM913 1718l19 76l115 10l47 -10l12 -90l-19 -80l-116 -10l-47 10z " />
<glyph unicode="&#x2c6;" horiz-adv-x="1024" d="M229 1122l252 377h43l254 -377h-22l-250 221h-6l-248 -221h-23z" />
<glyph unicode="&#x2dc;" horiz-adv-x="1024" d="M174 1180l57 223l113 39l418 -164l65 168h19l-58 -223l-112 -39l-418 168l-65 -172h-19z" />
<glyph unicode="&#x2000;" horiz-adv-x="950" />
<glyph unicode="&#x2001;" horiz-adv-x="1901" />
<glyph unicode="&#x2002;" horiz-adv-x="950" />
<glyph unicode="&#x2003;" horiz-adv-x="1901" />
<glyph unicode="&#x2004;" horiz-adv-x="633" />
<glyph unicode="&#x2005;" horiz-adv-x="475" />
<glyph unicode="&#x2006;" horiz-adv-x="316" />
<glyph unicode="&#x2007;" horiz-adv-x="316" />
<glyph unicode="&#x2008;" horiz-adv-x="237" />
<glyph unicode="&#x2009;" horiz-adv-x="380" />
<glyph unicode="&#x200a;" horiz-adv-x="105" />
<glyph unicode="&#x2010;" horiz-adv-x="788" d="M82 537v63h625v-63h-625z" />
<glyph unicode="&#x2011;" horiz-adv-x="788" d="M82 537v63h625v-63h-625z" />
<glyph unicode="&#x2012;" horiz-adv-x="788" d="M82 537v63h625v-63h-625z" />
<glyph unicode="&#x2013;" horiz-adv-x="983" d="M82 545v49h819v-49h-819z" />
<glyph unicode="&#x2014;" horiz-adv-x="1781" d="M72 545v49h1638v-49h-1638z" />
<glyph unicode="&#x2018;" horiz-adv-x="468" d="M133 1032l19 98l182 324l14 -4l-133 -315l86 6l55 -11l11 -114l-19 -92l-145 -11l-60 11z" />
<glyph unicode="&#x2019;" horiz-adv-x="458" d="M102 1354l19 90l145 10l60 -10l10 -107l-19 -98l-182 -326l-14 7l133 313l-86 -4l-55 10z" />
<glyph unicode="&#x201a;" horiz-adv-x="376" d="M82 150l18 90l146 10l59 -10l10 -107l-18 -98l-182 -326l-15 6l133 314l-86 -4l-55 10z" />
<glyph unicode="&#x201c;" horiz-adv-x="718" d="M92 1030l19 100l182 324l14 -6l-133 -313l86 6l55 -11l11 -116l-19 -90l-145 -11l-60 11zM424 1030l18 100l183 324l14 -6l-133 -313l86 6l55 -11l10 -116l-18 -90l-145 -11l-60 11z" />
<glyph unicode="&#x201d;" horiz-adv-x="718" d="M92 1358l19 90l145 10l59 -10l11 -107l-19 -100l-182 -323l-14 6l133 313l-86 -6l-56 10zM424 1358l18 90l146 10l59 -10l10 -107l-18 -100l-182 -323l-15 6l133 313l-86 -6l-55 10z" />
<glyph unicode="&#x201e;" horiz-adv-x="718" d="M92 150l19 90l145 10l59 -10l11 -107l-19 -98l-182 -326l-14 6l133 314l-86 -4l-56 10zM424 150l18 90l146 10l59 -10l10 -107l-18 -98l-182 -326l-15 6l133 314l-86 -4l-55 10z" />
<glyph unicode="&#x2022;" horiz-adv-x="444" d="M102 633l19 98l147 10l64 -10l10 -115l-16 -104l-150 -10l-63 10z" />
<glyph unicode="&#x2026;" horiz-adv-x="1568" d="M154 119l18 96l150 10l57 -10l10 -113l-18 -102l-152 -10l-55 10zM668 119l18 96l150 10l55 -10l12 -113l-20 -102l-150 -10l-55 10zM1180 119l18 96l150 10l57 -10l10 -113l-18 -102l-152 -10l-55 10z" />
<glyph unicode="&#x202f;" horiz-adv-x="380" />
<glyph unicode="&#x2039;" horiz-adv-x="583" d="M102 481l373 451h27l-269 -451l269 -450h-29z" />
<glyph unicode="&#x203a;" horiz-adv-x="583" d="M102 31l269 450l-269 451h27l373 -451l-371 -450h-29z" />
<glyph unicode="&#x205f;" horiz-adv-x="475" />
<glyph unicode="&#x20ac;" horiz-adv-x="1347" d="M92 592v29h101q-2 18 -2.5 36.5t-0.5 38.5q0 59 7 119h-105v27h109q20 133 75.5 241.5t141.5 188.5t197.5 130t244.5 66q123 0 228.5 -30.5t171.5 -77.5v-363h-21l-145 324q-90 121 -246 121q-80 0 -151.5 -37t-128 -112.5t-92.5 -188.5t-44 -262h604l-18 -27h-586v-43 q0 -39 2 -77t6 -74h463l-20 -29h-439q14 -104 48 -197.5t89.5 -162t134.5 -108.5t185 -40q45 0 93 11t94.5 29.5t88.5 41t74 47.5l15 -25q-74 -66 -184.5 -127t-243.5 -92q-117 0 -226.5 37t-197.5 114t-146.5 194.5t-72.5 277.5h-103z" />
<glyph unicode="&#x2122;" horiz-adv-x="1982" d="M102 1206v228h686v-228h-16l-100 209h-144v-745l107 -8v-17h-381v17l108 8v745h-145l-98 -209h-17zM829 645v17l84 8v741l-84 8v15h267l274 -631l256 631h254v-15l-88 -8v-741l88 -8v-17h-330v17l74 8v700l-293 -731h-82l-311 750v-719l86 -8v-17h-195z" />
<glyph unicode="&#x25fc;" horiz-adv-x="952" d="M0 0v952h952v-952h-952z" />
</font>
</defs>
</svg>
