<?xml version="1.0" standalone="no"?>
<!DOCTYPE svg PUBLIC "-//W3C//DTD SVG 1.1//EN" "http://www.w3.org/Graphics/SVG/1.1/DTD/svg11.dtd" >
<svg xmlns="http://www.w3.org/2000/svg">
<metadata></metadata>
<defs>
<font id="gt_sectra_displaylight" horiz-adv-x="1269" >
<font-face units-per-em="2048" ascent="1536" descent="-512" />
<missing-glyph horiz-adv-x="491" />
<glyph unicode="&#xfb01;" horiz-adv-x="1067" d="M51 0v10l144 10v912h-144v10h144v27q0 53 1 93t6 71.5t17 57.5t35 52l182 211h467v-174h-10l-133 53h-416l-8 -22q-8 -23 -12.5 -44.5t-5.5 -50t-1 -69.5v-100v-105h445l110 21h11v-943l143 -10v-10h-410v10l144 10v912h-443v-912l238 -10v-10h-504z" />
<glyph unicode="&#xfb02;" horiz-adv-x="1056" d="M51 0v10l144 10v912h-144v10h144v27q0 53 1 93t6 71.5t17 57.5t35 52l182 211h447v-1434l143 -10v-10h-410v10l144 10v912h-443v-912l238 -10v-10h-504zM317 942h443v391h-416l-8 -22q-8 -23 -12.5 -44.5t-5.5 -50t-1 -69.5v-100v-105z" />
<glyph unicode="&#xfb03;" horiz-adv-x="1632" d="M51 0v10l144 10v912h-144v10h144v8q0 51 1 90t6 69t17 54.5t35 48.5l182 211h248l-104 -120h-236l-8 -23q-8 -23 -12.5 -44.5t-5.5 -50t-1 -69.5v-100v-74h443v27q0 53 1 93t6 71.5t17.5 57.5t34.5 52l182 211h467v-174h-10l-133 53h-416l-8 -22q-8 -23 -12 -44.5t-5 -50 t-1 -69.5v-100v-105h444l111 21h10v-943l143 -10v-10h-409v10l143 10v912h-442v-912l237 -10v-10h-504v10l144 10v912h-443v-912l238 -10v-10h-504z" />
<glyph unicode="&#xfb04;" horiz-adv-x="1622" d="M51 0v10l144 10v912h-144v10h144v8q0 51 1 90t6 69t17 54.5t35 48.5l182 211h248l-104 -120h-236l-8 -23q-8 -23 -12.5 -44.5t-5.5 -50t-1 -69.5v-100v-74h443v27q0 53 1 93t6 71.5t17.5 57.5t34.5 52l182 211h447v-1434l143 -10v-10h-409v10l143 10v912h-442v-912 l237 -10v-10h-504v10l144 10v912h-443v-912l238 -10v-10h-504zM883 942h442v391h-416l-8 -22q-8 -23 -12 -44.5t-5 -50t-1 -69.5v-100v-105z" />
<glyph horiz-adv-x="0" />
<glyph horiz-adv-x="0" />
<glyph unicode="&#xd;" horiz-adv-x="655" />
<glyph unicode=" "  horiz-adv-x="491" />
<glyph unicode="&#x09;" horiz-adv-x="491" />
<glyph unicode="&#xa0;" horiz-adv-x="491" />
<glyph unicode="!" horiz-adv-x="485" d="M164 80l12 63l100 7l39 -7l7 -75l-13 -68l-100 -8l-37 8zM166 1454h153l-10 -649l-51 -418h-31l-51 416z" />
<glyph unicode="&#x22;" horiz-adv-x="686" d="M102 1374l15 76l121 8l51 -8l8 -90l-16 -82l-164 -326l-6 2l120 320l-73 -4l-47 8zM399 1374l15 76l121 8l51 -8l8 -90l-16 -82l-164 -326l-6 2l120 320l-73 -4l-47 8z" />
<glyph unicode="#" horiz-adv-x="1232" d="M82 424l4 41h285l49 407h-287l6 41h285l53 428h41l-53 -428h369l53 428h41l-54 -428h277l-4 -41h-277l-51 -407h281l-4 -41h-281l-51 -424h-41l51 424h-368l-52 -424h-41l52 424h-283zM410 465h370l49 407h-368z" />
<glyph unicode="$" horiz-adv-x="1044" d="M92 86v305h10l80 -207q63 -66 150.5 -111.5t199.5 -45.5h11v643l-193 104q-49 27 -92 55.5t-75.5 63.5t-51 81t-18.5 107q0 76 30.5 139.5t88 110.5t136 81t175.5 52v135h20v-135q92 -4 188.5 -27.5t166.5 -62.5v-301h-11l-90 234q-53 47 -116.5 78.5t-137.5 39.5v-602 l123 -65q133 -72 199.5 -156t66.5 -201q0 -55 -17 -112.5t-62.5 -111.5t-120 -101t-189.5 -84v-156h-20v150l-54 -17q-135 0 -227 33t-170 84zM225 1165q0 -98 59.5 -160.5t170.5 -121.5l88 -47v591h-23q-68 0 -123 -20.5t-93 -55t-58.5 -83t-20.5 -103.5zM563 27 q125 10 201 85.5t76 198.5q0 104 -59.5 183t-198.5 155l-19 10v-632z" />
<glyph unicode="%" horiz-adv-x="1650" d="M102 1077q0 154 83 243t278 124q72 0 128 -25.5t96 -72t60.5 -109.5t20.5 -139q0 -154 -83.5 -246t-278.5 -119q-72 0 -128.5 25.5t-95.5 72t-59.5 108.5t-20.5 138zM213 1108q0 -76 13.5 -139.5t42 -110.5t72.5 -73.5t108 -26.5q53 0 92 24.5t64.5 66.5t37.5 98.5 t12 119.5q0 74 -13 138.5t-42 111.5t-73 73.5t-107 26.5q-53 0 -92 -24.5t-64.5 -66.5t-38 -98.5t-12.5 -119.5zM317 -10l1012 1454h49l-1007 -1454h-54zM883 332q0 154 83 243t277 123q72 0 128 -25.5t96 -71.5t60.5 -109.5t20.5 -139.5q0 -154 -83.5 -245.5t-278.5 -118.5 q-72 0 -128.5 25.5t-95 71.5t-59 108.5t-20.5 138.5zM993 362q0 -76 13.5 -139t42 -110t72.5 -74t108 -27q53 0 92 24.5t64.5 66.5t38 98.5t12.5 120.5q0 74 -13.5 138t-42 111t-73 74t-107.5 27q-53 0 -92 -24.5t-64.5 -66.5t-38 -98.5t-12.5 -120.5z" />
<glyph unicode="&#x26;" horiz-adv-x="1335" d="M94 291q0 80 28 143.5t74 116.5t106 97t128 83l-10 12q-53 63 -96 114.5t-74 96.5t-47.5 87t-16.5 87q0 131 95.5 209t281.5 133q84 0 147.5 -23.5t106.5 -63.5t64.5 -90t21.5 -105q0 -111 -83 -202t-249 -189l330 -398l279 332l-140 10v11h285v-11l-123 -10l-289 -346 l304 -365l129 -10v-10h-308l-223 266q-29 -33 -67.5 -71.5t-82.5 -78.5t-90.5 -78t-89.5 -69q-78 0 -149.5 22.5t-124.5 64.5t-85 101.5t-32 133.5zM229 389q0 -61 21.5 -115.5t58.5 -94.5t86.5 -62.5t106.5 -22.5q55 0 121.5 28t144.5 118l35 43l-363 438 q-66 -39 -107.5 -82t-64 -87t-31 -85t-8.5 -78zM324 1198q0 -84 66.5 -174t164.5 -209l6 -6q68 43 107 89t59.5 96t26.5 101.5t6 102.5q0 111 -63.5 173.5t-161.5 62.5q-96 0 -153.5 -61.5t-57.5 -174.5z" />
<glyph unicode="'" horiz-adv-x="378" d="M102 1370l15 76l121 8l51 -8l8 -90l-16 -82l-164 -326l-6 2l120 320l-73 -4l-47 8z" />
<glyph unicode="(" horiz-adv-x="550" d="M92 498q0 137 22.5 259t72 237.5t129 232t196.5 243.5l8 -6q-92 -100 -154.5 -211.5t-100.5 -234.5t-53 -253t-15 -267t15 -268.5t53 -254t100.5 -234.5t154.5 -212l-8 -6q-117 127 -196.5 243.5t-129 233.5t-72 238t-22.5 260z" />
<glyph unicode=")" horiz-adv-x="550" d="M31 -471q92 100 154.5 212t100.5 234.5t53 253.5t15 269q0 137 -15 267t-53 253t-100.5 234.5t-154.5 211.5l8 6q117 -127 196.5 -243.5t129 -232t72 -237.5t22.5 -259q0 -139 -22.5 -260t-72 -238t-129 -233.5t-196.5 -243.5z" />
<glyph unicode="*" horiz-adv-x="780" d="M92 1202l37 119l254 -143l-55 286h123l-56 -286l254 143l39 -117l-291 -35l215 -196l-98 -74l-125 264l-121 -264l-100 72l213 198z" />
<glyph unicode="+" d="M106 502v41h508v512h41v-512h508v-41h-508v-502h-41v502h-508z" />
<glyph unicode="," horiz-adv-x="436" d="M174 98l14 76l117 8l51 -8l9 -90l-15 -84l-166 -283l-6 2l121 277l-72 -4l-45 8z" />
<glyph unicode="-" horiz-adv-x="788" d="M82 547v41h625v-41h-625z" />
<glyph unicode="." horiz-adv-x="415" d="M143 96l15 78l121 8l47 -8l8 -90l-15 -84l-122 -8l-45 8z" />
<glyph unicode="/" horiz-adv-x="929" d="M-20 -471l927 1941h43l-923 -1941h-47z" />
<glyph unicode="0" horiz-adv-x="1103" d="M82 457q0 106 28.5 192t90 149.5t158 106.5t233.5 68q100 0 180 -36t135.5 -100.5t85 -154.5t29.5 -197q0 -215 -120 -347t-392 -169q-100 0 -180 36t-135.5 100.5t-84 154.5t-28.5 197zM225 500q0 -106 19.5 -197.5t61.5 -157t107.5 -103.5t157.5 -38q80 0 137.5 35 t95.5 94.5t56.5 139t18.5 169.5q0 104 -19.5 194.5t-61.5 156t-108.5 103.5t-159.5 38q-80 0 -137 -35t-94 -94.5t-55.5 -138t-18.5 -166.5z" />
<glyph unicode="1" horiz-adv-x="827" d="M51 0v10l314 10v867l-291 -111l-4 10l407 181h10v-947l297 -10v-10h-733z" />
<glyph unicode="2" horiz-adv-x="862" d="M41 10l172 129q123 92 197.5 171t115.5 147.5t54.5 127t13.5 109.5q0 72 -17.5 118t-46 73.5t-64.5 38t-75 10.5q-55 0 -92 -15.5t-63 -25.5l-52 -227h-108v159l348 168q88 0 148.5 -21.5t97.5 -57t52 -83t15 -96.5q-2 -141 -116.5 -277t-319.5 -272l-80 -53h580v-8 l-45 -125h-707z" />
<glyph unicode="3" horiz-adv-x="901" d="M51 645v195l428 153q70 0 119 -24.5t80 -62.5t45 -83t14 -84q0 -104 -75.5 -199.5t-268.5 -187.5q78 -4 149.5 -27.5t126 -64.5t87 -97.5t32.5 -125.5q0 -121 -81.5 -218.5t-233.5 -174.5l-219 -115h-201v133h439q76 63 119.5 129t43.5 162q0 61 -25.5 119.5t-77.5 102.5 t-131 71.5t-183 27.5v19l88 41q94 43 150 86t84 88t36 90t8 88q0 106 -58.5 175t-148.5 69q-47 0 -93 -14.5t-77 -30.5l-69 -240h-107z" />
<glyph unicode="4" horiz-adv-x="1040" d="M20 18l619 936h160v-10l-750 -924h563v408l123 68v-476h285v-20h-285v-479h-123v479h-579z" />
<glyph unicode="5" horiz-adv-x="921" d="M92 -338h352q131 76 199 178.5t68 259.5q0 55 -11.5 101.5t-36 81t-65.5 54t-100 19.5q-31 0 -58.5 -3t-57.5 -12t-65.5 -26.5t-87.5 -44.5l-90 -49l-6 6l72 736h655l-8 -123h-635l-57 -592l370 203q160 0 237 -83t77 -208q0 -100 -32 -176t-87 -136.5t-130 -108.5 t-161 -93l-225 -117h-117v133z" />
<glyph unicode="6" horiz-adv-x="1060" d="M92 535q0 137 36 281.5t119 273.5t215 230t326 155l7 -15q-178 -51 -290 -136t-173.5 -191.5t-84 -231.5t-22.5 -256v-37l379 307q94 0 162 -37.5t111 -96t62 -130t19 -141.5q0 -84 -23.5 -167t-77.5 -155.5t-142 -130t-219 -88.5q-102 0 -178 49.5t-126.5 129t-75 181 t-24.5 206.5zM227 594q4 -109 28 -211t64.5 -182t99 -129t132.5 -49q135 0 203.5 95t68.5 306q0 188 -65.5 292.5t-165.5 104.5q-35 0 -70 -13t-70.5 -38t-75.5 -56.5t-85 -68.5z" />
<glyph unicode="7" horiz-adv-x="927" d="M41 829v134h836l10 -11l-572 -1423h-114v10l624 1290h-784z" />
<glyph unicode="8" horiz-adv-x="1024" d="M102 330q0 70 30 128t77 106t106.5 88t120.5 71l-125 104q-33 27 -63.5 61t-54 72.5t-38 79.5t-14.5 84q0 125 91.5 201t283.5 139q197 0 287 -76.5t90 -218.5q0 -121 -85 -212t-226 -173l166 -139q74 -61 124 -133t50 -164q0 -150 -110 -241t-333 -138 q-76 0 -144.5 22.5t-119.5 68.5t-82 113t-31 157zM238 373q0 -82 26.5 -148.5t68.5 -115t94 -74t103 -25.5q41 0 86.5 12.5t83 42t62 82t24.5 132.5q0 49 -12 89t-39.5 77.5t-69.5 77.5t-100 89l-121 103q-96 -68 -151 -151t-55 -191zM276 1212q0 -51 14.5 -96t47.5 -91 t82 -96t121 -110l30 -26q57 47 94 91t57.5 87t28 87t7.5 89q0 57 -17.5 108.5t-51.5 89t-82 59t-111 21.5q-98 0 -159 -54t-61 -159z" />
<glyph unicode="9" horiz-adv-x="1050" d="M61 459q0 82 25 164t80 152.5t143 126.5t215 91q102 0 178 -51t126.5 -133t75 -184.5t24.5 -206.5q0 -139 -39 -279.5t-123 -264.5t-216 -222t-319 -152l-6 15q154 47 262.5 129t177 188.5t99.5 230t31 254.5v29l-369 -299q-94 0 -162.5 38t-114 98.5t-67 133 t-21.5 142.5zM197 539q0 -188 71.5 -287.5t171.5 -99.5q33 0 57.5 5t51 20.5t63.5 45t97 76.5l86 68q-4 106 -29 208.5t-66 183.5t-99 130t-132 49q-129 0 -200.5 -97t-71.5 -302z" />
<glyph unicode=":" horiz-adv-x="446" d="M154 96l14 78l121 8l47 -8l8 -90l-14 -84l-123 -8l-45 8zM154 897l14 78l121 8l47 -8l8 -90l-14 -84l-123 -8l-45 8z" />
<glyph unicode=";" horiz-adv-x="487" d="M154 98l14 76l117 8l51 -8l8 -90l-14 -84l-166 -283l-6 2l121 277l-72 -4l-45 8zM154 897l14 78l121 8l47 -8l8 -90l-14 -84l-123 -8l-45 8z" />
<glyph unicode="&#x3c;" d="M102 575v21l1065 485v-43l-1009 -452l1009 -451v-43z" />
<glyph unicode="=" d="M106 287v41h1057v-41h-1057zM106 676v41h1057v-41h-1057z" />
<glyph unicode="&#x3e;" d="M102 92v43l1010 451l-1010 452v43l1065 -485v-21z" />
<glyph unicode="?" horiz-adv-x="813" d="M133 1219v204l168 31q111 0 188.5 -28.5t127 -72.5t72 -96.5t22.5 -101.5q0 -115 -54.5 -196.5t-164.5 -149.5l-158 -78v-321h-31l-45 286l88 66q59 43 102.5 84t72 86t43 98t14.5 121q0 55 -13.5 106.5t-46.5 91.5t-85 64.5t-132 28.5l-59 -223h-109zM242 80l12 63 l100 7l39 -7l6 -75l-12 -68l-100 -8l-37 8z" />
<glyph unicode="@" horiz-adv-x="1818" d="M102 528q0 147 49.5 277.5t137.5 239t211 190.5t270 135l191 64q184 0 327.5 -46.5t240.5 -126t147 -188t50 -233.5q0 -137 -50 -256t-135 -208t-193.5 -140.5t-225.5 -51.5l-96 138l45 213l-283 -355q-49 4 -96 28.5t-84 66.5t-59.5 100.5t-22.5 132.5q0 166 95.5 292 t244.5 197l219 105l195 -139l-150 -766q78 0 162 43t152.5 122.5t114 192.5t45.5 254q0 123 -42 229.5t-121 185.5t-191.5 124t-252.5 45q-145 0 -284.5 -57.5t-248 -164t-174 -257t-65.5 -334.5t61.5 -323.5t165 -233t239.5 -140.5t284 -47q61 0 118.5 13.5t107.5 33t92 42 t73 40.5l6 -8q-57 -35 -121.5 -65.5t-130 -56t-126 -43t-109.5 -25.5q-176 0 -319.5 57t-247 158.5t-160 240.5t-56.5 305zM653 559q0 -109 46 -180.5t143 -93.5l233 274l76 352l-178 123q-94 -47 -155.5 -107.5t-98.5 -125t-51.5 -128t-14.5 -114.5z" />
<glyph unicode="A" horiz-adv-x="1417" d="M10 0v10l168 10l496 1379l82 55l487 -1434l164 -10v-10h-502v8l180 12l-170 510h-532l-180 -510l184 -12v-8h-377zM391 551h518l-250 752z" />
<glyph unicode="B" horiz-adv-x="1257" d="M61 0v10l189 10v1393l-189 10v11h633q96 0 170 -26t123 -69t74.5 -100t25.5 -121q0 -80 -36.5 -145.5t-95 -112.5t-129 -73.5t-138.5 -28.5q123 -2 214 -29t151.5 -73t91.5 -109.5t31 -136.5q0 -100 -39 -177t-110 -128.5t-170 -78t-218 -26.5h-578zM393 20l219 -10 q117 0 196 31t126 83t67.5 121.5t20.5 149.5q0 86 -28.5 151.5t-78 109.5t-117 66.5t-145.5 22.5h-260v-725zM393 766h246q76 0 131 27.5t92 74.5t54.5 110.5t17.5 137.5q0 135 -76 221t-217 86l-248 -10v-647z" />
<glyph unicode="C" horiz-adv-x="1359" d="M82 694q0 170 52 306.5t146.5 234.5t224.5 156.5t283 72.5q143 0 261 -30.5t208 -77.5v-307h-10l-104 251q-31 29 -65 55.5t-77 46t-97 31t-124 11.5q-106 0 -203.5 -45t-171 -135t-116.5 -225.5t-43 -315.5q0 -137 31.5 -268t99 -232.5t175 -164t259.5 -62.5 q102 0 190.5 44t141.5 97l104 275h10v-308q-111 -53 -223 -85.5t-262 -49.5q-135 0 -259 48.5t-220 140.5t-153.5 227t-57.5 309z" />
<glyph unicode="D" horiz-adv-x="1470" d="M61 0v10l209 10v1393l-209 10v11h633q154 0 282 -46.5t220 -134.5t142.5 -217t50.5 -297q0 -158 -45.5 -293t-132.5 -234t-216 -155.5t-297 -56.5h-637zM414 20l295 -10q115 0 210 51.5t162.5 145.5t105.5 227t38 297q0 154 -31 281t-97.5 219t-170 142t-248.5 50 l-264 -10v-1393z" />
<glyph unicode="E" horiz-adv-x="1226" d="M61 0v10l189 10v1393l-189 10v11h1086v-361h-10l-125 340h-619v-653h377l82 233h10v-485h-10l-82 231h-377v-719h637l125 349h10v-369h-1104z" />
<glyph unicode="F" horiz-adv-x="1177" d="M61 0v10l189 10v1393l-189 10v11h1086v-371h-10l-125 350h-619v-680h377l82 266h10v-553h-10l-82 267h-377v-693l189 -10v-10h-521z" />
<glyph unicode="G" horiz-adv-x="1466" d="M82 698q0 162 51 298.5t145.5 236.5t226.5 160.5t296 70.5q76 0 145.5 -10t129 -26.5t106.5 -36t75 -37.5v-305h-10l-104 251q-53 53 -137 98.5t-211 45.5q-129 0 -231.5 -56.5t-173.5 -157t-107.5 -237.5t-36.5 -297q0 -135 33.5 -263t102.5 -227.5t171 -159.5t240 -60 q123 0 213 47t135 106v469l-174 15v10h448v-10l-131 -15v-510q-47 -25 -104.5 -47t-122 -40.5t-135 -30t-142.5 -11.5q-145 0 -272 47t-221 139.5t-149.5 228.5t-55.5 314z" />
<glyph unicode="H" horiz-adv-x="1521" d="M61 0v10l189 10v1393l-189 10v11h521v-11l-189 -10v-657h735v657l-188 10v11h520v-11l-188 -10v-1393l188 -10v-10h-520v10l188 10v715h-735v-715l189 -10v-10h-521z" />
<glyph unicode="I" horiz-adv-x="643" d="M61 0v10l189 10v1393l-189 10v11h521v-11l-189 -10v-1393l189 -10v-10h-521z" />
<glyph unicode="J" horiz-adv-x="645" d="M0 -215h240l8 39q4 16 7 39.5t4 62.5t2 100.5t1 153.5v1233l-219 10v11h551v-11l-188 -10v-1247q0 -55 -4.5 -96t-13.5 -75t-26.5 -62.5t-42.5 -59.5l-192 -231h-127v143z" />
<glyph unicode="K" horiz-adv-x="1376" d="M61 0v10l189 10v1393l-189 10v11h521v-11l-189 -10v-670l719 670l-184 10v11h375v-11l-164 -10l-715 -665l115 22l671 -750l146 -10v-10h-314l-649 727v-707l189 -10v-10h-521z" />
<glyph unicode="L" horiz-adv-x="1124" d="M61 0v10l189 10v1393l-189 10v11h521v-11l-189 -10v-1393h576l125 359h10v-379h-1043z" />
<glyph unicode="M" horiz-adv-x="1820" d="M61 0v10l189 10v1393l-189 10v11h345l526 -1303l483 1303h344v-11l-188 -10v-1393l188 -10v-10h-493v10l161 10v1389l-524 -1419h-74l-559 1415v-1385l168 -10v-10h-377z" />
<glyph unicode="N" horiz-adv-x="1423" d="M61 0v10l189 10v1393l-189 10v11h353l780 -1239v1218l-186 10v11h395v-11l-189 -10v-1423h-61l-883 1407v-1377l189 -10v-10h-398z" />
<glyph unicode="O" horiz-adv-x="1540" d="M82 688q0 326 176 529.5t530 246.5q147 0 270.5 -56t212.5 -153.5t138 -228.5t49 -281q0 -326 -176 -529.5t-532 -246.5q-145 0 -268.5 56.5t-212.5 153.5t-138 228.5t-49 280.5zM246 743q0 -158 43 -293t118.5 -233t179 -154.5t226.5 -56.5q111 0 200 50t151.5 141.5 t96 216.5t33.5 276q0 158 -43 293t-118.5 233.5t-179 154.5t-226.5 56q-111 0 -200 -50t-151.5 -141t-96 -217t-33.5 -276z" />
<glyph unicode="P" horiz-adv-x="1157" d="M61 0v10l189 10v1393l-189 10v11h635q90 0 169 -25t137.5 -71t91 -115.5t32.5 -157.5q0 -98 -41 -167t-107.5 -116t-152.5 -77.5t-174 -53.5h-258v-631l209 -10v-10h-541zM393 672h205q82 0 150.5 28.5t117.5 78.5t76 120t27 150q0 74 -18.5 142.5t-58.5 119.5 t-104.5 81.5t-156.5 30.5l-238 -10v-741z" />
<glyph unicode="Q" horiz-adv-x="1540" d="M82 688q0 326 176 529.5t530 246.5q147 0 270.5 -56t212.5 -153.5t138 -228.5t49 -281q0 -162 -44 -295t-131 -232t-219 -162.5t-308 -84.5l250 -65l272 -223l100 -11v-10h-278l-350 307q-145 0 -268.5 56.5t-212.5 153.5t-138 228.5t-49 280.5zM246 743q0 -158 43 -293 t118.5 -233t179 -154.5t226.5 -56.5q111 0 200 50t151.5 141.5t96 216.5t33.5 276q0 158 -43 293t-118.5 233.5t-179 154.5t-226.5 56q-111 0 -200 -50t-151.5 -141t-96 -217t-33.5 -276z" />
<glyph unicode="R" horiz-adv-x="1310" d="M61 0v10l189 10v1393l-189 10v11h619q76 0 152.5 -17.5t137 -59.5t98.5 -109.5t38 -168.5q0 -96 -44 -163.5t-118 -113.5t-169 -75t-195 -45h-187v-662l176 -10v-10h-508zM393 702h144q205 0 308 99.5t103 263.5q0 90 -25.5 156.5t-70.5 111.5t-106.5 66.5t-133.5 23.5 l-219 -10v-711zM580 682l200 -47l410 -615l110 -10v-10h-268z" />
<glyph unicode="S" horiz-adv-x="1044" d="M92 86v305h10l80 -207q63 -66 150.5 -111.5t199.5 -45.5q139 0 223.5 76.5t84.5 207.5q0 104 -59.5 183t-198.5 155l-232 125q-49 27 -92 55.5t-75.5 63.5t-51 81t-18.5 107q0 76 30.5 139.5t88 110.5t136 81t175.5 52q47 0 98 -6t100.5 -18.5t94.5 -28.5t82 -37v-301 h-11l-90 234q-59 55 -134 87.5t-163 32.5q-68 0 -123 -20.5t-93 -55t-58.5 -82.5t-20.5 -104q0 -98 59.5 -160.5t170.5 -121.5l231 -125q133 -72 199.5 -156t66.5 -201q0 -59 -20.5 -120.5t-72.5 -119t-142 -106.5t-228 -86q-135 0 -227 33t-170 84z" />
<glyph unicode="T" horiz-adv-x="1159" d="M20 1042v392h1119v-392h-11l-124 371h-353v-1393l189 -10v-10h-521v10l189 10v1393h-352l-125 -371h-11z" />
<glyph unicode="U" horiz-adv-x="1359" d="M20 1423v11h519v-11l-189 -10v-924q0 -96 24.5 -180t76 -146.5t127 -99t178.5 -36.5q84 0 151.5 36.5t114.5 99t72.5 146.5t25.5 180v924l-188 10v11h407v-11l-188 -10v-917q0 -98 -20.5 -185.5t-71.5 -157t-139.5 -116.5t-223.5 -68q-137 0 -230 40t-150.5 110.5 t-83 170t-25.5 220.5v903z" />
<glyph unicode="V" horiz-adv-x="1417" d="M10 1423v11h502v-9l-180 -12l448 -1286l437 1286l-187 12v9h377v-11l-168 -10l-473 -1390l-82 -46l-510 1436z" />
<glyph unicode="W" horiz-adv-x="1996" d="M20 1423v11h474v-11l-181 -10l387 -1190l285 887l-98 303l-139 10v11h473v-11l-181 -10l387 -1190l383 1190l-192 10v11h358v-11l-143 -10l-453 -1405l-28 -10l-355 1077l-344 -1067l-28 -10l-465 1415z" />
<glyph unicode="X" horiz-adv-x="1423" d="M20 0v10l218 10l413 637l-473 756l-153 10v11h499v-11l-176 -10l402 -641l411 641l-239 10v11h481v-11l-217 -10l-424 -659l463 -734l151 -10v-10h-508v10l185 10l-389 619l-402 -619l240 -10v-10h-482z" />
<glyph unicode="Y" horiz-adv-x="1390" d="M10 1423v11h514v-11l-192 -10l434 -792l432 792l-213 10v11h395v-11l-157 -10l-443 -813v-580l236 -10v-10h-615v10l236 10v539l-469 854z" />
<glyph unicode="Z" horiz-adv-x="1122" d="M41 0v10l848 1403h-633l-152 -360h-10v381h967v-11l-848 -1403h659l156 369h10v-389h-997z" />
<glyph unicode="[" horiz-adv-x="618" d="M174 -471v1935h373v-10l-281 -10v-1895l281 -10v-10h-373z" />
<glyph unicode="\" horiz-adv-x="888" d="M-41 1470h43l928 -1941h-47z" />
<glyph unicode="]" horiz-adv-x="618" d="M72 -461l280 10v1895l-280 10v10h372v-1935h-372v10z" />
<glyph unicode="^" horiz-adv-x="718" d="M102 942l252 502h13l249 -502h-30l-226 467l-227 -467h-31z" />
<glyph unicode="_" horiz-adv-x="1157" d="M10 -154h1137v-41h-1137v41z" />
<glyph unicode="`" horiz-adv-x="1024" d="M301 1464h148l133 -354h-11z" />
<glyph unicode="a" horiz-adv-x="899" d="M61 203q0 47 20.5 98t88.5 105l434 147v104q0 47 -4 91.5t-23.5 78t-62.5 53t-121 19.5q-35 0 -63.5 -6t-79.5 -21l-51 -206h-111v137l350 170q84 0 139.5 -15.5t92.5 -52.5q39 -39 48 -101.5t9 -141.5v-443q0 -53 11.5 -99t29.5 -93l119 16l2 -8l-246 -45l-37 182 l-287 -203q-121 0 -189.5 61.5t-68.5 172.5zM195 238q0 -78 44 -126.5t113 -48.5q53 0 102.5 25t82.5 47l67 49v359l-307 -119q-45 -35 -73.5 -79t-28.5 -107z" />
<glyph unicode="b" horiz-adv-x="1036" d="M20 1393l259 71h10v-684l317 193q70 0 133.5 -29t110.5 -84t75.5 -136t28.5 -183q0 -147 -38.5 -247.5t-104.5 -167.5t-153 -102.5t-183 -54.5q-106 0 -181 21.5t-128 56.5v1364l-141 -29zM289 111q37 -59 93 -86t136 -27q59 0 113.5 35t96.5 99.5t67.5 155t25.5 201.5 q0 78 -15 149t-47 124t-83 85t-123 32q-59 0 -102 -22.5t-105 -59.5l-57 -35v-651z" />
<glyph unicode="c" horiz-adv-x="864" d="M72 438q0 125 40 219.5t105.5 160t148.5 104.5t171 51q29 0 65.5 -9.5t72.5 -24.5t67.5 -33.5t52.5 -37.5v-155h-99l-88 209q-47 16 -96 16q-68 0 -126 -22.5t-102 -71.5t-69 -127t-25 -187q0 -96 26 -179t72 -145.5t110.5 -98t142.5 -35.5q74 0 138 27.5t128 82.5l6 -8 q-66 -63 -144.5 -113.5t-158.5 -91.5q-92 0 -173 32t-139.5 91.5t-92 147.5t-33.5 198z" />
<glyph unicode="d" horiz-adv-x="1093" d="M72 424q0 102 27.5 192.5t85 162t144.5 121.5t206 73q53 0 103 -12.5t99 -40.5v491l-141 -29l-4 11l258 71h10v-1241q0 -49 8.5 -89t30.5 -95l152 18l2 -8l-273 -59l-41 186l-299 -207q-82 0 -149.5 38t-116.5 101.5t-75.5 145.5t-26.5 170zM205 494q0 -86 19.5 -165 t56 -137.5t87 -93.5t111.5 -35q27 0 48.5 4.5t43 14.5t47 27.5t64.5 44.5l55 39v651q-29 41 -81 71.5t-128 30.5q-160 -2 -241.5 -123.5t-81.5 -328.5z" />
<glyph unicode="e" horiz-adv-x="917" d="M72 436q0 119 33.5 211t92 157.5t135.5 106.5t163 62q96 0 160.5 -29t103.5 -78t55 -116.5t16 -145.5v-43h-641v-53q0 -102 29 -183t80 -137.5t122 -86t152 -29.5q68 0 137.5 29.5t129.5 70.5l6 -6q-43 -35 -81 -61.5t-76 -50t-78 -44.5t-89 -41q-86 0 -167 29t-143 87 t-101 146t-39 205zM193 571h495q0 74 -9 138.5t-33.5 113.5t-69.5 78t-119 29q-63 0 -111.5 -26.5t-80.5 -75t-50 -114t-22 -143.5z" />
<glyph unicode="f" horiz-adv-x="600" d="M51 0v10l144 10v912h-144v10h144v27q0 53 1 93t6 71.5t17 57.5t35 52l182 211h215v-121h-307l-8 -22q-8 -23 -12.5 -44.5t-5.5 -50t-1 -69.5v-100v-105h254v-10h-254v-912l238 -10v-10h-504z" />
<glyph unicode="g" horiz-adv-x="958" d="M41 -184l231 174q-53 12 -87.5 31.5t-56.5 46t-31 56.5t-9 62v21l197 143q-90 31 -145.5 100.5t-55.5 165.5q0 123 86 211t276 144q102 0 182.5 -43t121.5 -117l118 160h80v-152h-174l-18 -20q27 -51 26 -117q0 -123 -84 -212t-278 -142q-68 0 -123 18l-96 -92 q0 -84 42 -118t105 -34h330q109 0 164 -55t55 -127q0 -66 -36 -126t-100.5 -114.5t-152.5 -98.5t-192 -75q-195 0 -285 66t-90 209v35zM174 -231q0 -98 62 -161q59 -61 163 -61h7q72 0 138 26t117.5 65.5t82 93t30.5 108.5q0 66 -43 108t-147 42h-299q-70 -53 -90.5 -112.5 t-20.5 -108.5zM217 672q0 -45 10.5 -98.5t37 -99.5t72.5 -77.5t116 -31.5q92 0 144 69.5t52 192.5q0 45 -10 98t-37 99t-73 78t-115 32q-92 0 -144.5 -69.5t-52.5 -192.5z" />
<glyph unicode="h" horiz-adv-x="1130" d="M61 1393l258 71h11v-725l377 234q61 0 98 -16.5t55 -32.5q18 -18 31.5 -37t21 -46.5t11.5 -68.5t4 -100v-652l168 -10v-10h-402v10l111 10v664q0 115 -37 155t-109 40q-33 0 -60.5 -7.5t-55 -19.5t-57 -30.5t-66.5 -41.5l-90 -53v-707l112 -10v-10h-379v10l144 10v1391 l-141 -29z" />
<glyph unicode="i" horiz-adv-x="520" d="M61 883l265 80h10v-943l143 -10v-10h-409v10l143 10v893l-150 -39zM190 1343l15 70l108 8l43 -8l9 -82l-15 -76l-110 -8l-41 8z" />
<glyph unicode="j" horiz-adv-x="489" d="M-41 -354h234l4 24q4 20 11 73.5t7 127.5v1042l-149 -39l-3 9l265 80h10v-1061q0 -51 -13.5 -82t-39.5 -66l-181 -237h-145v129zM193 1343l14 70l108 8l43 -8l9 -82l-15 -76l-110 -8l-41 8z" />
<glyph unicode="k" horiz-adv-x="1028" d="M61 1393l258 71h11v-942l473 400l-148 10v10h312v-10l-138 -10l-469 -394l107 15l451 -525l100 -8v-10h-252l-436 510v-490l143 -10v-10h-410v10l144 10v1391l-141 -29z" />
<glyph unicode="l" horiz-adv-x="503" d="M61 1393l258 71h11v-1444l143 -10v-10h-410v10l144 10v1391l-141 -29z" />
<glyph unicode="m" horiz-adv-x="1693" d="M61 883l265 80h10v-224l356 234q61 0 98 -16.5t56 -32.5q31 -29 49 -66t18 -119l357 234q61 0 98 -16.5t55 -32.5q18 -18 31.5 -37t21 -46.5t11.5 -68.5t4 -100v-652l168 -10v-10h-402v10l111 10v664q0 115 -37 155t-108 40q-59 0 -115.5 -31t-103.5 -62l-91 -59v-707 l113 -10v-10h-346v10l111 10v664q0 115 -37 155t-109 40q-59 0 -115.5 -31t-103.5 -62l-90 -59v-707l113 -10v-10h-379v10l143 10v893l-150 -39z" />
<glyph unicode="n" horiz-adv-x="1136" d="M61 883l265 80h10v-224l377 234q61 0 98 -16.5t55 -32.5q18 -18 31.5 -37t21 -46.5t11.5 -68.5t4 -100v-652l168 -10v-10h-402v10l111 10v664q0 115 -37 155t-108 40q-33 0 -60.5 -7.5t-55.5 -19.5t-57.5 -30.5t-66.5 -41.5l-90 -53v-707l113 -10v-10h-379v10l143 10v893 l-150 -39z" />
<glyph unicode="o" horiz-adv-x="1038" d="M72 449q0 227 123.5 352t345.5 172q94 0 173 -37t135 -101.5t87 -151.5t31 -189q0 -227 -124 -353.5t-347 -171.5q-94 0 -172 37t-134.5 101.5t-87 151.5t-30.5 190zM207 494q0 -98 24.5 -187.5t68.5 -157t106.5 -106.5t138.5 -39q70 0 124 34t90 94.5t54 141t18 175.5 q0 111 -25.5 200.5t-70.5 152t-107 97.5t-136 35q-72 0 -125.5 -33t-88 -91t-53 -139t-18.5 -177z" />
<glyph unicode="p" horiz-adv-x="1042" d="M31 883l264 80h10v-193l305 203q80 0 146.5 -35t114 -94.5t74 -138t26.5 -166.5q0 -213 -114 -364.5t-349 -205.5q-53 0 -107.5 14.5t-95.5 49.5v-484l219 -10v-10h-489v10l147 10v1364l-149 -39zM305 113q31 -51 86 -85q52 -32 123 -32h8q70 0 127.5 33.5t99.5 95 t65.5 148.5t23.5 196q0 82 -17.5 156.5t-52.5 131t-86 89.5t-117 33q-33 0 -58.5 -7.5t-49 -19.5t-49 -29.5t-58.5 -38.5l-45 -28v-643z" />
<glyph unicode="q" horiz-adv-x="1017" d="M72 410q0 117 39 215t104.5 170.5t152.5 117.5t183 60q92 0 146.5 -17.5t113.5 -52.5l39 60h10v-1414l148 -10v-10h-490v10l219 10v617l-297 -197q-74 0 -140.5 31t-116.5 88t-80.5 138t-30.5 184zM205 483q0 -80 15.5 -153.5t49 -131t85 -92t122.5 -34.5q31 0 55.5 4 t47 12t46 22.5t54.5 32.5l57 37v635q-31 59 -81 95t-128 36q-59 0 -116.5 -26.5t-103.5 -83t-74.5 -143.5t-28.5 -210z" />
<glyph unicode="r" horiz-adv-x="702" d="M61 883l265 80h10v-301l221 301h115v-150h-211l-125 -168v-625l196 -10v-10h-462v10l143 10v893l-150 -39z" />
<glyph unicode="s" horiz-adv-x="733" d="M61 63v242h11l94 -201q41 -37 91 -65.5t116 -28.5q100 0 145 48t45 112q0 45 -11 77t-32.5 57.5t-56.5 49t-80 52.5l-145 88q-29 18 -58.5 36.5t-54.5 44t-40 59.5t-15 83q0 96 76.5 152.5t220.5 103.5q92 0 162.5 -23.5t115.5 -52.5v-244h-10l-84 203 q-53 51 -101.5 66.5t-107.5 15.5q-78 0 -124 -42t-46 -108q0 -37 13.5 -64.5t36 -50t52 -42t64.5 -39.5l156 -92q102 -58 140 -114q36 -53 36 -126v-8q-2 -104 -86 -174t-236 -109q-72 0 -151.5 30t-135.5 64z" />
<glyph unicode="t" horiz-adv-x="641" d="M10 932v10h164v170l123 78v-248h309v-10h-309v-723q0 -147 129 -148q59 0 103 14.5t92 43.5l6 -8l-246 -142q-70 0 -111 19.5t-62.5 52.5t-27.5 78t-6 96v717h-164z" />
<glyph unicode="u" horiz-adv-x="1079" d="M20 907l267 45h10v-698q0 -111 37 -155t98 -44q55 0 98 19.5t107 60.5l115 68v715l-152 -21l-2 10l266 45h10v-698q0 -66 8.5 -117t22.5 -106l121 14l2 -10l-244 -45l-32 198l-353 -219q-61 0 -99 14.5t-58 30.5q-18 16 -31.5 36t-21 47.5t-11.5 68.5t-4 100v652 l-151 -21z" />
<glyph unicode="v" horiz-adv-x="1056" d="M10 932v10h393v-10l-122 -10l311 -859l299 859l-160 10v10h316v-10l-134 -10l-313 -885l-100 -68l-365 953z" />
<glyph unicode="w" horiz-adv-x="1652" d="M10 932v10h393v-10l-122 -10l303 -856l229 684l-63 172l-125 10v10h393v-10l-125 -10l305 -856l287 856l-160 10v10h317v-10l-133 -10l-303 -887l-102 -66l-281 750l-231 -684l-103 -66l-354 953z" />
<glyph unicode="x" horiz-adv-x="1042" d="M20 0v10l164 10l305 414l-305 488l-118 10v10h350v-10l-72 -10l238 -381l262 381l-197 10v10h385v-10l-164 -10l-272 -400l313 -502l119 -10v-10h-350v10l72 10l-248 394l-291 -394l188 -10v-10h-379z" />
<glyph unicode="y" horiz-adv-x="1056" d="M10 932v10h393v-10l-122 -10l309 -832l295 832l-154 10v10h316v-10l-138 -10l-305 -856l-237 -547h-174v143h178l211 406l-107 -62l-340 916z" />
<glyph unicode="z" horiz-adv-x="882" d="M72 0v8l610 920h-420l-125 -271h-10v285h704v-10l-604 -918h461l119 265h10v-279h-745z" />
<glyph unicode="{" horiz-adv-x="671" d="M102 489q49 18 77 49t41 71t15.5 85t2.5 90v394q0 131 66.5 208.5t170.5 77.5h98v-10h-106q-27 0 -51.5 -11t-44 -37t-30.5 -70t-11 -107v-443q0 -72 -32 -143.5t-120 -116.5l152 -92v-670q0 -66 13 -108.5t34.5 -68t49.5 -37t56 -11.5h107v-10h-98q-113 0 -183.5 78 t-70.5 209v587z" />
<glyph unicode="|" horiz-adv-x="491" d="M225 -502v1972h41v-1972h-41z" />
<glyph unicode="}" horiz-adv-x="661" d="M72 1454v10h98q113 0 183.5 -77.5t70.5 -208.5v-568l135 -86q-49 -18 -76.5 -49t-41 -70.5t-15.5 -85t-2 -90.5v-413q0 -131 -66.5 -209t-171.5 -78h-98v10h107q27 0 51 11.5t43.5 37t31 68.5t11.5 108v463q0 35 7 72t24.5 72t46 64.5t73.5 51.5l-151 93v649 q0 63 -13.5 107t-35 70t-49 37t-56.5 11h-106z" />
<glyph unicode="~" horiz-adv-x="1368" d="M102 414l80 164l191 24l792 -108l90 151h11l-80 -153l-191 -35l-790 116l-92 -159h-11z" />
<glyph unicode="&#xa1;" horiz-adv-x="464" d="M154 891l12 67l100 9l37 -9l8 -79l-12 -64l-100 -6l-39 6zM156 -496l10 650l51 417h31l51 -415l10 -652h-153z" />
<glyph unicode="&#xa2;" horiz-adv-x="874" d="M82 438q0 117 36 208t95 156.5t136 105.5t159 59v139h20v-135q4 0 9.5 1t9.5 1q29 0 65.5 -9.5t72.5 -24.5t67.5 -33.5t52.5 -37.5v-155h-98l-89 209q-47 16 -96 16q-68 0 -126 -22.5t-102 -71.5t-68.5 -127t-24.5 -187q0 -96 25.5 -179t71.5 -145.5t110.5 -98 t142.5 -35.5q74 0 138.5 27.5t127.5 82.5l6 -8q-66 -63 -143.5 -113.5t-151.5 -87.5v-137h-20v133q-90 2 -168 35t-135.5 92.5t-90 145.5t-32.5 196z" />
<glyph unicode="&#xa3;" horiz-adv-x="1099" d="M82 0v10l188 21v712h-188v11h188v229q0 100 16.5 175t62.5 131.5t125 98.5t206 76q111 0 181.5 -26.5t109.5 -73.5v-289h-10l-91 244q-49 55 -95 79.5t-122 24.5q-127 0 -193.5 -79.5t-66.5 -237.5v-352h381v-11h-381v-450q0 -70 -3 -113t-10 -72.5t-21.5 -48 t-36.5 -39.5h569l117 297h10v-317h-936z" />
<glyph unicode="&#xa4;" d="M188 311l142 142q-45 53 -71 120.5t-26 143.5q0 78 29 148.5t78 123.5l-152 154l29 28l152 -153q53 47 122.5 75.5t147.5 28.5q76 0 143.5 -26.5t120.5 -73.5l150 149l28 -28l-149 -148q53 -53 82.5 -125.5t29.5 -152.5q0 -78 -27.5 -146.5t-74.5 -121.5l139 -138 l-28 -28l-138 137q-55 -51 -125.5 -80t-150.5 -29q-82 0 -154.5 30t-126.5 83l-141 -141zM274 717q0 -76 29 -142.5t78 -116.5t115.5 -80t142.5 -30q80 0 149.5 34t120.5 89l4 6q41 47 66 108.5t25 131.5q0 76 -29 142.5t-78 117.5t-115.5 80.5t-142.5 29.5t-142.5 -29.5 t-115.5 -80.5t-78 -117.5t-29 -142.5z" />
<glyph unicode="&#xa5;" horiz-adv-x="1361" d="M41 1423v11h514v-11l-193 -10l392 -792l385 792l-213 10v11h395v-11l-158 -10l-397 -813v-41h223v-10h-223v-182h223v-11h-223v-336l235 -10v-10h-614v10l236 10v336h-209v11h209v182h-209v10h209l-424 854z" />
<glyph unicode="&#xa6;" horiz-adv-x="491" d="M225 379h41v-881h-41v881zM225 590v880h41v-880h-41z" />
<glyph unicode="&#xa7;" horiz-adv-x="1024" d="M82 532q0 211 225 306q-59 61 -91 125.5t-32 146.5q0 139 97.5 228t281.5 126q104 0 180 -26.5t111 -73.5v-219h-10l-86 192q-33 41 -88.5 67t-139.5 26q-45 0 -89 -11.5t-77.5 -39t-54 -73.5t-20.5 -118q0 -53 19.5 -99.5t59.5 -94.5t103.5 -100t151.5 -116l319 -227 v-90q0 -76 -23.5 -133.5t-62.5 -100.5t-89 -72.5t-101 -50.5l153 -124v-91q0 -98 -34.5 -164.5t-88 -111.5t-118 -72t-123.5 -43q-80 0 -168 30t-150 64v263h10l95 -222q47 -37 104 -65.5t133 -28.5q100 0 171 71t71 218v35l-309 246q-76 59 -136.5 111t-103.5 102.5 t-66.5 101.5t-23.5 108zM186 614q0 -59 32 -112t79 -101.5t102.5 -90.5t102.5 -79l155 -120q37 14 70 38.5t59.5 60.5t42 83t15.5 106v31l-312 225q-66 47 -121 90t-98 84q-53 -18 -90 -70t-37 -145z" />
<glyph unicode="&#xa8;" horiz-adv-x="1024" d="M262 1313l14 61l97 8l39 -8l8 -74l-14 -67l-99 -8l-37 8zM590 1313l14 61l96 8l39 -8l9 -74l-15 -67l-98 -8l-37 8z" />
<glyph unicode="&#xa9;" horiz-adv-x="1703" d="M102 729q0 162 53.5 288t152 217t236.5 148.5t306 81.5q150 -2 287 -53t239.5 -148.5t164 -237.5t61.5 -320q0 -162 -53.5 -288t-152 -217t-236.5 -148.5t-306 -82.5q-152 2 -288 53.5t-238.5 148.5t-164 237.5t-61.5 320.5zM197 729q0 -188 64.5 -325.5t162.5 -226.5 t213 -133t213 -44q129 0 249 47t210 138t144 222.5t54 297.5q0 186 -64.5 324t-162.5 227.5t-213 133.5t-213 44q-129 0 -249 -48.5t-210 -138.5t-144 -221t-54 -297zM430 700q0 199 126 312.5t335 132.5q94 0 164.5 -16.5t130.5 -45.5v-194h-12l-82 164q-35 33 -81 54 t-118 21q-63 0 -118.5 -25.5t-97.5 -76.5t-66.5 -128t-24.5 -179q0 -82 18.5 -157t57 -131t99 -90t144.5 -34q57 0 106.5 21.5t80.5 52.5l82 176h12v-197q-74 -29 -143.5 -47t-165.5 -26q-88 0 -169 26.5t-142.5 78.5t-98.5 130t-37 178z" />
<glyph unicode="&#xaa;" horiz-adv-x="839" d="M82 829q0 39 16.5 81t73.5 87l360 121v88q0 39 -3 75t-19 63.5t-52 44t-102 16.5q-29 0 -52 -4t-66 -17l-41 -172h-93v113l291 141q68 0 114 -12t77 -43q33 -33 40 -85t7 -118v-366q0 -43 9 -81t26 -79l98 14l2 -6l-205 -39l-28 152l-240 -168q-98 0 -155.5 51t-57.5 143 zM193 858q0 -66 35.5 -105.5t95.5 -39.5q43 0 84 20.5t67 38.5l57 41v297l-256 -98q-37 -29 -60 -65t-23 -89z" />
<glyph unicode="&#xab;" horiz-adv-x="823" d="M31 481l372 451h11l-271 -451l271 -450h-13zM379 481l373 451h10l-270 -451l270 -450h-12z" />
<glyph unicode="&#xac;" d="M109 686v41h1052v-360h-41v319h-1011z" />
<glyph unicode="&#xad;" horiz-adv-x="747" d="M61 547v41h625v-41h-625z" />
<glyph unicode="&#xae;" horiz-adv-x="1212" d="M92 899q0 111 37 197t104.5 148.5t161.5 102t209 56.5q104 0 197.5 -36t164 -101.5t112.5 -162.5t42 -220q0 -111 -36.5 -197t-104.5 -148.5t-162 -102.5t-209 -56q-104 0 -197.5 36t-164 102.5t-112.5 162.5t-42 219zM178 899q0 -127 42 -220t106.5 -154.5t138 -91.5 t139.5 -30q86 0 164 33t137.5 94.5t94 150.5t34.5 202q0 127 -42 220t-106.5 154.5t-139 91t-138.5 29.5q-86 0 -163.5 -32.5t-137 -94t-94.5 -150.5t-35 -202zM352 618v9l68 4v528l-68 4v8h277q33 0 65.5 -7t58 -23.5t41 -42t15.5 -62.5q0 -74 -66.5 -108.5t-164.5 -44.5 l112 -23l152 -229l43 -4v-9h-140l-170 265h-63v-252l66 -4v-9h-226zM512 893h49q72 0 109 37t37 100t-34 98t-85 35l-76 -4v-266z" />
<glyph unicode="&#xaf;" horiz-adv-x="1024" d="M225 1290v41h574v-41h-574z" />
<glyph unicode="&#xb0;" horiz-adv-x="874" d="M123 1229q0 63 21.5 112.5t61.5 86t99.5 64.5t132.5 50q63 0 120.5 -24.5t100.5 -67.5t68 -100.5t25 -120.5q0 -129 -74 -204t-240 -112q-66 0 -123 25t-100 68t-67.5 100t-24.5 123zM170 1229q0 -53 21.5 -102.5t58.5 -86t86 -58t102 -21.5q61 0 110.5 21.5t84.5 58 t53.5 86t18.5 102.5t-21.5 101t-58.5 85t-85 58.5t-102 21.5q-61 0 -110 -21.5t-85 -58.5t-54.5 -85t-18.5 -101z" />
<glyph unicode="&#xb1;" d="M96 786v41h508v516h41v-516h508v-41h-508v-497h-41v497h-508zM98 0v41h1076v-41h-1076z" />
<glyph unicode="&#xb2;" horiz-adv-x="679" d="M20 829l119 115q82 80 140.5 145.5t95.5 122t53 107.5t16 102q0 82 -41 124t-94 42q-29 0 -55.5 -5t-48.5 -13l-45 -170h-109v127l281 100q68 0 115 -16.5t77.5 -42t45 -60t14.5 -71.5q0 -59 -21.5 -111.5t-63.5 -104t-105.5 -104.5t-147.5 -115l-117 -81h489v-13 l-38 -88h-549z" />
<glyph unicode="&#xb3;" horiz-adv-x="604" d="M41 1421v113l287 92q49 0 82.5 -13.5t55 -32.5t31 -44t9.5 -47q0 -53 -46 -104.5t-175 -94.5q115 -4 181 -55t66 -121q0 -72 -51 -122t-153 -97l-176 -78h-109v98h285q37 33 58.5 67t21.5 81q0 66 -59.5 116t-176.5 50l-2 12l63 33q49 23 78 44t44.5 44.5t20.5 47.5t5 48 q0 57 -33 92t-82 35q-23 0 -44 -6t-36 -12l-45 -146h-100z" />
<glyph unicode="&#xb4;" horiz-adv-x="1024" d="M305 1110l133 354h148l-271 -354h-10z" />
<glyph unicode="&#xb5;" d="M207 -471v1413h123v-688q0 -111 36.5 -155t98.5 -44q27 0 50.5 5.5t47 15.5t49 25.5t58.5 33.5l114 68v739h123v-922l154 -10v-10h-193l-84 152v36l-352 -219q-61 0 -99 14.5t-59 30.5q-16 14 -27 29.5t-20 38.5v-143l154 -410h-174z" />
<glyph unicode="&#xb6;" horiz-adv-x="931" d="M61 1104q0 49 24 93t63.5 84t94 77t115.5 76h492v-11l-105 -10v-1739h-40v1739h-308v-1739h-41v1166q-61 0 -115.5 18.5t-94.5 52t-62.5 82.5t-22.5 111z" />
<glyph unicode="&#xb7;" horiz-adv-x="415" d="M113 836l14 77l121 9l47 -9l8 -90l-14 -84l-123 -8l-45 8z" />
<glyph unicode="&#xb8;" horiz-adv-x="1024" d="M369 -492l43 62h151q35 23 53.5 62.5t18.5 80.5q0 61 -44 90t-99 33l96 152h12l-59 -97q66 -4 118 -41.5t52 -107.5q0 -39 -15.5 -67.5t-38 -50t-50 -37t-52.5 -25.5l-139 -54h-47z" />
<glyph unicode="&#xb9;" horiz-adv-x="520" d="M41 1509l283 107h12v-778l174 -7v-12h-463v12l172 7v721l-174 -60z" />
<glyph unicode="&#xba;" horiz-adv-x="872" d="M72 1040q0 184 100 285.5t281 140.5q78 0 141 -29.5t109.5 -81.5t72 -124t25.5 -156q0 -184 -100.5 -286.5t-282.5 -139.5q-78 0 -141.5 30t-109.5 82t-70.5 123.5t-24.5 155.5zM182 1075q0 -80 19.5 -152.5t56.5 -127t87 -86t112 -31.5q57 0 101 27.5t72.5 76.5t44 115 t15.5 143q0 90 -20.5 163t-57.5 124t-88 79t-110 28q-57 0 -100.5 -27t-73 -75t-44 -113.5t-14.5 -143.5z" />
<glyph unicode="&#xbb;" horiz-adv-x="823" d="M61 31l271 450l-271 451h11l372 -451l-370 -450h-13zM410 31l270 450l-270 451h10l373 -451l-371 -450h-12z" />
<glyph unicode="&#xbc;" horiz-adv-x="1560" d="M61 1335l283 107h12v-778l174 -7v-12h-462v12l172 7v720l-174 -59zM336 -102l792 1556h50l-789 -1556h-53zM866 270l371 518h149v-10l-497 -506h328v197l116 61v-258h166v-16h-166v-256h-116v256h-340z" />
<glyph unicode="&#xbd;" horiz-adv-x="1622" d="M61 1335l283 107h12v-778l174 -7v-12h-462v12l172 7v720l-174 -59zM336 -102l792 1556h50l-789 -1556h-53zM963 10l118 115q82 80 140.5 145.5t95.5 122t53 107.5t16 102q0 82 -40.5 124t-94.5 42q-29 0 -55.5 -5t-48.5 -13l-45 -170h-109v127l281 100q68 0 115 -16.5 t77.5 -42t45 -60.5t14.5 -72q0 -59 -21.5 -111t-63.5 -103.5t-105.5 -104.5t-147.5 -115l-117 -82h490v-12l-39 -88h-549z" />
<glyph unicode="&#xbe;" horiz-adv-x="1562" d="M61 1247v113l287 92q49 0 83 -13.5t55.5 -33t30.5 -44t9 -46.5q0 -53 -46 -104.5t-175 -94.5q115 -4 181.5 -55t66.5 -121q0 -72 -51 -122t-154 -97l-176 -78h-109v98h285q37 33 58.5 67t21.5 81q0 66 -59.5 116t-175.5 50l-3 12l64 33q49 23 77.5 44t44 44.5t20.5 47.5 t5 48q0 57 -32.5 92t-81.5 35q-23 0 -44.5 -6t-35.5 -12l-45 -146h-101zM338 -102l792 1556h50l-789 -1556h-53zM868 270l371 518h150v-10l-498 -506h328v197l116 61v-258h166v-16h-166v-256h-116v256h-340z" />
<glyph unicode="&#xbf;" horiz-adv-x="741" d="M41 -201q0 115 54.5 197t164.5 149l148 78v291h51l24 -256l-88 -65q-59 -45 -100 -86t-68.5 -85.5t-40 -97.5t-12.5 -121q0 -55 13.5 -106t46 -91t85 -64.5t132.5 -28.5l59 223h108v-205l-167 -31q-111 0 -189 29t-127 73t-71.5 96t-22.5 101zM352 887l13 67l100 9l37 -9 l8 -80l-12 -63l-101 -6l-39 6z" />
<glyph unicode="&#xc0;" horiz-adv-x="1417" d="M10 0v10l168 10l496 1379l82 55l487 -1434l164 -10v-10h-502v8l180 12l-170 510h-532l-180 -510l184 -12v-8h-377zM391 551h518l-250 752zM463 1843h158l96 -272h-10z" />
<glyph unicode="&#xc1;" horiz-adv-x="1417" d="M10 0v10l168 10l496 1379l82 55l487 -1434l164 -10v-10h-502v8l180 12l-170 510h-532l-180 -510l184 -12v-8h-377zM391 551h518l-250 752zM735 1571l96 272h158l-244 -272h-10z" />
<glyph unicode="&#xc2;" horiz-adv-x="1417" d="M10 0v10l168 10l496 1379l82 55l487 -1434l164 -10v-10h-502v8l180 12l-170 510h-532l-180 -510l184 -12v-8h-377zM391 551h518l-250 752zM453 1571l258 289h8l260 -289h-10l-252 180h-4l-250 -180h-10z" />
<glyph unicode="&#xc3;" horiz-adv-x="1417" d="M10 0v10l168 10l496 1379l82 55l487 -1434l164 -10v-10h-502v8l180 12l-170 510h-532l-180 -510l184 -12v-8h-377zM391 551h518l-250 752zM424 1579l49 195l129 45l402 -179l55 185h10l-49 -195l-129 -45l-402 180l-55 -186h-10z" />
<glyph unicode="&#xc4;" horiz-adv-x="1417" d="M10 0v10l168 10l496 1379l82 55l487 -1434l164 -10v-10h-502v8l180 12l-170 510h-532l-180 -510l184 -12v-8h-377zM391 551h518l-250 752zM416 1724l14 62l96 8l39 -8l8 -74l-14 -67l-98 -9l-37 9zM850 1724l14 62l97 8l38 -8l9 -74l-15 -67l-98 -9l-37 9z" />
<glyph unicode="&#xc5;" horiz-adv-x="1417" d="M10 0v10l168 10l496 1379l82 55l487 -1434l164 -10v-10h-502v8l180 12l-170 510h-532l-180 -510l184 -12v-8h-377zM391 551h518l-250 752zM508 1679q0 47 16.5 78t44 51.5t63.5 35t77 30.5q37 0 73.5 -10.5t65.5 -33t46 -58t17 -84.5q0 -47 -16 -78t-45 -51.5t-65.5 -36 t-75.5 -29.5q-37 0 -74 10t-64.5 33t-45 58.5t-17.5 84.5zM559 1683q0 -72 41 -114.5t109 -42.5t109.5 43t41.5 114q0 72 -42 115t-109 43q-68 0 -109 -43t-41 -115z" />
<glyph unicode="&#xc6;" horiz-adv-x="1925" d="M10 0v10l168 10l852 1414h825v-361h-10l-125 340h-544v-713h303l82 234h10v-485h-10l-82 231h-303v-660h563l125 349h10v-369h-1030v10l188 10v660h-430l-397 -660l184 -12v-8h-379zM614 700h418v705z" />
<glyph unicode="&#xc7;" horiz-adv-x="1359" d="M82 694q0 170 52 306.5t146.5 234.5t224.5 156.5t283 72.5q143 0 261 -30.5t208 -77.5v-307h-10l-104 251q-31 29 -65 55.5t-77 46t-97 31t-124 11.5q-106 0 -203.5 -45t-171 -135t-116.5 -225.5t-43 -315.5q0 -137 31.5 -268t99 -232.5t175 -164t259.5 -62.5 q102 0 190.5 44t141.5 97l104 275h10v-308q-111 -53 -223 -85.5t-262 -49.5l-49 -78q66 -4 118 -41.5t52 -107.5q0 -39 -15.5 -67.5t-38 -50t-50 -37t-52.5 -25.5l-139 -54h-47l43 62h151q35 23 53.5 62.5t18.5 80.5q0 61 -44 90t-99 33l84 133q-133 2 -255 51.5t-215 141.5 t-149.5 226t-56.5 306z" />
<glyph unicode="&#xc8;" horiz-adv-x="1226" d="M61 0v10l189 10v1393l-189 10v11h1086v-361h-10l-125 340h-619v-653h377l82 233h10v-485h-10l-82 231h-377v-719h637l125 349h10v-369h-1104zM442 1843h158l96 -272h-10z" />
<glyph unicode="&#xc9;" horiz-adv-x="1226" d="M61 0v10l189 10v1393l-189 10v11h1086v-361h-10l-125 340h-619v-653h377l82 233h10v-485h-10l-82 231h-377v-719h637l125 349h10v-369h-1104zM653 1571l97 272h157l-243 -272h-11z" />
<glyph unicode="&#xca;" horiz-adv-x="1226" d="M61 0v10l189 10v1393l-189 10v11h1086v-361h-10l-125 340h-619v-653h377l82 233h10v-485h-10l-82 231h-377v-719h637l125 349h10v-369h-1104zM438 1571l258 289h9l260 -289h-11l-252 180h-4l-249 -180h-11z" />
<glyph unicode="&#xcb;" horiz-adv-x="1226" d="M61 0v10l189 10v1393l-189 10v11h1086v-361h-10l-125 340h-619v-653h377l82 233h10v-485h-10l-82 231h-377v-719h637l125 349h10v-369h-1104zM406 1724l14 62l96 8l39 -8l8 -74l-14 -67l-98 -9l-37 9zM840 1724l14 62l96 8l39 -8l8 -74l-14 -67l-98 -9l-37 9z" />
<glyph unicode="&#xcc;" horiz-adv-x="643" d="M61 0v10l189 10v1393l-189 10v11h521v-11l-189 -10v-1393l189 -10v-10h-521zM125 1843h158l96 -272h-10z" />
<glyph unicode="&#xcd;" horiz-adv-x="643" d="M61 0v10l189 10v1393l-189 10v11h521v-11l-189 -10v-1393l189 -10v-10h-521zM324 1571l96 272h158l-244 -272h-10z" />
<glyph unicode="&#xce;" horiz-adv-x="643" d="M59 1571l258 289h9l260 -289h-11l-251 180h-5l-249 -180h-11zM61 0v10l189 10v1393l-189 10v11h521v-11l-189 -10v-1393l189 -10v-10h-521z" />
<glyph unicode="&#xcf;" horiz-adv-x="643" d="M37 1724l14 62l96 8l39 -8l9 -74l-15 -67l-98 -9l-37 9zM61 0v10l189 10v1393l-189 10v11h521v-11l-189 -10v-1393l189 -10v-10h-521zM471 1724l14 62l97 8l39 -8l8 -74l-15 -67l-98 -9l-37 9z" />
<glyph unicode="&#xd0;" horiz-adv-x="1470" d="M61 0v10l209 10v725h-188v11h188v657l-209 10v11h633q154 0 282 -46.5t220 -134.5t142.5 -217t50.5 -297q0 -158 -45.5 -293t-132.5 -234t-216 -155.5t-297 -56.5h-637zM414 20l295 -10q115 0 210 51.5t162.5 145.5t105.5 227t38 297q0 154 -31 281t-97.5 219t-170 142 t-248.5 50l-264 -10v-657h303v-11h-303v-725z" />
<glyph unicode="&#xd1;" horiz-adv-x="1423" d="M61 0v10l189 10v1393l-189 10v11h353l780 -1239v1218l-186 10v11h395v-11l-189 -10v-1423h-61l-883 1407v-1377l189 -10v-10h-398zM479 1579l49 195l129 45l402 -179l55 185h10l-49 -195l-129 -45l-401 180l-56 -186h-10z" />
<glyph unicode="&#xd2;" horiz-adv-x="1540" d="M82 688q0 326 176 529.5t530 246.5q147 0 270.5 -56t212.5 -153.5t138 -228.5t49 -281q0 -326 -176 -529.5t-532 -246.5q-145 0 -268.5 56.5t-212.5 153.5t-138 228.5t-49 280.5zM246 743q0 -158 43 -293t118.5 -233t179 -154.5t226.5 -56.5q111 0 200 50t151.5 141.5 t96 216.5t33.5 276q0 158 -43 293t-118.5 233.5t-179 154.5t-226.5 56q-111 0 -200 -50t-151.5 -141t-96 -217t-33.5 -276zM575 1843h158l96 -272h-10z" />
<glyph unicode="&#xd3;" horiz-adv-x="1540" d="M82 688q0 326 176 529.5t530 246.5q147 0 270.5 -56t212.5 -153.5t138 -228.5t49 -281q0 -326 -176 -529.5t-532 -246.5q-145 0 -268.5 56.5t-212.5 153.5t-138 228.5t-49 280.5zM246 743q0 -158 43 -293t118.5 -233t179 -154.5t226.5 -56.5q111 0 200 50t151.5 141.5 t96 216.5t33.5 276q0 158 -43 293t-118.5 233.5t-179 154.5t-226.5 56q-111 0 -200 -50t-151.5 -141t-96 -217t-33.5 -276zM733 1571l96 272h158l-244 -272h-10z" />
<glyph unicode="&#xd4;" horiz-adv-x="1540" d="M82 688q0 326 176 529.5t530 246.5q147 0 270.5 -56t212.5 -153.5t138 -228.5t49 -281q0 -326 -176 -529.5t-532 -246.5q-145 0 -268.5 56.5t-212.5 153.5t-138 228.5t-49 280.5zM246 743q0 -158 43 -293t118.5 -233t179 -154.5t226.5 -56.5q111 0 200 50t151.5 141.5 t96 216.5t33.5 276q0 158 -43 293t-118.5 233.5t-179 154.5t-226.5 56q-111 0 -200 -50t-151.5 -141t-96 -217t-33.5 -276zM500 1571l258 289h8l260 -289h-10l-252 180h-4l-250 -180h-10z" />
<glyph unicode="&#xd5;" horiz-adv-x="1540" d="M82 688q0 326 176 529.5t530 246.5q147 0 270.5 -56t212.5 -153.5t138 -228.5t49 -281q0 -326 -176 -529.5t-532 -246.5q-145 0 -268.5 56.5t-212.5 153.5t-138 228.5t-49 280.5zM246 743q0 -158 43 -293t118.5 -233t179 -154.5t226.5 -56.5q111 0 200 50t151.5 141.5 t96 216.5t33.5 276q0 158 -43 293t-118.5 233.5t-179 154.5t-226.5 56q-111 0 -200 -50t-151.5 -141t-96 -217t-33.5 -276zM477 1579l49 195l129 45l402 -179l55 185h10l-49 -195l-129 -45l-401 180l-56 -186h-10z" />
<glyph unicode="&#xd6;" horiz-adv-x="1540" d="M82 688q0 326 176 529.5t530 246.5q147 0 270.5 -56t212.5 -153.5t138 -228.5t49 -281q0 -326 -176 -529.5t-532 -246.5q-145 0 -268.5 56.5t-212.5 153.5t-138 228.5t-49 280.5zM246 743q0 -158 43 -293t118.5 -233t179 -154.5t226.5 -56.5q111 0 200 50t151.5 141.5 t96 216.5t33.5 276q0 158 -43 293t-118.5 233.5t-179 154.5t-226.5 56q-111 0 -200 -50t-151.5 -141t-96 -217t-33.5 -276zM487 1724l15 62l96 8l39 -8l8 -74l-14 -67l-99 -9l-36 9zM922 1724l14 62l96 8l39 -8l8 -74l-14 -67l-98 -9l-37 9z" />
<glyph unicode="&#xd7;" d="M231 94l373 375l-373 375l29 28l375 -374l371 372l28 -28l-370 -373l374 -373l-28 -28l-375 372l-375 -374z" />
<glyph unicode="&#xd8;" horiz-adv-x="1540" d="M82 688q0 326 176 529.5t530 246.5q129 0 239 -43t196 -121l127 164h20l-135 -176q104 -98 163.5 -238.5t59.5 -304.5q0 -326 -176 -529.5t-532 -246.5q-123 0 -228.5 40t-191.5 112l-117 -152h-25l127 164q-111 100 -172 243.5t-61 311.5zM246 743q0 -154 39 -282.5 t108 -227.5l752 967q-78 106 -184.5 166.5t-233.5 60.5q-111 0 -200 -50t-151.5 -141t-96 -217t-33.5 -276zM406 219q78 -100 181 -156.5t226 -56.5q111 0 200 50t151.5 141.5t96 216.5t33.5 276q0 147 -36.5 272t-102.5 224z" />
<glyph unicode="&#xd9;" horiz-adv-x="1359" d="M20 1423v11h519v-11l-189 -10v-924q0 -96 24.5 -180t76 -146.5t127 -99t178.5 -36.5q84 0 151.5 36.5t114.5 99t72.5 146.5t25.5 180v924l-188 10v11h407v-11l-188 -10v-917q0 -98 -20.5 -185.5t-71.5 -157t-139.5 -116.5t-223.5 -68q-137 0 -230 40t-150.5 110.5 t-83 170t-25.5 220.5v903zM524 1843h158l96 -272h-10z" />
<glyph unicode="&#xda;" horiz-adv-x="1359" d="M20 1423v11h519v-11l-189 -10v-924q0 -96 24.5 -180t76 -146.5t127 -99t178.5 -36.5q84 0 151.5 36.5t114.5 99t72.5 146.5t25.5 180v924l-188 10v11h407v-11l-188 -10v-917q0 -98 -20.5 -185.5t-71.5 -157t-139.5 -116.5t-223.5 -68q-137 0 -230 40t-150.5 110.5 t-83 170t-25.5 220.5v903zM702 1571l97 272h157l-243 -272h-11z" />
<glyph unicode="&#xdb;" horiz-adv-x="1359" d="M20 1423v11h519v-11l-189 -10v-924q0 -96 24.5 -180t76 -146.5t127 -99t178.5 -36.5q84 0 151.5 36.5t114.5 99t72.5 146.5t25.5 180v924l-188 10v11h407v-11l-188 -10v-917q0 -98 -20.5 -185.5t-71.5 -157t-139.5 -116.5t-223.5 -68q-137 0 -230 40t-150.5 110.5 t-83 170t-25.5 220.5v903zM481 1571l258 289h9l260 -289h-11l-252 180h-4l-249 -180h-11z" />
<glyph unicode="&#xdc;" horiz-adv-x="1359" d="M20 1423v11h519v-11l-189 -10v-924q0 -96 24.5 -180t76 -146.5t127 -99t178.5 -36.5q84 0 151.5 36.5t114.5 99t72.5 146.5t25.5 180v924l-188 10v11h407v-11l-188 -10v-917q0 -98 -20.5 -185.5t-71.5 -157t-139.5 -116.5t-223.5 -68q-137 0 -230 40t-150.5 110.5 t-83 170t-25.5 220.5v903zM446 1724l15 62l96 8l39 -8l8 -74l-14 -67l-98 -9l-37 9zM881 1724l14 62l96 8l39 -8l8 -74l-14 -67l-98 -9l-37 9z" />
<glyph unicode="&#xdd;" horiz-adv-x="1390" d="M10 1423v11h514v-11l-192 -10l434 -792l432 792l-213 10v11h395v-11l-157 -10l-443 -813v-580l236 -10v-10h-615v10l236 10v539l-469 854zM737 1571l97 272h157l-243 -272h-11z" />
<glyph unicode="&#xde;" horiz-adv-x="1163" d="M61 0v10l189 10v1393l-189 10v11h543v-11l-211 -10v-289h301q92 0 173 -23.5t139.5 -70.5t92.5 -115.5t34 -156.5q0 -98 -42 -168t-110 -118t-155 -79t-175 -51h-258v-322l209 -10v-10h-541zM393 362h203q82 0 150.5 30t117.5 80t77 120t28 149q0 72 -18.5 137.5 t-58.5 115.5t-104.5 80t-156.5 30h-238v-742z" />
<glyph unicode="&#xdf;" horiz-adv-x="1093" d="M51 0v10l144 10v902h-144v10l144 10v62q0 51 9 109t35.5 113.5t71.5 103.5t117 79l147 61q80 0 146.5 -18t116 -53t77 -85t27.5 -116q0 -59 -23.5 -115.5t-66.5 -102.5t-104.5 -81t-137.5 -53q6 -31 16.5 -55.5t29 -48t47 -49t69.5 -56.5l133 -107q72 -57 110 -109 t38 -130q0 -53 -27 -105.5t-72 -95.5t-104 -76t-127 -45q-78 0 -154.5 27t-134.5 57v252h10l95 -201q41 -35 97 -64.5t128 -29.5q96 0 141 60.5t45 140.5q0 70 -35.5 121t-107.5 108l-125 101q-41 31 -72.5 60.5t-55.5 60t-38 66.5t-18 83l127 55q78 35 131 114t53 198 q0 43 -12.5 88t-40 82.5t-72.5 62.5t-109 25q-123 0 -190.5 -87t-67.5 -264v-1085h-266z" />
<glyph unicode="&#xe0;" horiz-adv-x="899" d="M61 203q0 47 20.5 98t88.5 105l434 147v104q0 47 -4 91.5t-23.5 78t-62.5 53t-121 19.5q-35 0 -63.5 -6t-79.5 -21l-51 -206h-111v137l350 170q84 0 139.5 -15.5t92.5 -52.5q39 -39 48 -101.5t9 -141.5v-443q0 -53 11.5 -99t29.5 -93l119 16l2 -8l-246 -45l-37 182 l-287 -203q-121 0 -189.5 61.5t-68.5 172.5zM195 238q0 -78 44 -126.5t113 -48.5q53 0 102.5 25t82.5 47l67 49v359l-307 -119q-45 -35 -73.5 -79t-28.5 -107zM274 1464h148l133 -354h-10z" />
<glyph unicode="&#xe1;" horiz-adv-x="899" d="M61 203q0 47 20.5 98t88.5 105l434 147v104q0 47 -4 91.5t-23.5 78t-62.5 53t-121 19.5q-35 0 -63.5 -6t-79.5 -21l-51 -206h-111v137l350 170q84 0 139.5 -15.5t92.5 -52.5q39 -39 48 -101.5t9 -141.5v-443q0 -53 11.5 -99t29.5 -93l119 16l2 -8l-246 -45l-37 182 l-287 -203q-121 0 -189.5 61.5t-68.5 172.5zM195 238q0 -78 44 -126.5t113 -48.5q53 0 102.5 25t82.5 47l67 49v359l-307 -119q-45 -35 -73.5 -79t-28.5 -107zM383 1110l133 354h148l-271 -354h-10z" />
<glyph unicode="&#xe2;" horiz-adv-x="899" d="M61 203q0 47 20.5 98t88.5 105l434 147v104q0 47 -4 91.5t-23.5 78t-62.5 53t-121 19.5q-35 0 -63.5 -6t-79.5 -21l-51 -206h-111v137l350 170q84 0 139.5 -15.5t92.5 -52.5q39 -39 48 -101.5t9 -141.5v-443q0 -53 11.5 -99t29.5 -93l119 16l2 -8l-246 -45l-37 182 l-287 -203q-121 0 -189.5 61.5t-68.5 172.5zM156 1110l258 379h8l260 -379h-10l-252 236h-4l-250 -236h-10zM195 238q0 -78 44 -126.5t113 -48.5q53 0 102.5 25t82.5 47l67 49v359l-307 -119q-45 -35 -73.5 -79t-28.5 -107z" />
<glyph unicode="&#xe3;" horiz-adv-x="899" d="M61 203q0 47 20.5 98t88.5 105l434 147v104q0 47 -4 91.5t-23.5 78t-62.5 53t-121 19.5q-35 0 -63.5 -6t-79.5 -21l-51 -206h-111v137l350 170q84 0 139.5 -15.5t92.5 -52.5q39 -39 48 -101.5t9 -141.5v-443q0 -53 11.5 -99t29.5 -93l119 16l2 -8l-246 -45l-37 182 l-287 -203q-121 0 -189.5 61.5t-68.5 172.5zM104 1190l50 194l129 46l401 -179l55 185h11l-50 -195l-129 -45l-401 180l-55 -186h-11zM195 238q0 -78 44 -126.5t113 -48.5q53 0 102.5 25t82.5 47l67 49v359l-307 -119q-45 -35 -73.5 -79t-28.5 -107z" />
<glyph unicode="&#xe4;" horiz-adv-x="899" d="M61 203q0 47 20.5 98t88.5 105l434 147v104q0 47 -4 91.5t-23.5 78t-62.5 53t-121 19.5q-35 0 -63.5 -6t-79.5 -21l-51 -206h-111v137l350 170q84 0 139.5 -15.5t92.5 -52.5q39 -39 48 -101.5t9 -141.5v-443q0 -53 11.5 -99t29.5 -93l119 16l2 -8l-246 -45l-37 182 l-287 -203q-121 0 -189.5 61.5t-68.5 172.5zM174 1313l14 61l97 8l39 -8l8 -74l-15 -67l-98 -8l-37 8zM195 238q0 -78 44 -126.5t113 -48.5q53 0 102.5 25t82.5 47l67 49v359l-307 -119q-45 -35 -73.5 -79t-28.5 -107zM502 1313l14 61l96 8l39 -8l8 -74l-14 -67l-98 -8 l-37 8z" />
<glyph unicode="&#xe5;" horiz-adv-x="899" d="M61 203q0 47 20.5 98t88.5 105l434 147v104q0 47 -4 91.5t-23.5 78t-62.5 53t-121 19.5q-35 0 -63.5 -6t-79.5 -21l-51 -206h-111v137l350 170q84 0 139.5 -15.5t92.5 -52.5q39 -39 48 -101.5t9 -141.5v-443q0 -53 11.5 -99t29.5 -93l119 16l2 -8l-246 -45l-37 182 l-287 -203q-121 0 -189.5 61.5t-68.5 172.5zM195 238q0 -78 44 -126.5t113 -48.5q53 0 102.5 25t82.5 47l67 49v359l-307 -119q-45 -35 -73.5 -79t-28.5 -107zM217 1290q0 47 16.5 78t44 51.5t63.5 34.5t77 31q37 0 73.5 -10.5t65.5 -33t46.5 -58.5t17.5 -85 q0 -47 -16.5 -77.5t-45.5 -51t-65.5 -36t-75.5 -29.5q-37 0 -74 10t-64.5 32.5t-45 58.5t-17.5 85zM268 1294q0 -72 41 -114.5t109 -42.5t109.5 43t41.5 114q0 72 -42 115t-109 43q-68 0 -109 -43t-41 -115z" />
<glyph unicode="&#xe6;" horiz-adv-x="1427" d="M61 203q0 47 20.5 98t88.5 105l420 147v104q0 45 -3 88t-20.5 77t-55.5 55.5t-108 21.5q-25 0 -41 -1t-31.5 -4t-32.5 -8t-44 -14l-51 -206h-111v137l342 170q66 0 113 -7.5t79.5 -26.5t51 -55t27.5 -93q63 76 149 116.5t180 65.5q86 0 145.5 -29t94.5 -78t50 -116.5 t15 -145.5v-53h-604q-2 -12 -2 -25.5v-27.5q0 -109 25.5 -189t70.5 -133t106.5 -78.5t135.5 -25.5q70 0 142.5 29.5t134.5 70.5l8 -12q-45 -35 -84 -60.5t-78 -48t-81 -42t-93 -40.5q-125 0 -234.5 57.5t-162.5 186.5l-304 -244q-121 0 -189.5 61.5t-68.5 172.5zM195 240 q0 -80 43.5 -128.5t111.5 -48.5q51 0 90 26t82 61l96 75q-29 80 -28 181v137l-293 -119q-45 -35 -73.5 -79t-28.5 -105zM735 561h461q0 74 -8 140.5t-30.5 116.5t-63.5 81t-109 31q-66 0 -111 -28t-74.5 -77t-45 -116.5t-19.5 -147.5z" />
<glyph unicode="&#xe7;" horiz-adv-x="864" d="M72 438q0 125 40 219.5t105.5 160t148.5 104.5t171 51q29 0 65.5 -9.5t72.5 -24.5t67.5 -33.5t52.5 -37.5v-155h-99l-88 209q-47 16 -96 16q-68 0 -126 -22.5t-102 -71.5t-69 -127t-25 -187q0 -96 26 -179t72 -145.5t110.5 -98t142.5 -35.5q74 0 138 27.5t128 82.5l6 -8 q-66 -63 -144.5 -113.5t-158.5 -91.5l-49 -78q66 -4 118 -41.5t52 -107.5q0 -39 -15.5 -67.5t-38 -50t-50 -37t-52.5 -25.5l-139 -54h-47l43 62h151q35 23 53.5 62.5t18.5 80.5q0 61 -44 90t-99 33l84 133q-90 2 -168 35t-134.5 93.5t-89 146.5t-32.5 194z" />
<glyph unicode="&#xe8;" horiz-adv-x="917" d="M72 436q0 119 33.5 211t92 157.5t135.5 106.5t163 62q96 0 160.5 -29t103.5 -78t55 -116.5t16 -145.5v-43h-641v-53q0 -102 29 -183t80 -137.5t122 -86t152 -29.5q68 0 137.5 29.5t129.5 70.5l6 -6q-43 -35 -81 -61.5t-76 -50t-78 -44.5t-89 -41q-86 0 -167 29t-143 87 t-101 146t-39 205zM193 571h495q0 74 -9 138.5t-33.5 113.5t-69.5 78t-119 29q-63 0 -111.5 -26.5t-80.5 -75t-50 -114t-22 -143.5zM260 1464h148l133 -354h-11z" />
<glyph unicode="&#xe9;" horiz-adv-x="917" d="M72 436q0 119 33.5 211t92 157.5t135.5 106.5t163 62q96 0 160.5 -29t103.5 -78t55 -116.5t16 -145.5v-43h-641v-53q0 -102 29 -183t80 -137.5t122 -86t152 -29.5q68 0 137.5 29.5t129.5 70.5l6 -6q-43 -35 -81 -61.5t-76 -50t-78 -44.5t-89 -41q-86 0 -167 29t-143 87 t-101 146t-39 205zM193 571h495q0 74 -9 138.5t-33.5 113.5t-69.5 78t-119 29q-63 0 -111.5 -26.5t-80.5 -75t-50 -114t-22 -143.5zM444 1110l134 354h147l-270 -354h-11z" />
<glyph unicode="&#xea;" horiz-adv-x="917" d="M72 436q0 119 33.5 211t92 157.5t135.5 106.5t163 62q96 0 160.5 -29t103.5 -78t55 -116.5t16 -145.5v-43h-641v-53q0 -102 29 -183t80 -137.5t122 -86t152 -29.5q68 0 137.5 29.5t129.5 70.5l6 -6q-43 -35 -81 -61.5t-76 -50t-78 -44.5t-89 -41q-86 0 -167 29t-143 87 t-101 146t-39 205zM193 571h495q0 74 -9 138.5t-33.5 113.5t-69.5 78t-119 29q-63 0 -111.5 -26.5t-80.5 -75t-50 -114t-22 -143.5zM219 1110l258 379h8l260 -379h-10l-252 236h-4l-250 -236h-10z" />
<glyph unicode="&#xeb;" horiz-adv-x="917" d="M72 436q0 119 33.5 211t92 157.5t135.5 106.5t163 62q96 0 160.5 -29t103.5 -78t55 -116.5t16 -145.5v-43h-641v-53q0 -102 29 -183t80 -137.5t122 -86t152 -29.5q68 0 137.5 29.5t129.5 70.5l6 -6q-43 -35 -81 -61.5t-76 -50t-78 -44.5t-89 -41q-86 0 -167 29t-143 87 t-101 146t-39 205zM193 571h495q0 74 -9 138.5t-33.5 113.5t-69.5 78t-119 29q-63 0 -111.5 -26.5t-80.5 -75t-50 -114t-22 -143.5zM258 1313l14 61l97 8l39 -8l8 -74l-15 -67l-98 -8l-37 8zM586 1313l14 61l96 8l39 -8l8 -74l-14 -67l-98 -8l-37 8z" />
<glyph unicode="&#xec;" horiz-adv-x="520" d="M25 1464h147l133 -354h-10zM61 883l265 80h10v-943l143 -10v-10h-409v10l143 10v893l-150 -39z" />
<glyph unicode="&#xed;" horiz-adv-x="520" d="M61 883l265 80h10v-943l143 -10v-10h-409v10l143 10v893l-150 -39zM266 1110l133 354h148l-271 -354h-10z" />
<glyph unicode="&#xee;" horiz-adv-x="520" d="M4 1110l258 379h8l260 -379h-10l-252 236h-4l-250 -236h-10zM61 883l265 80h10v-943l143 -10v-10h-409v10l143 10v893l-150 -39z" />
<glyph unicode="&#xef;" horiz-adv-x="520" d="M20 1313l15 61l96 8l39 -8l8 -74l-14 -67l-98 -8l-37 8zM61 883l265 80h10v-943l143 -10v-10h-409v10l143 10v893l-150 -39zM348 1313l14 61l97 8l39 -8l8 -74l-14 -67l-99 -8l-37 8z" />
<glyph unicode="&#xf0;" horiz-adv-x="1001" d="M51 514q0 82 22.5 164t67.5 147.5t114 106.5t163 41l360 -209q-16 150 -75.5 286t-172.5 240l-280 -137v12l272 133q-61 53 -139 95.5t-174 70.5l4 11q98 -29 181 -70t153 -94l219 106v-12l-209 -102q94 -74 162.5 -166.5t114 -192.5t66 -204.5t20.5 -204.5 q0 -104 -27 -206t-79 -181.5t-130 -129t-178 -49.5q-127 31 -214 87.5t-140.5 129t-77 156.5t-23.5 172zM186 434q0 -217 64.5 -313t200.5 -96q80 0 142 54t105 142t64.5 199.5t21.5 224.5q0 27 -1 53.5t-3 53.5l-90 47q-78 45 -131 62.5t-117 17.5q-125 0 -190.5 -116 t-65.5 -329z" />
<glyph unicode="&#xf1;" horiz-adv-x="1136" d="M61 883l265 80h10v-224l377 234q61 0 98 -16.5t55 -32.5q18 -18 31.5 -37t21 -46.5t11.5 -68.5t4 -100v-652l168 -10v-10h-402v10l111 10v664q0 115 -37 155t-108 40q-33 0 -60.5 -7.5t-55.5 -19.5t-57.5 -30.5t-66.5 -41.5l-90 -53v-707l113 -10v-10h-379v10l143 10v893 l-150 -39zM285 1188l49 194l129 45l401 -178l56 185h10l-49 -195l-129 -45l-402 180l-55 -186h-10z" />
<glyph unicode="&#xf2;" horiz-adv-x="1038" d="M72 449q0 227 123.5 352t345.5 172q94 0 173 -37t135 -101.5t87 -151.5t31 -189q0 -227 -124 -353.5t-347 -171.5q-94 0 -172 37t-134.5 101.5t-87 151.5t-30.5 190zM207 494q0 -98 24.5 -187.5t68.5 -157t106.5 -106.5t138.5 -39q70 0 124 34t90 94.5t54 141t18 175.5 q0 111 -25.5 200.5t-70.5 152t-107 97.5t-136 35q-72 0 -125.5 -33t-88 -91t-53 -139t-18.5 -177zM313 1464h148l133 -354h-10z" />
<glyph unicode="&#xf3;" horiz-adv-x="1038" d="M72 449q0 227 123.5 352t345.5 172q94 0 173 -37t135 -101.5t87 -151.5t31 -189q0 -227 -124 -353.5t-347 -171.5q-94 0 -172 37t-134.5 101.5t-87 151.5t-30.5 190zM207 494q0 -98 24.5 -187.5t68.5 -157t106.5 -106.5t138.5 -39q70 0 124 34t90 94.5t54 141t18 175.5 q0 111 -25.5 200.5t-70.5 152t-107 97.5t-136 35q-72 0 -125.5 -33t-88 -91t-53 -139t-18.5 -177zM541 1110l133 354h147l-270 -354h-10z" />
<glyph unicode="&#xf4;" horiz-adv-x="1038" d="M72 449q0 227 123.5 352t345.5 172q94 0 173 -37t135 -101.5t87 -151.5t31 -189q0 -227 -124 -353.5t-347 -171.5q-94 0 -172 37t-134.5 101.5t-87 151.5t-30.5 190zM207 494q0 -98 24.5 -187.5t68.5 -157t106.5 -106.5t138.5 -39q70 0 124 34t90 94.5t54 141t18 175.5 q0 111 -25.5 200.5t-70.5 152t-107 97.5t-136 35q-72 0 -125.5 -33t-88 -91t-53 -139t-18.5 -177zM266 1110l258 379h8l261 -379h-11l-252 236h-4l-250 -236h-10z" />
<glyph unicode="&#xf5;" horiz-adv-x="1038" d="M72 449q0 227 123.5 352t345.5 172q94 0 173 -37t135 -101.5t87 -151.5t31 -189q0 -227 -124 -353.5t-347 -171.5q-94 0 -172 37t-134.5 101.5t-87 151.5t-30.5 190zM207 494q0 -98 24.5 -187.5t68.5 -157t106.5 -106.5t138.5 -39q70 0 124 34t90 94.5t54 141t18 175.5 q0 111 -25.5 200.5t-70.5 152t-107 97.5t-136 35q-72 0 -125.5 -33t-88 -91t-53 -139t-18.5 -177zM213 1188l49 194l129 45l402 -178l55 185h10l-49 -195l-129 -45l-401 180l-56 -186h-10z" />
<glyph unicode="&#xf6;" horiz-adv-x="1038" d="M72 449q0 227 123.5 352t345.5 172q94 0 173 -37t135 -101.5t87 -151.5t31 -189q0 -227 -124 -353.5t-347 -171.5q-94 0 -172 37t-134.5 101.5t-87 151.5t-30.5 190zM207 494q0 -98 24.5 -187.5t68.5 -157t106.5 -106.5t138.5 -39q70 0 124 34t90 94.5t54 141t18 175.5 q0 111 -25.5 200.5t-70.5 152t-107 97.5t-136 35q-72 0 -125.5 -33t-88 -91t-53 -139t-18.5 -177zM272 1313l15 61l96 8l39 -8l8 -74l-14 -67l-99 -8l-36 8zM600 1313l14 61l97 8l39 -8l8 -74l-15 -67l-98 -8l-37 8z" />
<glyph unicode="&#xf7;" d="M96 481v41h1078v-41h-1078zM559 141l12 64l101 6l39 -6l6 -76l-12 -68l-101 -8l-37 8zM559 874l12 64l101 6l39 -6l6 -76l-12 -67l-101 -9l-37 9z" />
<glyph unicode="&#xf8;" horiz-adv-x="1038" d="M72 449q0 227 123.5 352t345.5 172q86 0 159.5 -31t126.5 -86l107 127h22l-116 -139q59 -66 93 -155t34 -195q0 -227 -124 -353.5t-347 -171.5q-88 0 -161 31t-128 86l-88 -106h-27l103 120q-59 66 -91 155t-32 194zM207 494q0 -84 16.5 -160t48.5 -139l484 575 q-47 78 -114.5 121t-149.5 43q-72 0 -125.5 -33t-88 -91t-53 -139t-18.5 -177zM283 176q45 -78 111.5 -125t150.5 -47q70 0 124 34t90 94.5t54 141.5t18 175q0 92 -17 168.5t-50 136.5z" />
<glyph unicode="&#xf9;" horiz-adv-x="1079" d="M20 907l267 45h10v-698q0 -111 37 -155t98 -44q55 0 98 19.5t107 60.5l115 68v715l-152 -21l-2 10l266 45h10v-698q0 -66 8.5 -117t22.5 -106l121 14l2 -10l-244 -45l-32 198l-353 -219q-61 0 -99 14.5t-58 30.5q-18 16 -31.5 36t-21 47.5t-11.5 68.5t-4 100v652 l-151 -21zM317 1464h148l133 -354h-10z" />
<glyph unicode="&#xfa;" horiz-adv-x="1079" d="M20 907l267 45h10v-698q0 -111 37 -155t98 -44q55 0 98 19.5t107 60.5l115 68v715l-152 -21l-2 10l266 45h10v-698q0 -66 8.5 -117t22.5 -106l121 14l2 -10l-244 -45l-32 198l-353 -219q-61 0 -99 14.5t-58 30.5q-18 16 -31.5 36t-21 47.5t-11.5 68.5t-4 100v652 l-151 -21zM471 1110l133 354h148l-271 -354h-10z" />
<glyph unicode="&#xfb;" horiz-adv-x="1079" d="M20 907l267 45h10v-698q0 -111 37 -155t98 -44q55 0 98 19.5t107 60.5l115 68v715l-152 -21l-2 10l266 45h10v-698q0 -66 8.5 -117t22.5 -106l121 14l2 -10l-244 -45l-32 198l-353 -219q-61 0 -99 14.5t-58 30.5q-18 16 -31.5 36t-21 47.5t-11.5 68.5t-4 100v652 l-151 -21zM264 1110l258 379h8l261 -379h-11l-252 236h-4l-250 -236h-10z" />
<glyph unicode="&#xfc;" horiz-adv-x="1079" d="M20 907l267 45h10v-698q0 -111 37 -155t98 -44q55 0 98 19.5t107 60.5l115 68v715l-152 -21l-2 10l266 45h10v-698q0 -66 8.5 -117t22.5 -106l121 14l2 -10l-244 -45l-32 198l-353 -219q-61 0 -99 14.5t-58 30.5q-18 16 -31.5 36t-21 47.5t-11.5 68.5t-4 100v652 l-151 -21zM276 1313l15 61l96 8l39 -8l8 -74l-14 -67l-98 -8l-37 8zM604 1313l14 61l97 8l39 -8l8 -74l-14 -67l-99 -8l-37 8z" />
<glyph unicode="&#xfd;" horiz-adv-x="1056" d="M10 932v10h393v-10l-122 -10l309 -832l295 832l-154 10v10h316v-10l-138 -10l-305 -856l-237 -547h-174v143h178l211 406l-107 -62l-340 916zM532 1110l134 354h147l-270 -354h-11z" />
<glyph unicode="&#xfe;" horiz-adv-x="1042" d="M31 1382l264 80h10v-692l305 203q80 0 146.5 -35t114 -94.5t74 -138t26.5 -166.5q0 -213 -114 -364.5t-349 -205.5q-53 0 -107.5 14.5t-95.5 49.5v-484l219 -10v-10h-489v10l147 10v1864l-149 -39zM305 113q31 -51 86 -85t131 -32q70 0 127.5 33.5t99.5 95t65.5 148.5 t23.5 196q0 82 -17.5 156.5t-52.5 131t-86 89.5t-117 33q-33 0 -58.5 -7.5t-49 -19.5t-49 -29.5t-58.5 -38.5l-45 -28v-643z" />
<glyph unicode="&#xff;" horiz-adv-x="1056" d="M10 932v10h393v-10l-122 -10l309 -832l295 832l-154 10v10h316v-10l-138 -10l-305 -856l-237 -547h-174v143h178l211 406l-107 -62l-340 916zM330 1313l14 61l96 8l39 -8l8 -74l-14 -67l-98 -8l-37 8zM657 1313l15 61l96 8l39 -8l8 -74l-14 -67l-99 -8l-36 8z" />
<glyph unicode="&#x152;" horiz-adv-x="1888" d="M82 688q0 326 178 524.5t539 241.5l276 -20h744v-361h-11l-125 340h-559v-653h318l82 233h10v-485h-10l-82 231h-318v-719h578l125 349h10v-369h-856l-221 -20q-147 0 -272.5 55t-215.5 150.5t-140 224.5t-50 278zM246 743q0 -158 44 -292t121.5 -231t184 -152.5 t231.5 -55.5l154 8v1393l-244 14q-113 0 -204 -49t-154.5 -139t-98 -216t-34.5 -280z" />
<glyph unicode="&#x153;" horiz-adv-x="1683" d="M72 449q0 227 123.5 352t345.5 172q129 0 226 -68.5t146 -185.5q55 104 147.5 165.5t201.5 88.5q96 0 160.5 -29t103.5 -78t55 -116.5t16 -145.5v-43h-639q-2 -16 -2 -27.5v-25.5q0 -102 29 -183t80 -137.5t121.5 -86t152.5 -29.5q68 0 137.5 29.5t129.5 70.5l6 -6 q-43 -35 -81 -61.5t-76 -50t-78 -44t-89 -41.5q-123 0 -231.5 61.5t-165.5 186.5q-55 -98 -155.5 -158.5t-239.5 -89.5q-94 0 -172 37t-134.5 101.5t-87 151.5t-30.5 190zM201 494q0 -98 24.5 -187.5t68.5 -157t106.5 -106.5t138.5 -39q70 0 125 34t92 94.5t56 141t19 175.5 q0 111 -25.5 200.5t-70.5 152t-107 97.5t-136 35q-72 0 -126.5 -33t-91 -91t-55 -139t-18.5 -177zM958 571h496q0 74 -9 138.5t-34 113.5t-69.5 78t-118.5 29q-63 0 -110.5 -26.5t-80.5 -75t-50 -114t-24 -143.5z" />
<glyph unicode="&#x178;" horiz-adv-x="1390" d="M10 1423v11h514v-11l-192 -10l434 -792l432 792l-213 10v11h395v-11l-157 -10l-443 -813v-580l236 -10v-10h-615v10l236 10v539l-469 854zM440 1724l15 62l96 8l39 -8l8 -74l-14 -67l-99 -9l-36 9zM874 1724l15 62l96 8l39 -8l8 -74l-14 -67l-98 -9l-37 9z" />
<glyph unicode="&#x2c6;" horiz-adv-x="1024" d="M238 1110l258 379h8l260 -379h-10l-252 236h-4l-250 -236h-10z" />
<glyph unicode="&#x2dc;" horiz-adv-x="1024" d="M188 1188l50 194l129 45l401 -178l55 185h11l-50 -195l-129 -45l-401 180l-55 -186h-11z" />
<glyph unicode="&#x2000;" horiz-adv-x="937" />
<glyph unicode="&#x2001;" horiz-adv-x="1874" />
<glyph unicode="&#x2002;" horiz-adv-x="937" />
<glyph unicode="&#x2003;" horiz-adv-x="1874" />
<glyph unicode="&#x2004;" horiz-adv-x="624" />
<glyph unicode="&#x2005;" horiz-adv-x="468" />
<glyph unicode="&#x2006;" horiz-adv-x="312" />
<glyph unicode="&#x2007;" horiz-adv-x="312" />
<glyph unicode="&#x2008;" horiz-adv-x="234" />
<glyph unicode="&#x2009;" horiz-adv-x="374" />
<glyph unicode="&#x200a;" horiz-adv-x="104" />
<glyph unicode="&#x2010;" horiz-adv-x="788" d="M82 547v41h625v-41h-625z" />
<glyph unicode="&#x2011;" horiz-adv-x="788" d="M82 547v41h625v-41h-625z" />
<glyph unicode="&#x2012;" horiz-adv-x="788" d="M82 547v41h625v-41h-625z" />
<glyph unicode="&#x2013;" horiz-adv-x="983" d="M82 547v41h819v-41h-819z" />
<glyph unicode="&#x2014;" horiz-adv-x="1781" d="M72 547v41h1638v-41h-1638z" />
<glyph unicode="&#x2018;" horiz-adv-x="430" d="M133 1051l17 82l163 325l6 -2l-120 -319l73 4l47 -8l9 -97l-15 -75l-120 -9l-52 9z" />
<glyph unicode="&#x2019;" horiz-adv-x="419" d="M102 1370l15 76l121 8l51 -8l8 -90l-16 -82l-164 -326l-6 2l120 320l-73 -4l-47 8z" />
<glyph unicode="&#x201a;" horiz-adv-x="337" d="M82 139l14 76l121 8l51 -8l8 -90l-16 -82l-164 -326l-6 2l121 320l-74 -4l-47 8z" />
<glyph unicode="&#x201c;" horiz-adv-x="645" d="M92 1051l17 82l163 325l7 -2l-121 -319l73 4l48 -8l8 -97l-15 -75l-120 -9l-52 9zM389 1051l17 82l163 325l6 -2l-120 -319l73 4l47 -8l9 -97l-15 -75l-120 -9l-52 9z" />
<glyph unicode="&#x201d;" horiz-adv-x="645" d="M92 1374l14 76l121 8l52 -8l8 -90l-17 -82l-164 -326l-6 2l121 320l-74 -4l-47 8zM389 1374l14 76l121 8l51 -8l9 -90l-17 -82l-164 -326l-6 2l121 320l-74 -4l-47 8z" />
<glyph unicode="&#x201e;" horiz-adv-x="645" d="M92 139l14 76l121 8l52 -8l8 -90l-17 -82l-164 -326l-6 2l121 320l-74 -4l-47 8zM389 139l14 76l121 8l51 -8l9 -90l-17 -82l-164 -326l-6 2l121 320l-74 -4l-47 8z" />
<glyph unicode="&#x2022;" horiz-adv-x="411" d="M102 633l19 84l129 8l51 -8l8 -101l-18 -90l-129 -8l-51 8z" />
<glyph unicode="&#x2026;" horiz-adv-x="1468" d="M154 96l14 78l121 8l47 -8l8 -90l-14 -84l-123 -8l-45 8zM639 96l14 78l121 8l47 -8l8 -90l-14 -84l-123 -8l-45 8zM1124 96l15 78l121 8l47 -8l8 -90l-15 -84l-122 -8l-45 8z" />
<glyph unicode="&#x202f;" horiz-adv-x="374" />
<glyph unicode="&#x2039;" horiz-adv-x="567" d="M102 481l373 451h10l-270 -451l270 -450h-12z" />
<glyph unicode="&#x203a;" horiz-adv-x="567" d="M102 31l271 450l-271 451h11l372 -451l-370 -450h-13z" />
<glyph unicode="&#x205f;" horiz-adv-x="468" />
<glyph unicode="&#x20ac;" horiz-adv-x="1329" d="M92 594v20h117q-2 23 -3 45.5t-1 45.5q0 59 6 114h-119v21h121q18 139 72.5 250.5t138.5 191.5t191.5 128t234.5 60q119 0 224.5 -31.5t164.5 -82.5v-334h-10l-125 295q-94 133 -273 133q-84 0 -163.5 -38t-142 -113.5t-104.5 -190.5t-50 -268h665l-10 -21h-657v-55 q0 -39 2 -76t6 -74h526l-10 -20h-514q14 -109 50 -204t96.5 -166.5t146.5 -113.5t200 -42q47 0 97.5 11t98.5 30.5t91 44t76 51.5l12 -19q-82 -72 -187.5 -130t-236.5 -87q-117 0 -222 40t-187 119t-135.5 195.5t-67.5 270.5h-119z" />
<glyph unicode="&#x2122;" horiz-adv-x="1961" d="M102 1210v224h680v-224h-12l-90 207h-172v-753l108 -7v-12h-350v12l111 7v753h-174l-88 -207h-13zM823 645v12l97 7v751l-97 8v11h240l293 -668l270 668h234v-11l-99 -8v-751l99 -7v-12h-316v12l84 7v729l-303 -754h-65l-322 762v-737l92 -7v-12h-207z" />
<glyph unicode="&#x25fc;" horiz-adv-x="942" d="M0 0v942h942v-942h-942z" />
</font>
</defs>
</svg>
